<?xml version="1.0" encoding="UTF-8" standalone="no"?>
<svg
   width="730.0"
   height="416.0"
   version="1.1"
   id="svg160"
   sodipodi:docname="jetson-cover.svg"
   inkscape:version="1.3.2 (091e20ef0f, 2023-11-25, custom)"
   xmlns:inkscape="http://www.inkscape.org/namespaces/inkscape"
   xmlns:sodipodi="http://sodipodi.sourceforge.net/DTD/sodipodi-0.dtd"
   xmlns="http://www.w3.org/2000/svg"
   xmlns:svg="http://www.w3.org/2000/svg">
  <defs
     id="defs160" />
  <sodipodi:namedview
     id="namedview160"
     pagecolor="#ffffff"
     bordercolor="#000000"
     borderopacity="0.25"
     inkscape:showpageshadow="2"
     inkscape:pageopacity="0.0"
     inkscape:pagecheckerboard="0"
     inkscape:deskcolor="#d1d1d1"
     inkscape:zoom="2.5643836"
     inkscape:cx="393.2719"
     inkscape:cy="199.65812"
     inkscape:window-width="2560"
     inkscape:window-height="1440"
     inkscape:window-x="0"
     inkscape:window-y="0"
     inkscape:window-maximized="0"
     inkscape:current-layer="g160"
     showguides="true" />
  <g
     transform="scale(2.322214523695994, -2.322214523695994)   translate(47.43974802390688,-114.7585944493919)"
     stroke-width="0.5"
     fill="none"
     id="g160">
    <!-- hidden lines -->
    <g
       stroke="rgb(0,0,255)"
       fill="none"
       stroke-dasharray="0.5,0.5"
       id="g1" />
    <!-- solid lines -->
    <path
       d="m 114.2506,-52.501705 5.50161,-3.176356"
       id="path2"
       style="fill:none;stroke:#82b9ff;stroke-width:0.778045" />
    <path
       d="m 121.56774,-55.759597 -0.10319,-0.03955 -0.10885,-0.03411 -0.11366,-0.02844 -0.11755,-0.02252 -0.12054,-0.01644 -0.12259,-0.01022 -0.12367,-0.0039 -0.1238,0.0024 -0.12294,0.0087 -0.12114,0.01493 -0.11837,0.02105 -0.11469,0.027 -0.11012,0.03275 -0.10465,0.03824 -0.0984,0.04343 -0.0914,0.04828"
       id="path3"
       style="fill:none;stroke:#82b9ff;stroke-width:0.778045" />
    <path
       d="m 102.14706,-28.996671 v -16.51705"
       id="path6"
       style="fill:none;stroke:#82b9ff;stroke-width:0.778045" />
    <path
       d="m 103.13735,-27.281439 -0.097,-0.0616 -0.0961,-0.07201 -0.0943,-0.08169 -0.0915,-0.09064 -0.0879,-0.0987 -0.0833,-0.105819 -0.0781,-0.111908 -0.072,-0.116934 -0.0653,-0.120838 -0.0579,-0.123553 -0.05,-0.125099 -0.0416,-0.125437 -0.0327,-0.124553 -0.0236,-0.122486 -0.0143,-0.11924 -0.005,-0.114836"
       id="path7"
       style="fill:none;stroke:#82b9ff;stroke-width:0.778045" />
    <path
       d="m 103.13735,-27.281439 18.43039,10.640792"
       id="path8"
       style="fill:none;stroke:#82b9ff;stroke-width:0.778045" />
    <path
       d="m 102.14706,-45.513721 2.20064,-1.270543"
       id="path10"
       style="fill:none;stroke:#82b9ff;stroke-width:0.778045" />
    <path
       d="m 104.3477,-46.784264 v 6.352711"
       id="path11"
       style="fill:none;stroke:#82b9ff;stroke-width:0.778045" />
    <path
       d="m 114.2506,-46.148993 -9.9029,5.71744"
       id="path12"
       style="fill:none;stroke:#82b9ff;stroke-width:0.778045" />
    <path
       d="m 114.2506,-52.501705 v 6.352712"
       id="path13"
       style="fill:none;stroke:#82b9ff;stroke-width:0.778045" />
    <path
       d="m 106.43832,-41.765621 0.11003,0.06353"
       id="path14"
       style="fill:none;stroke:#82b9ff;stroke-width:0.778045" />
    <path
       d="m 104.3477,-46.784264 2.09062,1.207015"
       id="path15"
       style="fill:none;stroke:#82b9ff;stroke-width:0.778045" />
    <path
       d="m 106.43832,-41.765621 v -3.811628"
       id="path16"
       style="fill:none;stroke:#82b9ff;stroke-width:0.778045" />
    <path
       d="m 77.829945,-13.813689 1e-6,12.7054239"
       id="path17"
       style="fill:none;stroke:#82b9ff;stroke-width:0.778045" />
    <path
       d="M 9.4999522,7.9761139 11.590565,9.1831295"
       id="path18"
       style="fill:none;stroke:#82b9ff;stroke-width:0.778045" />
    <path
       d="m 11.590564,12.994756 10e-7,-3.8116265"
       id="path19"
       style="fill:none;stroke:#82b9ff;stroke-width:0.778045" />
    <path
       d="m 11.590564,12.994756 0.110032,0.06353"
       id="path20"
       style="fill:none;stroke:#82b9ff;stroke-width:0.778045" />
    <path
       d="m 9.4999522,7.9761139 9e-7,6.3527121"
       id="path21"
       style="fill:none;stroke:#82b9ff;stroke-width:0.778045" />
    <path
       d="M 20.503171,7.9761134 9.4999531,14.328826"
       id="path22"
       style="fill:none;stroke:#82b9ff;stroke-width:0.778045" />
    <path
       d="m 20.503172,1.623402 -1e-6,6.3527114"
       id="path23"
       style="fill:none;stroke:#82b9ff;stroke-width:0.778045" />
    <path
       d="m 27.215136,3.9739052 4.51132,2.6046118"
       id="path24"
       style="fill:none;stroke:#82b9ff;stroke-width:0.778045" />
    <path
       d="m 25.124524,-1.044737 2.090612,1.20701504"
       id="path25"
       style="fill:none;stroke:#82b9ff;stroke-width:0.778045" />
    <path
       d="M 27.215136,3.9739052 V 0.16227804"
       id="path26"
       style="fill:none;stroke:#82b9ff;stroke-width:0.778045" />
    <path
       d="M 25.124524,-1.044737 V 10.390144"
       id="path27"
       style="fill:none;stroke:#82b9ff;stroke-width:0.778045" />
    <path
       d="M 43.279836,-0.09183018 25.124524,10.390144"
       id="path28"
       style="fill:none;stroke:#82b9ff;stroke-width:0.778045" />
    <path
       d="M 43.279836,-11.526711 V -0.09183018"
       id="path29"
       style="fill:none;stroke:#82b9ff;stroke-width:0.778045" />
    <path
       d="m 48.121253,-8.0962477 5.611642,3.2398829"
       id="path30"
       style="fill:none;stroke:#82b9ff;stroke-width:0.778045" />
    <path
       d="m 46.030641,-13.11489 2.090611,1.207016"
       id="path31"
       style="fill:none;stroke:#82b9ff;stroke-width:0.778045" />
    <path
       d="m 48.121253,-8.0962477 -1e-6,-3.8116263"
       id="path32"
       style="fill:none;stroke:#82b9ff;stroke-width:0.778045" />
    <path
       d="m 46.030641,-13.11489 10e-7,12.70542305"
       id="path33"
       style="fill:none;stroke:#82b9ff;stroke-width:0.778045" />
    <path
       d="M 63.635792,-10.573806 46.030642,-0.40946695"
       id="path34"
       style="fill:none;stroke:#82b9ff;stroke-width:0.778045" />
    <path
       d="m 63.635792,-23.279229 v 12.705423"
       id="path35"
       style="fill:none;stroke:#82b9ff;stroke-width:0.778045" />
    <path
       d="m 67.927048,-19.531129 9.902897,5.71744"
       id="path36"
       style="fill:none;stroke:#82b9ff;stroke-width:0.778045" />
    <path
       d="m 65.836436,-24.549771 2.090612,1.207015"
       id="path37"
       style="fill:none;stroke:#82b9ff;stroke-width:0.778045" />
    <path
       d="m 67.927048,-19.531129 v -3.811627"
       id="path38"
       style="fill:none;stroke:#82b9ff;stroke-width:0.778045" />
    <path
       d="m 86.852586,4.1009584 -9.02264,-5.2092235"
       id="path39"
       style="fill:none;stroke:#82b9ff;stroke-width:0.778045" />
    <path
       d="m 86.852586,4.1009584 -10e-7,1.1434876"
       id="path40"
       style="fill:none;stroke:#82b9ff;stroke-width:0.778045" />
    <path
       d="M 86.852585,5.244446 66.826727,-6.3174884"
       id="path41"
       style="fill:none;stroke:#82b9ff;stroke-width:0.778045" />
    <path
       d="m 66.826727,-6.3174884 -0.09704,-0.061597 -0.0961,-0.072012 -0.09427,-0.081683 -0.09151,-0.090636 -0.08786,-0.098699 -0.08335,-0.1058189 -0.07806,-0.111908 -0.07201,-0.1169318 -0.06526,-0.1208346 -0.05789,-0.1235533 -0.04996,-0.1251003 -0.04155,-0.1254361 -0.03274,-0.1245561 -0.02361,-0.122485 -0.01426,-0.1192386 -0.0048,-0.1148374"
       id="path42"
       style="fill:none;stroke:#82b9ff;stroke-width:0.778045" />
    <path
       d="M 65.836436,-24.549771 V -8.0327207"
       id="path43"
       style="fill:none;stroke:#82b9ff;stroke-width:0.778045" />
    <path
       d="m 100.05645,-3.5222965 10.50807,6.0668392"
       id="path44"
       style="fill:none;stroke:#82b9ff;stroke-width:0.778045" />
    <path
       d="M 100.05645,-3.5222965 86.852586,4.1009584"
       id="path45"
       style="fill:none;stroke:#82b9ff;stroke-width:0.778045" />
    <path
       d="m 7.1091811,9.6913461 0.00169,-0.039676 0.00506,-0.039576 0.00838,-0.039409 0.011784,-0.039084 0.015007,-0.038754 0.018316,-0.038259 0.046352,-0.074682 0.058822,-0.071695 0.070651,-0.068063 0.081877,-0.06373 0.092303,-0.058791"
       id="path47"
       style="fill:none;stroke:#82b9ff;stroke-width:0.778045" />
    <path
       d="M 7.5193726,9.1196021 9.4999522,7.9761139"
       id="path48"
       style="fill:none;stroke:#82b9ff;stroke-width:0.778045" />
    <path
       d="m 20.503172,1.623402 4.621352,-2.668139"
       id="path49"
       style="fill:none;stroke:#82b9ff;stroke-width:0.778045" />
    <path
       d="m 43.279836,-11.526711 2.750805,-1.588179"
       id="path50"
       style="fill:none;stroke:#82b9ff;stroke-width:0.778045" />
    <path
       d="m 63.635792,-23.279229 2.200644,-1.270542"
       id="path51"
       style="fill:none;stroke:#82b9ff;stroke-width:0.778045" />
    <path
       d="m 100.05645,-3.5222965 v 1.1434876"
       id="path52"
       style="fill:none;stroke:#82b9ff;stroke-width:0.778045" />
    <path
       d="M 100.05645,-2.3788089 86.852585,5.244446"
       id="path53"
       style="fill:none;stroke:#82b9ff;stroke-width:0.778045" />
    <path
       d="m 100.05645,-2.3788089 10.50807,6.0668393"
       id="path54"
       style="fill:none;stroke:#82b9ff;stroke-width:0.778045" />
    <path
       d="m 5.2086966,6.5149903 1.6e-6,67.9740167"
       id="path55"
       style="fill:none;stroke:#82b9ff;stroke-width:0.778045" />
    <path
       d="M 5.7588592,74.806643 5.2086982,74.489007"
       id="path56"
       style="fill:none;stroke:#82b9ff;stroke-width:0.778045" />
    <path
       d="M 5.2086966,6.5149903 122.39298,-61.141393"
       id="path57"
       style="fill:none;stroke:#82b9ff;stroke-width:0.778045" />
    <path
       d="M 16.211918,68.136295 5.2086982,74.489007"
       id="path58"
       style="fill:none;stroke:#82b9ff;stroke-width:0.778045" />
    <path
       d="M 16.211918,68.136295 V 55.430871"
       id="path59"
       style="fill:none;stroke:#82b9ff;stroke-width:0.778045" />
    <path
       d="M 6.0339394,61.30713 16.211918,55.430871"
       id="path60"
       style="fill:none;stroke:#82b9ff;stroke-width:0.778045" />
    <path
       d="m 6.0339386,7.1820253 8e-7,54.1251047"
       id="path61"
       style="fill:none;stroke:#82b9ff;stroke-width:0.778045" />
    <path
       d="M 6.0339386,7.1820253 121.56774,-59.521452"
       id="path62"
       style="fill:none;stroke:#82b9ff;stroke-width:0.778045" />
    <path
       d="M 121.56774,-59.521452 V -5.3963473"
       id="path63"
       style="fill:none;stroke:#82b9ff;stroke-width:0.778045" />
    <path
       d="M 121.56774,-5.3963473 110.56453,0.95636572"
       id="path64"
       style="fill:none;stroke:#82b9ff;stroke-width:0.778045" />
    <path
       d="m 110.56452,13.661789 1e-5,-12.70542328"
       id="path65"
       style="fill:none;stroke:#82b9ff;stroke-width:0.778045" />
    <path
       d="m 122.39299,6.832624 -11.82847,6.829165"
       id="path66"
       style="fill:none;stroke:#82b9ff;stroke-width:0.778045" />
    <path
       d="m 122.39298,-61.141393 1e-5,67.974017"
       id="path67"
       style="fill:none;stroke:#82b9ff;stroke-width:0.778045" />
    <path
       d="m 122.39298,-61.141393 91.10666,52.6004517"
       id="path68"
       style="fill:none;stroke:#82b9ff;stroke-width:0.778045" />
    <path
       d="m 212.94948,59.750709 0.55017,-0.31763"
       id="path69"
       style="fill:none;stroke:#82b9ff;stroke-width:0.778045" />
    <path
       d="m 213.49965,59.433079 -1e-5,-67.9740203"
       id="path70"
       style="fill:none;stroke:#82b9ff;stroke-width:0.778045" />
    <path
       d="M 13.956256,11.755977 11.590564,10.390144"
       id="path71"
       style="fill:none;stroke:#82b9ff;stroke-width:0.778045" />
    <path
       d="M 8.4546463,8.5796214 6.0339386,7.1820253"
       id="path72"
       style="fill:none;stroke:#82b9ff;stroke-width:0.778045" />
    <path
       d="m 16.211918,68.136295 0.550161,0.317635"
       id="path73"
       style="fill:none;stroke:#82b9ff;stroke-width:0.778045" />
    <path
       d="m 16.211918,55.430871 11.553381,6.670347"
       id="path76"
       style="fill:none;stroke:#82b9ff;stroke-width:0.778045" />
    <path
       d="m 110.56452,13.661789 0.55017,0.317636"
       id="path77"
       style="fill:none;stroke:#82b9ff;stroke-width:0.778045" />
    <path
       d="m 122.39299,6.832624 91.10666,52.600455"
       id="path78"
       style="fill:none;stroke:#82b9ff;stroke-width:0.778045" />
    <path
       d="M 5.2086981,78.935906 49.221577,104.34675"
       id="path83"
       style="fill:none;stroke:#82b9ff;stroke-width:0.778045" />
    <path
       d="m 5.2086985,75.124278 -4e-7,3.811628"
       id="path84"
       style="fill:none;stroke:#82b9ff;stroke-width:0.778045" />
    <path
       d="M 5.2086981,78.935906 122.39299,11.279521"
       id="path85"
       style="fill:none;stroke:#82b9ff;stroke-width:0.778045" />
    <path
       d="M 133.7263,109.93714 49.221577,104.34675"
       id="path86"
       style="fill:none;stroke:#82b9ff;stroke-width:0.778045" />
    <path
       d="m 122.39299,11.279521 91.10665,52.600448"
       id="path87"
       style="fill:none;stroke:#82b9ff;stroke-width:0.778045" />
    <path
       d="M 133.7263,109.93714 213.49964,63.879969"
       id="path88"
       style="fill:none;stroke:#82b9ff;stroke-width:0.778045" />
    <path
       d="m 28.31546,91.006058 0.212341,0.117024 0.22167,0.111092 0.230515,0.104895 0.238817,0.09851 0.246596,0.0919 0.25383,0.08508 0.260497,0.07808 0.266574,0.07091 0.27207,0.06357 0.276957,0.0561 0.281236,0.04849 0.28488,0.04078 0.287895,0.03298 0.290265,0.02511 0.291995,0.01718 0.293074,0.0092 0.293499,0.0012 0.29327,-0.0068 0.292397,-0.01473 0.290867,-0.02267 0.288693,-0.03057 0.285877,-0.03839 0.282425,-0.04613 0.278343,-0.05376 0.273646,-0.06128 0.268338,-0.06866 0.262433,-0.07588 0.255946,-0.08294 0.248889,-0.08982 0.241277,-0.09649 0.233136,-0.102949 0.224462,-0.109182 0.215305,-0.115167 0.205659,-0.120901 0.195554,-0.126366 0.185018,-0.13155 0.174074,-0.136435 0.162743,-0.141023 0.15105,-0.145292 0.139011,-0.149246 0.126672,-0.152863 0.114047,-0.156143 0.101181,-0.159068 0.04569,-0.08052 0.04236,-0.08114 0.03907,-0.08168 0.03576,-0.08217 0.03229,-0.08268 0.02897,-0.08307 0.02557,-0.08343 0.02215,-0.08377 0.01873,-0.08404 0.01528,-0.08427 0.01184,-0.08446 0.0084,-0.0846 0.0049,-0.0847 0.0015,-0.08473 -0.002,-0.08472 -0.0055,-0.08467 -0.0089,-0.08458 -0.01236,-0.08444 -0.0158,-0.08424 -0.01924,-0.08401 -0.02266,-0.08372 -0.02607,-0.08338 -0.02946,-0.08301 -0.03286,-0.08258 -0.03622,-0.08211 -0.03957,-0.0816 -0.04288,-0.08103 -0.04617,-0.08043 -0.102145,-0.158859 -0.114998,-0.155912 -0.127603,-0.152605 -0.139923,-0.148956 -0.151932,-0.144983 -0.1636,-0.140687 -0.174901,-0.136089"
       id="path89"
       style="fill:none;stroke:#82b9ff;stroke-width:0.778045" />
    <path
       d="m 37.626385,86.25604 -0.110584,-0.07966 -0.11449,-0.07778 -0.118273,-0.07583 -0.121977,-0.07384 -0.125535,-0.07184 -0.128995,-0.0698 -0.132388,-0.06763 -0.135687,-0.0654 -0.138878,-0.06311 -0.141886,-0.06086 -0.144835,-0.05852 -0.147647,-0.05612 -0.15035,-0.05367 -0.152926,-0.05119 -0.155386,-0.04865 -0.157712,-0.0461 -0.32191,-0.08434 -0.32968,-0.07366 -0.336395,-0.06273 -0.342019,-0.0516 -0.346543,-0.0403 -0.349946,-0.02888 -0.352222,-0.01737 -0.35336,-0.0058 -0.353361,0.0058 -0.352221,0.01737 -0.349945,0.02889 -0.346539,0.04031 -0.342018,0.0516 -0.336393,0.06273 -0.329683,0.07365 -0.321907,0.08434 -0.15771,0.0461 -0.155382,0.04866 -0.152927,0.05119 -0.150349,0.05367 -0.147645,0.05611 -0.144826,0.05851 -0.141893,0.06087 -0.138838,0.06317 -0.135675,0.06541 -0.132406,0.06762 -0.12902,0.06976 -0.125542,0.07186 -0.12196,0.07387 -0.118266,0.07584 -0.114497,0.07775 -0.110627,0.07961"
       id="path90"
       style="fill:none;stroke:#82b9ff;stroke-width:0.778045" />
    <path
       d="m 27.807111,86.256041 -0.167965,0.130429 -0.157587,0.134674 -0.146876,0.138654 -0.13587,0.142343 -0.124577,0.145749 -0.113035,0.148851 -0.101225,0.151673 -0.08929,0.154136 -0.07713,0.156308 -0.0648,0.158167 -0.05235,0.159696 -0.02147,0.08032 -0.01831,0.08058 -0.01517,0.0808 -0.01199,0.08098 -0.0088,0.08111 -0.0056,0.08119 -0.0025,0.08125 7.27e-4,0.08128 0.0039,0.08124 0.0071,0.08116 0.01027,0.08105 0.01344,0.08089 0.0166,0.0807 0.01976,0.08046 0.04895,0.160057 0.06144,0.15861 0.0738,0.156849 0.08601,0.154751 0.09804,0.152354 0.109865,0.149642 0.121472,0.146622 0.132831,0.143298 0.143915,0.139689 0.154708,0.135787 0.165184,0.131611 0.175327,0.127153 0.185081,0.122489 0.194498,0.117504"
       id="path91"
       style="fill:none;stroke:#82b9ff;stroke-width:0.778045" />
    <path
       d="m 123.49331,23.349673 0.21234,0.117026 0.22167,0.111091 0.23051,0.104895 0.23882,0.09851 0.2466,0.0919 0.25383,0.08508 0.26049,0.07807 0.26659,0.0709 0.27207,0.06357 0.27695,0.0561 0.28124,0.04849 0.28488,0.04078 0.28789,0.03298 0.29027,0.02512 0.29199,0.01718 0.29308,0.0092 0.2935,0.0012 0.29327,-0.0068 0.2924,-0.01473 0.29087,-0.02267 0.28869,-0.03057 0.28588,-0.03839 0.28242,-0.04612 0.27835,-0.05376 0.27364,-0.06128 0.26834,-0.06866 0.26243,-0.07589 0.25595,-0.08294 0.24889,-0.08982 0.24128,-0.09649 0.23313,-0.102948 0.22446,-0.109182 0.21531,-0.115168 0.20566,-0.120901 0.19555,-0.126365 0.18502,-0.131549 0.17407,-0.136437 0.16275,-0.141022 0.15105,-0.145292 0.13901,-0.149246 0.12667,-0.152864 0.11406,-0.156135 0.10118,-0.159067 0.0457,-0.08053 0.0424,-0.08114 0.0391,-0.08168 0.0358,-0.08217 0.0323,-0.08268 0.029,-0.08307 0.0256,-0.08344 0.0221,-0.08376 0.0187,-0.08404 0.0153,-0.08427 0.0118,-0.08446 0.008,-0.0846 0.005,-0.08469 10e-4,-0.08473 -0.002,-0.08472 -0.005,-0.08467 -0.009,-0.08458 -0.0124,-0.08444 -0.0158,-0.08424 -0.0192,-0.08401 -0.0227,-0.08372 -0.0261,-0.08338 -0.0295,-0.08301 -0.0328,-0.08259 -0.0362,-0.08211 -0.0395,-0.08159 -0.0429,-0.08103 -0.0462,-0.08043 -0.10214,-0.15886 -0.115,-0.155911 -0.1276,-0.152605 -0.13993,-0.148957 -0.15193,-0.144983 -0.1636,-0.140686 -0.1749,-0.136089"
       id="path92"
       style="fill:none;stroke:#82b9ff;stroke-width:0.778045" />
    <path
       d="m 132.80423,18.599658 -0.11058,-0.07966 -0.11449,-0.07778 -0.11829,-0.07584 -0.12197,-0.07384 -0.12555,-0.07185 -0.129,-0.0698 -0.1324,-0.06764 -0.13569,-0.0654 -0.13887,-0.06311 -0.14189,-0.06086 -0.14482,-0.05851 -0.14765,-0.05612 -0.15035,-0.05367 -0.15293,-0.05119 -0.15538,-0.04866 -0.15771,-0.0461 -0.32191,-0.08433 -0.32969,-0.07366 -0.33639,-0.06273 -0.34202,-0.0516 -0.34654,-0.0403 -0.34995,-0.02888 -0.35222,-0.01737 -0.35336,-0.0058 -0.35336,0.0058 -0.35222,0.01737 -0.34994,0.02888 -0.34655,0.04031 -0.34201,0.0516 -0.3364,0.06273 -0.32968,0.07365 -0.32191,0.08434 -0.15771,0.0461 -0.15538,0.04866 -0.15293,0.05119 -0.15034,0.05367 -0.14765,0.05611 -0.14483,0.05851 -0.14189,0.06087 -0.13884,0.06317 -0.13567,0.06541 -0.13241,0.06762 -0.12902,0.06976 -0.12553,0.07184 -0.12195,0.07388 -0.11827,0.07585 -0.1145,0.07775 -0.11063,0.07961"
       id="path93"
       style="fill:none;stroke:#82b9ff;stroke-width:0.778045" />
    <path
       d="m 122.98496,18.599658 -0.16797,0.130428 -0.15758,0.134675 -0.14688,0.138654 -0.13587,0.142343 -0.12458,0.145749 -0.11303,0.148852 -0.10123,0.151672 -0.0893,0.154136 -0.0771,0.156308 -0.0648,0.15816 -0.0524,0.159696 -0.0215,0.08032 -0.0183,0.08058 -0.0152,0.0808 -0.012,0.08098 -0.009,0.08111 -0.006,0.0812 -0.002,0.08125 7.3e-4,0.08128 0.004,0.08124 0.007,0.08116 0.0103,0.08105 0.0134,0.0809 0.0166,0.0807 0.0198,0.08046 0.049,0.160043 0.0614,0.15861 0.0738,0.156849 0.086,0.154752 0.098,0.152353 0.10986,0.149643 0.12148,0.146622 0.13283,0.143299 0.14391,0.139688 0.15471,0.135787 0.16518,0.13161 0.17533,0.127153 0.18508,0.122489 0.1945,0.117505"
       id="path94"
       style="fill:none;stroke:#82b9ff;stroke-width:0.778045" />
    <path
       d="m 88.668119,85.892123 0.115451,0.06432 0.119492,0.0618 0.123358,0.05918 0.127076,0.05648 0.13057,0.05379 0.133918,0.05098 0.137074,0.04809 0.140047,0.04515 0.142828,0.04214 0.145424,0.03908 0.147814,0.03596 0.149997,0.0328 0.151996,0.02959 0.153766,0.02634 0.155359,0.02305 0.156714,0.01974 0.15787,0.0164 0.158811,0.01302 0.159523,0.0096 0.160035,0.0062 0.160322,0.0028 0.160387,-5.66e-4 0.160249,-0.004 0.159883,-0.0074 0.159305,-0.01077 0.158512,-0.01415 0.1575,-0.01751 0.156285,-0.02085 0.154852,-0.02415 0.153202,-0.02743 0.151353,-0.03067 0.149292,-0.03385 0.147035,-0.03701 0.144564,-0.0401 0.141924,-0.04315 0.139064,-0.04614 0.136032,-0.04907 0.132809,-0.05192 0.12942,-0.0547 0.125833,-0.05742 0.122094,-0.06007 0.118189,-0.06261 0.11412,-0.06508 0.109885,-0.06746 0.105511,-0.06975 0.100993,-0.07194 0.09633,-0.07404 0.09155,-0.07604 0.08664,-0.07793 0.08162,-0.07972 0.07648,-0.0814 0.07124,-0.08297 0.06583,-0.08446 0.06048,-0.08577 0.05492,-0.08703 0.04938,-0.08811 0.04372,-0.08911 0.03809,-0.08993 0.03225,-0.09072 0.02645,-0.09134 0.02061,-0.09183 0.01474,-0.09222 0.0089,-0.09246 0.003,-0.09259"
       id="path95"
       style="fill:none;stroke:#82b9ff;stroke-width:0.778045" />
    <path
       d="m 96.106074,84.113364 -0.0052,-0.123433 -0.01573,-0.123128 -0.02617,-0.122542 -0.03656,-0.121659 -0.04686,-0.120472 -0.05704,-0.118998 -0.06708,-0.117231 -0.07697,-0.115196 -0.08666,-0.112871 -0.09616,-0.110282 -0.105404,-0.107428 -0.11441,-0.104309 -0.123142,-0.100942 -0.131567,-0.09734 -0.139722,-0.09343 -0.147449,-0.08944 -0.154896,-0.08512 -0.161894,-0.08071 -0.168596,-0.07596 -0.174841,-0.0711 -0.180675,-0.06606 -0.186074,-0.06086 -0.191017,-0.05552 -0.195505,-0.05004 -0.199525,-0.04444 -0.203059,-0.03873 -0.20611,-0.03293 -0.208658,-0.02705 -0.21071,-0.0211 -0.212248,-0.01511 -0.213273,-0.0091 -0.213791,-0.003 -0.213789,0.003 -0.213273,0.0091 -0.212246,0.01511 -0.210706,0.02111 -0.208657,0.02705 -0.206105,0.03293 -0.20306,0.03873 -0.19953,0.04443 -0.195509,0.05004 -0.191014,0.05551 -0.186071,0.06086 -0.180681,0.06606 -0.174841,0.0711 -0.168594,0.07597 -0.16193,0.08064 -0.154881,0.08514 -0.147455,0.08943 -0.139682,0.09348 -0.131575,0.09734 -0.123146,0.100946 -0.114419,0.104315 -0.105403,0.107436 -0.09615,0.110277 -0.08666,0.112883 -0.07694,0.115209 -0.06708,0.117234 -0.05702,0.118998 -0.04686,0.120466 -0.03656,0.121649 -0.02617,0.122544 -0.01573,0.123129 -0.0052,0.12343"
       id="path96"
       style="fill:none;stroke:#82b9ff;stroke-width:0.778045" />
    <path
       d="m 87.391968,84.113364 0.0052,0.123432 0.01573,0.123129 0.02617,0.122541 0.03656,0.12166 0.04686,0.120472 0.05704,0.118998 0.06708,0.11723 0.07697,0.115196 0.08666,0.112871 0.09616,0.110283 0.105404,0.107428 0.11441,0.104309 0.123143,0.100941 0.131566,0.09734 0.139722,0.09342 0.14745,0.08944"
       id="path97"
       style="fill:none;stroke:#82b9ff;stroke-width:0.778045" />
    <path
       d="m 105.77813,96.342334 0.39346,0.223031 0.40049,0.218828 0.40742,0.214506 0.41419,0.210148 0.42081,0.205709 0.4273,0.201207 0.43365,0.196623 0.43984,0.191987 0.44588,0.187283 0.45178,0.182511 0.45753,0.177672 0.4631,0.17279 0.46855,0.167826 0.47381,0.16282 0.47893,0.157756 0.48387,0.15265 0.48865,0.147473 0.49328,0.142254 0.49773,0.136988 0.50201,0.131679 0.50612,0.126325 0.51006,0.12093 0.51384,0.11548 0.51743,0.11001 0.52084,0.10448 0.52409,0.0989 0.52716,0.0934 0.53004,0.0877 0.53275,0.0821 0.53528,0.0764 0.53762,0.0707 0.53978,0.065 0.54177,0.0592 0.54356,0.0535 0.54517,0.0477 0.5466,0.0419 0.54785,0.0361 0.5489,0.0302 0.54977,0.0244 0.55045,0.0185 0.55096,0.0127 0.55126,0.007 0.55139,9.8e-4 0.55133,-0.005 0.55108,-0.0108 0.55064,-0.0166 0.55002,-0.0225 0.54921,-0.0283 0.54822,-0.0341 0.54703,-0.0399 0.54567,-0.0457 0.54412,-0.0515 0.54239,-0.0573 0.54046,-0.0631 0.53836,-0.0688 0.53608,-0.0745 0.53361,-0.0802 0.53097,-0.0859 0.52814,-0.0915 0.52513,-0.0971 0.52194,-0.10264 0.51859,-0.10817 0.51505,-0.11366 0.51134,-0.11911 0.50746,-0.12453 0.5034,-0.1299 0.49917,-0.135226 0.49478,-0.140509 0.49022,-0.145744 0.48548,-0.150927 0.48059,-0.156062 0.47554,-0.161143 0.47031,-0.166169 0.46494,-0.171139 0.4594,-0.17605 0.45372,-0.180904 0.44786,-0.185694 0.44188,-0.190422 0.43572,-0.195086 0.42944,-0.199684 0.42299,-0.204212 0.41641,-0.208674 0.40969,-0.213065 0.40283,-0.21738 0.39583,-0.221626 0.38869,-0.225795 0.38143,-0.229886 0.37404,-0.233902 0.36652,-0.237836 0.35887,-0.241692 0.3511,-0.245464 0.34322,-0.249154 0.33522,-0.25276 0.32711,-0.256278 0.31888,-0.25971 0.31055,-0.263052 0.3021,-0.266314 0.29356,-0.269478 0.28492,-0.272555 0.27618,-0.275536 0.26735,-0.278422 0.25843,-0.281214 0.24943,-0.283911 0.24033,-0.286516 0.23115,-0.289021 0.2219,-0.291432 0.21257,-0.293739 0.20317,-0.295947 0.1937,-0.298057 0.18419,-0.300049 0.17457,-0.30197 0.16495,-0.303753 0.1552,-0.305475 0.14543,-0.307074 0.13562,-0.308565 0.12575,-0.30996 0.11586,-0.31124 0.10591,-0.312417 0.0959,-0.313492 0.0859,-0.314456 0.0759,-0.315321 0.0658,-0.316071 0.0557,-0.316715 0.0456,-0.317255 0.0355,-0.317685 0.0254,-0.318014 0.0152,-0.318225 0.005,-0.318332"
       id="path98"
       style="fill:none;stroke:#82b9ff;stroke-width:0.778045" />
    <path
       d="m 156.91406,84.113361 -0.002,-0.21223 -0.007,-0.212198 -0.0113,-0.212134 -0.0158,-0.212033 -0.0203,-0.211907 -0.0248,-0.211752 -0.0293,-0.211558 -0.0338,-0.211336 -0.0383,-0.211075 -0.0428,-0.210793 -0.0472,-0.210476 -0.0517,-0.21012 -0.0562,-0.209738 -0.0606,-0.209327 -0.0651,-0.208882 -0.0695,-0.208405 -0.0739,-0.207897 -0.0783,-0.207358 -0.0827,-0.206786 -0.0871,-0.206185 -0.0915,-0.205553 -0.0959,-0.204888 -0.10022,-0.204194 -0.10455,-0.203468 -0.10886,-0.202711 -0.11316,-0.201927 -0.11745,-0.201108 -0.12172,-0.200261 -0.12596,-0.199384 -0.13019,-0.198477 -0.1344,-0.197539 -0.13858,-0.196571 -0.14276,-0.195576 -0.1469,-0.194549 -0.15102,-0.193494 -0.15513,-0.192409 -0.1592,-0.191295 -0.16326,-0.190154 -0.16729,-0.188982 -0.17129,-0.187783 -0.17527,-0.186555 -0.17922,-0.185299 -0.18315,-0.184016 -0.18705,-0.182703 -0.19091,-0.181365 -0.19476,-0.179999 -0.19856,-0.178606 -0.20235,-0.177185 -0.2061,-0.175738 -0.20981,-0.174264 -0.21351,-0.172765 -0.21716,-0.171239 -0.22079,-0.169688 -0.22437,-0.168111 -0.22793,-0.166508 -0.23146,-0.164882 -0.23494,-0.163228 -0.23839,-0.161551 -0.24181,-0.159851 -0.24519,-0.158126 -0.24853,-0.156374 -0.25184,-0.154598 -0.2551,-0.152801 -0.25834,-0.150983 -0.26151,-0.149154 -0.26467,-0.14729 -0.26778,-0.145402 -0.27085,-0.143492 -0.55075,-0.281167 -0.56254,-0.273278 -0.57398,-0.265226 -0.58509,-0.257014 -0.59583,-0.248645 -0.60622,-0.24013 -0.61625,-0.231466 -0.6259,-0.222668 -0.63518,-0.21373 -0.64407,-0.204666 -0.65258,-0.195479 -0.66069,-0.186175 -0.6684,-0.176755 -0.67571,-0.167233 -0.68263,-0.157609 -0.68911,-0.147888 -0.69519,-0.138081 -0.70086,-0.128188 -0.70609,-0.11822 -0.7109,-0.10818 -0.71529,-0.09807 -0.71924,-0.08791 -0.72276,-0.07769 -0.72584,-0.06743 -0.7285,-0.05712 -0.7307,-0.04678 -0.73247,-0.03642 -0.7338,-0.02603 -0.73468,-0.01562 -0.73513,-0.0052 -0.73512,0.0052 -0.73469,0.01562 -0.73379,0.02603 -0.73247,0.03642 -0.73071,0.04678 -0.72849,0.05712 -0.72585,0.06743 -0.72276,0.07769 -0.71924,0.08791 -0.71528,0.09807 -0.71091,0.10818 -0.70609,0.11822 -0.70085,0.128189 -0.69519,0.13808 -0.68912,0.147889 -0.68262,0.157608 -0.67571,0.167233 -0.66841,0.176756 -0.66069,0.186174 -0.65257,0.195479 -0.64407,0.204667 -0.63518,0.21373 -0.6259,0.222666 -0.61625,0.231467 -0.60622,0.240129 -0.59583,0.248646 -0.58509,0.257014 -0.57398,0.265226 -0.56254,0.273278 -0.55075,0.281168 -0.27085,0.143489 -0.26778,0.145397 -0.26468,0.147279 -0.26152,0.14915 -0.25833,0.150986 -0.2551,0.152811 -0.25184,0.154603 -0.24853,0.156377 -0.24519,0.158124 -0.2418,0.159853 -0.23839,0.161556 -0.23494,0.163225 -0.23145,0.164884 -0.22793,0.166509 -0.22438,0.168108 -0.22079,0.16969 -0.21716,0.171236 -0.2135,0.172767 -0.20983,0.174263 -0.20609,0.175741 -0.20234,0.177186 -0.19857,0.178605 -0.19475,0.18 -0.19092,0.181362 -0.18704,0.182705 -0.18315,0.184016 -0.17922,0.185303 -0.17527,0.186557 -0.17128,0.187784 -0.16729,0.188981 -0.16326,0.190154 -0.159209,0.191292 -0.155128,0.192409 -0.151027,0.193492 -0.146896,0.194553 -0.142759,0.195573 -0.138591,0.196569 -0.134391,0.197543 -0.130215,0.198462 -0.125912,0.199413 -0.121726,0.200254 -0.117448,0.201108 -0.113167,0.201924 -0.108929,0.202676 -0.104538,0.203473 -0.100265,0.204164 -0.09587,0.204889 -0.09151,0.205551 -0.08713,0.206184 -0.08273,0.20679 -0.07834,0.207358 -0.07392,0.207897 -0.06951,0.208403 -0.06507,0.208876 -0.06063,0.209326 -0.05617,0.209737 -0.05171,0.210123 -0.04724,0.210472 -0.04275,0.210797 -0.03828,0.211077 -0.03379,0.211332 -0.02929,0.211562 -0.02479,0.211748 -0.02029,0.21191 -0.01578,0.21204 -0.01127,0.212135 -0.0068,0.212199 -0.0023,0.21223"
       id="path99"
       style="fill:none;stroke:#82b9ff;stroke-width:0.778045" />
    <path
       d="m 97.004586,84.113363 0.0023,0.21223 0.0068,0.212198 0.01128,0.212135 0.01578,0.212032 0.02029,0.211907 0.0248,0.211752 0.02929,0.211558 0.03379,0.211336 0.03828,0.211082 0.04276,0.210794 0.04724,0.210475 0.0517,0.210121 0.05616,0.209737 0.06062,0.209327 0.06507,0.208877 0.0695,0.2084 0.07393,0.207898 0.07834,0.207356 0.08274,0.206788 0.08713,0.20618 0.0915,0.205558 0.09587,0.204882 0.100216,0.204193 0.10455,0.203461 0.108863,0.202716 0.113163,0.201929 0.117445,0.201113 0.121717,0.200255 0.125962,0.199382 0.130189,0.19848 0.134401,0.197534 0.138586,0.196573 0.14276,0.195568 0.146902,0.194545 0.151025,0.193494 0.155126,0.192412 0.159199,0.191298 0.16326,0.190153 0.16729,0.188978 0.17129,0.187784 0.17527,0.186557 0.17922,0.185301 0.18315,0.184011 0.18705,0.182702 0.19091,0.181362 0.19476,0.180002 0.19856,0.178608 0.20235,0.17718 0.2061,0.175736 0.20981,0.174269 0.21351,0.172768 0.21716,0.171235 0.22078,0.169694 0.22438,0.168104 0.22794,0.16651 0.23145,0.164877 0.23494,0.163225 0.2384,0.161552 0.2418,0.159856 0.2452,0.158099 0.24851,0.156413 0.25186,0.154572 0.25508,0.152842 0.25835,0.150956"
       id="path100"
       style="fill:none;stroke:#82b9ff;stroke-width:0.778045" />
    <path
       d="m 123.87842,106.2208 0.11545,0.0643 0.1195,0.0618 0.12335,0.0592 0.12708,0.0565 0.13057,0.0538 0.13392,0.051 0.13707,0.0481 0.14005,0.0452 0.14283,0.0421 0.14542,0.0391 0.14781,0.036 0.15,0.0328 0.152,0.0296 0.15376,0.0263 0.15536,0.023 0.15672,0.0197 0.15787,0.0164 0.15881,0.013 0.15952,0.01 0.16004,0.006 0.16032,0.003 0.16038,-5.7e-4 0.16025,-0.004 0.15989,-0.007 0.1593,-0.0108 0.15851,-0.0142 0.1575,-0.0175 0.15629,-0.0208 0.15485,-0.0242 0.1532,-0.0274 0.15136,-0.0307 0.14929,-0.0339 0.14703,-0.037 0.14457,-0.0401 0.14192,-0.0431 0.13906,-0.0461 0.13605,-0.0491 0.13281,-0.0519 0.12942,-0.0547 0.12585,-0.0574 0.12209,-0.0601 0.11819,-0.0626 0.11412,-0.0651 0.10988,-0.0675 0.10551,-0.0697 0.101,-0.072 0.0963,-0.074 0.0916,-0.076 0.0866,-0.0779 0.0816,-0.0797 0.0765,-0.0814 0.0712,-0.083 0.0658,-0.0845 0.0605,-0.0858 0.0549,-0.087 0.0494,-0.0881 0.0437,-0.0891 0.0381,-0.0899 0.0323,-0.0907 0.0265,-0.0913 0.0206,-0.0918 0.0147,-0.0922 0.009,-0.0925 0.003,-0.0926"
       id="path101"
       style="fill:none;stroke:#82b9ff;stroke-width:0.778045" />
    <path
       d="m 131.31638,104.44204 -0.005,-0.12343 -0.0157,-0.12313 -0.0262,-0.12254 -0.0366,-0.12166 -0.0469,-0.12047 -0.057,-0.119 -0.0671,-0.11724 -0.077,-0.1152 -0.0867,-0.11287 -0.0962,-0.11028 -0.10541,-0.10743 -0.11441,-0.10431 -0.12314,-0.10094 -0.13157,-0.0973 -0.13972,-0.0934 -0.14745,-0.0894 -0.1549,-0.0851 -0.16189,-0.0807 -0.1686,-0.076 -0.17484,-0.0711 -0.18067,-0.0661 -0.18608,-0.0609 -0.19101,-0.0555 -0.19551,-0.05 -0.19952,-0.0444 -0.20306,-0.0387 -0.20611,-0.0329 -0.20866,-0.0271 -0.21071,-0.0211 -0.21225,-0.0151 -0.21327,-0.009 -0.21379,-0.003 -0.21379,0.003 -0.21327,0.009 -0.21225,0.0151 -0.2107,0.0211 -0.20866,0.0271 -0.20611,0.0329 -0.20306,0.0387 -0.19953,0.0444 -0.19551,0.05 -0.19101,0.0555 -0.18607,0.0609 -0.18068,0.0661 -0.17484,0.0711 -0.1686,0.076 -0.16193,0.0806 -0.15488,0.0851 -0.14747,0.0894 -0.13968,0.0935 -0.13157,0.0973 -0.12315,0.10095 -0.11442,0.10431 -0.10541,0.10743 -0.0962,0.11029 -0.0867,0.11288 -0.0769,0.11521 -0.0671,0.11723 -0.057,0.119 -0.0469,0.12047 -0.0366,0.12165 -0.0262,0.12254 -0.0157,0.12313 -0.005,0.12343"
       id="path102"
       style="fill:none;stroke:#82b9ff;stroke-width:0.778045" />
    <path
       d="m 122.60227,104.44204 0.005,0.12343 0.0157,0.12313 0.0262,0.12254 0.0366,0.12166 0.0469,0.12047 0.057,0.119 0.0671,0.11723 0.077,0.1152 0.0867,0.11287 0.0962,0.11028 0.1054,0.10743 0.11441,0.10431 0.12315,0.10094 0.13156,0.0973 0.13973,0.0934 0.14744,0.0894"
       id="path103"
       style="fill:none;stroke:#82b9ff;stroke-width:0.778045" />
    <path
       d="m 123.87842,65.563444 0.11548,0.06427 0.11951,0.06178 0.12336,0.05918 0.12705,0.05652 0.13057,0.05379 0.13391,0.05097 0.13707,0.0481 0.14004,0.04515 0.14283,0.04214 0.14542,0.03908 0.14781,0.03596 0.15001,0.0328 0.15199,0.02959 0.15378,0.02634 0.15535,0.02305 0.15671,0.01974 0.15787,0.0164 0.15881,0.01303 0.15953,0.0096 0.16003,0.0062 0.16032,0.0028 0.16039,-5.7e-4 0.16026,-0.004 0.15988,-0.0074 0.15931,-0.01077 0.15851,-0.01415 0.1575,-0.01751 0.15629,-0.02084 0.15484,-0.02415 0.15321,-0.02743 0.15135,-0.03066 0.14929,-0.03386 0.14704,-0.03701 0.14457,-0.04011 0.14192,-0.04315 0.13907,-0.04614 0.13604,-0.04906 0.13281,-0.05192 0.12942,-0.0547 0.12585,-0.05742 0.12209,-0.06006 0.11819,-0.06261 0.11411,-0.06508 0.10989,-0.06746 0.10551,-0.06975 0.101,-0.07194 0.0963,-0.07404 0.0915,-0.07604 0.0867,-0.07793 0.0816,-0.07972 0.0765,-0.0814 0.0712,-0.08297 0.0658,-0.08447 0.0605,-0.08577 0.0549,-0.08703 0.0494,-0.08811 0.0437,-0.0891 0.0379,-0.09001 0.0323,-0.09072 0.0264,-0.09134 0.0206,-0.09184 0.0147,-0.09222 0.009,-0.09246 0.003,-0.09259"
       id="path104"
       style="fill:none;stroke:#82b9ff;stroke-width:0.778045" />
    <path
       d="m 131.31638,63.784685 -0.005,-0.123431 -0.0157,-0.123133 -0.0262,-0.122538 -0.0366,-0.121654 -0.0469,-0.120472 -0.057,-0.118997 -0.0671,-0.117233 -0.077,-0.115197 -0.0867,-0.112876 -0.0962,-0.110287 -0.1054,-0.107427 -0.11441,-0.104312 -0.12314,-0.100946 -0.13157,-0.09734 -0.13968,-0.09349 -0.14747,-0.08942 -0.15488,-0.08514 -0.16193,-0.08064 -0.16859,-0.07596 -0.17485,-0.07109 -0.18068,-0.06606 -0.18607,-0.06086 -0.19102,-0.05551 -0.19551,-0.05003 -0.19952,-0.04444 -0.20306,-0.03873 -0.20611,-0.03293 -0.20866,-0.02705 -0.21071,-0.02111 -0.21224,-0.01511 -0.21328,-0.0091 -0.21379,-0.003 -0.21379,0.003 -0.21327,0.0091 -0.21225,0.01511 -0.2107,0.02111 -0.20866,0.02705 -0.20611,0.03293 -0.20306,0.03873 -0.19953,0.04443 -0.19551,0.05004 -0.19102,0.05552 -0.18607,0.06086 -0.18068,0.06605 -0.17484,0.0711 -0.16859,0.07596 -0.16193,0.08064 -0.15488,0.08514 -0.14747,0.08942 -0.13969,0.09349 -0.13157,0.09733 -0.12314,0.100944 -0.11442,0.104311 -0.10541,0.107425 -0.0961,0.110289 -0.0867,0.112879 -0.0769,0.115211 -0.0671,0.117237 -0.057,0.119003 -0.0469,0.120467 -0.0366,0.121651 -0.0262,0.122544 -0.0157,0.123135 -0.005,0.123431"
       id="path105"
       style="fill:none;stroke:#82b9ff;stroke-width:0.778045" />
    <path
       d="m 122.60227,63.784685 0.005,0.12343 0.0157,0.123134 0.0262,0.122537 0.0366,0.121654 0.0469,0.120472 0.057,0.118997 0.0671,0.117241 0.077,0.115197 0.0867,0.112877 0.0961,0.110286 0.1054,0.107427 0.11441,0.104312 0.12314,0.100947 0.13157,0.09734 0.13968,0.09349 0.14747,0.08942"
       id="path106"
       style="fill:none;stroke:#82b9ff;stroke-width:0.778045" />
    <path
       d="m 159.08872,85.892121 0.11549,0.06427 0.1195,0.06177 0.12336,0.05918 0.12706,0.05652 0.13057,0.05379 0.13391,0.05098 0.13707,0.0481 0.14005,0.04515 0.14283,0.04214 0.14542,0.03908 0.14781,0.03597 0.15,0.0328 0.152,0.02959 0.15377,0.02634 0.15535,0.02306 0.15672,0.01974 0.15787,0.01639 0.15881,0.01303 0.15952,0.0096 0.16003,0.0062 0.16033,0.0028 0.16039,-5.71e-4 0.16025,-0.004 0.15989,-0.0074 0.1593,-0.01077 0.15852,-0.01415 0.1575,-0.01751 0.15628,-0.02084 0.15485,-0.02415 0.1532,-0.02743 0.15135,-0.03066 0.1493,-0.03386 0.14703,-0.03701 0.14457,-0.04011 0.14192,-0.04315 0.13907,-0.04614 0.13603,-0.04907 0.13283,-0.05192 0.12942,-0.05471 0.12584,-0.05742 0.12209,-0.06006 0.11819,-0.06261 0.11412,-0.06508 0.10989,-0.06746 0.10551,-0.06975 0.10099,-0.07194 0.0963,-0.07404 0.0916,-0.07604 0.0866,-0.07793 0.0816,-0.07972 0.0765,-0.0814 0.0712,-0.08297 0.0658,-0.08447 0.0605,-0.08577 0.0549,-0.08703 0.0494,-0.08811 0.0437,-0.0891 0.0381,-0.08993 0.0323,-0.09072 0.0265,-0.09134 0.0206,-0.09184 0.0147,-0.09222 0.009,-0.09246 0.003,-0.09259"
       id="path107"
       style="fill:none;stroke:#82b9ff;stroke-width:0.778045" />
    <path
       d="m 166.52668,84.113361 -0.005,-0.12343 -0.0157,-0.123134 -0.0262,-0.122537 -0.0366,-0.121654 -0.0469,-0.120472 -0.057,-0.118997 -0.0671,-0.117233 -0.077,-0.115198 -0.0867,-0.112876 -0.0962,-0.110286 -0.1054,-0.107427 -0.11441,-0.104312 -0.12314,-0.100947 -0.13157,-0.09734 -0.13968,-0.09349 -0.14747,-0.08942 -0.15488,-0.08514 -0.16193,-0.08065 -0.16859,-0.07596 -0.17485,-0.07109 -0.18067,-0.06606 -0.18608,-0.06086 -0.19102,-0.05551 -0.1955,-0.05004 -0.19953,-0.04443 -0.20306,-0.03873 -0.20611,-0.03293 -0.20866,-0.02705 -0.2107,-0.02111 -0.21225,-0.01512 -0.21328,-0.0091 -0.21379,-0.003 -0.21379,0.003 -0.21327,0.0091 -0.21225,0.01511 -0.2107,0.02111 -0.20866,0.02705 -0.20611,0.03293 -0.20306,0.03873 -0.19953,0.04443 -0.19551,0.05004 -0.19102,0.05552 -0.18607,0.06086 -0.18067,0.06605 -0.17484,0.0711 -0.1686,0.07596 -0.16193,0.08065 -0.15488,0.08514 -0.14745,0.08943 -0.13969,0.09349 -0.13157,0.09734 -0.12315,0.100944 -0.11441,0.10431 -0.10542,0.107425 -0.0961,0.110289 -0.0867,0.112879 -0.0769,0.115211 -0.0671,0.117237 -0.057,0.119003 -0.0469,0.120467 -0.0366,0.121652 -0.0262,0.122544 -0.0157,0.123134 -0.005,0.123432"
       id="path108"
       style="fill:none;stroke:#82b9ff;stroke-width:0.778045" />
    <path
       d="m 157.81257,84.113361 0.005,0.123431 0.0157,0.123133 0.0262,0.122538 0.0366,0.121654 0.0469,0.120472 0.057,0.118997 0.0671,0.117233 0.077,0.115197 0.0867,0.112876 0.0962,0.110287 0.1054,0.107427 0.11441,0.104312 0.12314,0.100946 0.13157,0.09734 0.13968,0.09349 0.14747,0.08942"
       id="path109"
       style="fill:none;stroke:#82b9ff;stroke-width:0.778045" />
    <path
       d="m 190.61295,62.101214 0.21234,0.117026 0.22167,0.111088 0.23052,0.104899 0.23881,0.09851 0.2466,0.0919 0.25383,0.08508 0.26049,0.07807 0.26658,0.0709 0.27208,0.06358 0.27695,0.0561 0.28124,0.04849 0.28488,0.04078 0.2879,0.03299 0.29026,0.02511 0.292,0.01718 0.29307,0.0092 0.2935,0.0012 0.29327,-0.0068 0.2924,-0.01473 0.29086,-0.02268 0.2887,-0.03056 0.28588,-0.03839 0.28243,-0.04612 0.27833,-0.05377 0.27366,-0.06127 0.26833,-0.06866 0.26244,-0.07589 0.25594,-0.08294 0.24889,-0.08981 0.24128,-0.09649 0.23318,-0.102924 0.22441,-0.109214 0.21527,-0.115183 0.20565,-0.120909 0.19551,-0.126388 0.18502,-0.13155 0.17402,-0.136468 0.1628,-0.14099 0.15108,-0.145277 0.13899,-0.149253 0.1267,-0.152849 0.11405,-0.156143 0.10091,-0.159222 0.0457,-0.08053 0.043,-0.08076 0.0384,-0.08207 0.0351,-0.08256 0.0317,-0.08299 0.0289,-0.08309 0.0255,-0.08345 0.0221,-0.08377 0.0187,-0.08406 0.0152,-0.08429 0.0118,-0.0845 0.008,-0.08459 0.005,-0.08472 0.001,-0.08473 -0.002,-0.0847 -0.005,-0.08464 -0.009,-0.08455 -0.0123,-0.08443 -0.0159,-0.08428 -0.0192,-0.084 -0.0226,-0.08371 -0.0261,-0.08338 -0.0295,-0.08303 -0.0328,-0.08257 -0.0362,-0.08208 -0.0395,-0.08157 -0.0429,-0.08103 -0.0461,-0.0804 -0.10214,-0.158857 -0.115,-0.155913 -0.12761,-0.152605 -0.13993,-0.14896 -0.15193,-0.144981 -0.16359,-0.140683 -0.1749,-0.136091"
       id="path110"
       style="fill:none;stroke:#82b9ff;stroke-width:0.778045" />
    <path
       d="m 199.92387,57.351199 -0.11053,-0.07963 -0.11447,-0.07777 -0.11829,-0.07584 -0.12196,-0.07383 -0.1256,-0.07188 -0.12897,-0.06979 -0.13238,-0.06762 -0.13564,-0.06538 -0.13892,-0.06314 -0.14186,-0.06084 -0.14482,-0.05851 -0.14765,-0.05611 -0.15034,-0.05367 -0.15293,-0.05119 -0.15539,-0.04865 -0.15772,-0.0461 -0.3219,-0.08433 -0.32969,-0.07366 -0.33639,-0.06272 -0.34202,-0.0516 -0.34654,-0.0403 -0.34994,-0.02888 -0.35223,-0.01737 -0.35336,-0.0058 -0.35335,0.0058 -0.35223,0.01736 -0.34994,0.02889 -0.34655,0.0403 -0.34201,0.05161 -0.33639,0.06273 -0.32969,0.07365 -0.3219,0.08434 -0.15777,0.04607 -0.15546,0.04862 -0.15298,0.05116 -0.15031,0.05369 -0.14759,0.05614 -0.14483,0.05851 -0.14187,0.06088 -0.13888,0.06315 -0.13568,0.06541 -0.1324,0.06762 -0.12902,0.06976 -0.12554,0.07184 -0.12196,0.07387 -0.11827,0.07586 -0.1145,0.07775 -0.11063,0.07961"
       id="path111"
       style="fill:none;stroke:#82b9ff;stroke-width:0.778045" />
    <path
       d="m 190.1046,57.351199 -0.16796,0.130428 -0.15759,0.134675 -0.14688,0.138654 -0.13587,0.142343 -0.12457,0.145749 -0.11304,0.148852 -0.10122,0.151672 -0.0893,0.154136 -0.0771,0.156308 -0.0648,0.15816 -0.0524,0.159695 -0.0215,0.08032 -0.0183,0.08057 -0.0152,0.0808 -0.012,0.08098 -0.009,0.0811 -0.006,0.08119 -0.002,0.08125 7.3e-4,0.08128 0.004,0.08124 0.007,0.08116 0.0103,0.08105 0.0134,0.08089 0.0166,0.0807 0.0198,0.08046 0.049,0.160043 0.0614,0.15861 0.0738,0.156841 0.086,0.154759 0.0981,0.152358 0.10986,0.149644 0.12147,0.146618 0.13283,0.143298 0.14392,0.13969 0.1547,0.135785 0.16518,0.13161 0.17534,0.127159 0.18508,0.122487 0.19449,0.117503"
       id="path112"
       style="fill:none;stroke:#82b9ff;stroke-width:0.778045" />
    <path
       d="M 5.2086985,75.124278 122.39299,7.4678945"
       id="path113"
       style="fill:none;stroke:#82b9ff;stroke-width:0.778045" />
    <path
       d="M 122.39299,7.4678945 213.49965,60.068346"
       id="path114"
       style="fill:none;stroke:#82b9ff;stroke-width:0.778045" />
    <path
       d="m 88.905162,82.20755 0.149496,0.07104 0.154799,0.06717 0.159817,0.06313 0.164513,0.05897 0.168888,0.05469 0.172932,0.0503 0.176636,0.04581 0.179985,0.04124 0.182983,0.03658 0.185612,0.03186 0.187881,0.02706 0.189783,0.02221 0.191302,0.01732 0.192449,0.01239 0.193213,0.0074 0.19359,0.0025 0.193595,-0.0025 0.193212,-0.0075 0.19245,-0.0124 0.191302,-0.01732 0.189775,-0.02221 0.187884,-0.02706 0.185619,-0.03185 0.182976,-0.03658 0.179985,-0.04123 0.176628,-0.04581 0.17293,-0.0503 0.168885,-0.05468 0.164513,-0.05897 0.15982,-0.06314 0.154799,-0.06716 0.14947,-0.07107"
       id="path119"
       style="fill:none;stroke:#82b9ff;stroke-width:0.778045" />
    <path
       d="m 105.77813,92.530706 0.37487,0.212658 0.38128,0.208815 0.38756,0.204943 0.39373,0.200979 0.39978,0.196959 0.40569,0.192886 0.4115,0.188741 0.41718,0.184542 0.4227,0.1803 0.42813,0.175988 0.43341,0.171619 0.43856,0.167205 0.44357,0.162734 0.44845,0.158218 0.45318,0.153656 0.45778,0.149037 0.46224,0.144385 0.46656,0.139674 0.47073,0.134931 0.47476,0.13014 0.47865,0.125305 0.48238,0.120435 0.48596,0.115534 0.4894,0.110598 0.49267,0.105629 0.49582,0.100616 0.4988,0.09558 0.50162,0.09051 0.5043,0.08542 0.50682,0.08029 0.50918,0.07515 0.51138,0.06998 0.51343,0.06479 0.51532,0.05958 0.51706,0.05435 0.51862,0.0491 0.52004,0.04384 0.52129,0.03857 0.52238,0.03328 0.52331,0.02799 0.52408,0.02268 0.52469,0.01737 0.52514,0.01205 0.52542,0.0067 0.52554,0.0014 0.52551,-0.0039 0.52531,-0.0092 0.52495,-0.01456 0.52442,-0.01987 0.52374,-0.02518 0.52289,-0.03048 0.52189,-0.03577 0.52072,-0.04106 0.51939,-0.04632 0.5179,-0.05158 0.51626,-0.05681 0.51445,-0.06204 0.51249,-0.06724 0.51036,-0.07242 0.50809,-0.07757 0.50565,-0.08271 0.50306,-0.08782 0.50031,-0.0929 0.49741,-0.09796 0.49436,-0.102978 0.49116,-0.107969 0.48779,-0.112928 0.48429,-0.117852 0.48064,-0.122738 0.47683,-0.127588 0.47288,-0.132399 0.46879,-0.137168 0.46454,-0.141896 0.46016,-0.146578 0.45564,-0.151218 0.45097,-0.15581 0.44617,-0.160353 0.44122,-0.164848 0.43615,-0.169291 0.43094,-0.173685 0.42559,-0.178021 0.42012,-0.182306 0.41452,-0.186532 0.40878,-0.190703 0.40292,-0.194814 0.39694,-0.198866 0.39084,-0.202854 0.38461,-0.206784 0.37827,-0.210647 0.37181,-0.214446 0.36524,-0.218179 0.35855,-0.221845 0.35176,-0.225443 0.34485,-0.228971 0.33784,-0.232429 0.33072,-0.235815 0.32351,-0.239129 0.31619,-0.242365 0.30878,-0.245536 0.30127,-0.248625 0.29366,-0.251639 0.28598,-0.254571 0.2782,-0.257431 0.27033,-0.260208 0.26238,-0.262907 0.25435,-0.265524 0.24624,-0.268061 0.23807,-0.270513 0.2298,-0.272885 0.22147,-0.275171 0.21307,-0.277372 0.20463,-0.279482 0.1961,-0.281513 0.18751,-0.283456 0.17891,-0.28529 0.17022,-0.287052 0.16148,-0.288724 0.15256,-0.290386 0.14378,-0.291851 0.13489,-0.293262 0.12595,-0.294586 0.11697,-0.295818 0.10797,-0.296958 0.0989,-0.298 0.0899,-0.29896 0.0808,-0.299823 0.0716,-0.300598 0.0625,-0.301271"
       id="path120"
       style="fill:none;stroke:#82b9ff;stroke-width:0.778045" />
    <path
       d="m 97.187023,82.20755 0.03647,0.18117 0.03978,0.180944 0.04307,0.180688 0.04637,0.180419 0.04967,0.180129 0.05296,0.179817 0.05624,0.179484 0.05951,0.179131 0.06279,0.178755 0.06604,0.178372 0.0693,0.177954 0.07254,0.17752 0.07578,0.177061 0.07902,0.176591 0.08223,0.176113 0.08545,0.175596 0.180497,0.34958 0.193228,0.347307 0.205873,0.344875 0.218426,0.342292 0.230882,0.339555 0.243233,0.336669 0.25548,0.333631 0.267609,0.330449 0.279619,0.327109 0.29151,0.323638 0.30327,0.320021 0.31489,0.316257 0.32637,0.312342 0.33771,0.308304 0.3489,0.304124 0.35993,0.299804 0.37081,0.295355 0.38152,0.290773 0.39204,0.28606 0.40243,0.281225 0.41258,0.276268 0.42261,0.271173 0.4324,0.265996 0.44204,0.260608"
       id="path121"
       style="fill:none;stroke:#82b9ff;stroke-width:0.778045" />
    <path
       d="m 124.11546,102.53623 0.1495,0.071 0.1548,0.0672 0.15982,0.0631 0.16451,0.059 0.16889,0.0547 0.17293,0.0503 0.17664,0.0458 0.17998,0.0412 0.18298,0.0366 0.18562,0.0319 0.18788,0.0271 0.18978,0.0222 0.1913,0.0173 0.19245,0.0124 0.19321,0.007 0.1936,0.002 0.19359,-0.002 0.19321,-0.007 0.19245,-0.0124 0.1913,-0.0173 0.18978,-0.0222 0.18788,-0.0271 0.18562,-0.0319 0.18298,-0.0366 0.17998,-0.0412 0.17663,-0.0458 0.17293,-0.0503 0.16889,-0.0547 0.16451,-0.059 0.15982,-0.0631 0.1548,-0.0672 0.14947,-0.0711"
       id="path122"
       style="fill:none;stroke:#82b9ff;stroke-width:0.778045" />
    <path
       d="m 124.11546,61.878871 0.14948,0.07107 0.1548,0.06717 0.15982,0.06313 0.16451,0.05897 0.1689,0.05469 0.17293,0.0503 0.17663,0.04582 0.17999,0.04124 0.18298,0.03658 0.18561,0.03185 0.18789,0.02706 0.18978,0.02221 0.1913,0.01732 0.19244,0.0124 0.19321,0.0074 0.1936,0.0025 0.19359,-0.0025 0.19321,-0.0074 0.19245,-0.0124 0.1913,-0.01732 0.18977,-0.02222 0.18789,-0.02706 0.18561,-0.03185 0.18298,-0.03658 0.17999,-0.04124 0.17663,-0.04582 0.17293,-0.0503 0.16889,-0.05469 0.16451,-0.05897 0.15982,-0.06313 0.1548,-0.06717 0.14947,-0.07107"
       id="path123"
       style="fill:none;stroke:#82b9ff;stroke-width:0.778045" />
    <path
       d="m 159.32577,82.207548 0.14948,0.07107 0.1548,0.06717 0.15981,0.06313 0.16452,0.05897 0.16889,0.05469 0.17293,0.0503 0.17664,0.04582 0.17998,0.04124 0.18298,0.03658 0.18562,0.03185 0.18788,0.02706 0.18978,0.02221 0.1913,0.01732 0.19245,0.0124 0.19321,0.0074 0.19359,0.0025 0.19359,-0.0025 0.19321,-0.0074 0.19245,-0.0124 0.1913,-0.01732 0.18978,-0.02221 0.18788,-0.02706 0.18562,-0.03185 0.18298,-0.03658 0.17999,-0.04124 0.17663,-0.04582 0.17293,-0.0503 0.16889,-0.05469 0.16451,-0.05897 0.15981,-0.06313 0.1548,-0.06717 0.14947,-0.07107"
       id="path124"
       style="fill:none;stroke:#82b9ff;stroke-width:0.778045" />
    <path
       d="M 122.39299,7.4678945 V 11.279521"
       id="path127"
       style="fill:none;stroke:#82b9ff;stroke-width:0.778045" />
    <path
       d="m 213.49965,60.068346 -1e-5,3.811623"
       id="path128"
       style="fill:none;stroke:#82b9ff;stroke-width:0.778045" />
    <path
       d="m 29.525814,88.699508 0.119625,0.06655 0.123798,0.06393 0.127732,0.06135 0.131595,0.05855 0.13523,0.05571 0.138689,0.0528 0.141956,0.04981 0.145046,0.04676 0.147925,0.04365 0.150617,0.04048 0.153091,0.03725 0.155358,0.03398 0.157426,0.03064 0.159259,0.02728 0.1609,0.02388 0.162312,0.02044 0.163504,0.01697 0.164472,0.01349 0.165219,0.01 0.165745,0.0065 0.166054,0.0029 0.166133,-5.9e-4 0.165975,-0.0041 0.165601,-0.0076 0.164997,-0.01116 0.164175,-0.01466 0.163129,-0.01814 0.161872,-0.02159 0.160376,-0.02501 0.15867,-0.0284 0.156758,-0.03175 0.154629,-0.03507 0.152287,-0.03832 0.149739,-0.04153 0.14698,-0.04469 0.144043,-0.04779 0.140899,-0.05081 0.137563,-0.05378 0.134034,-0.05666 0.130341,-0.05947 0.126454,-0.0622 0.122409,-0.06484 0.118191,-0.0674 0.113807,-0.06986 0.109287,-0.07224 0.104598,-0.07452 0.09978,-0.07669 0.09483,-0.07876 0.08975,-0.08072 0.08452,-0.08257 0.0792,-0.08431 0.07378,-0.08593 0.06827,-0.08744 0.06261,-0.08884 0.05689,-0.09013 0.05114,-0.09126 0.04535,-0.09224 0.03941,-0.09316 0.0334,-0.09395 0.02739,-0.0946 0.02135,-0.09512 0.01527,-0.09551 0.0092,-0.09578 0.0031,-0.09589"
       id="path129"
       style="fill:none;stroke:#82b9ff;stroke-width:0.778045" />
    <path
       d="m 37.22941,86.857221 -0.0017,-0.07106 -0.005,-0.07101 -0.0084,-0.07089 -0.01173,-0.07074 -0.01507,-0.07053 -0.01841,-0.07026 -0.02171,-0.06996 -0.02501,-0.06959 -0.02827,-0.06917 -0.03154,-0.0687 -0.07276,-0.135767 -0.08547,-0.133275 -0.09793,-0.13039"
       id="path130"
       style="fill:none;stroke:#82b9ff;stroke-width:0.778045" />
    <path
       d="m 28.627084,85.755894 -0.09793,0.130383 -0.08541,0.13331 -0.0728,0.135745 -0.03157,0.06869 -0.02826,0.06918 -0.02506,0.06955 -0.02172,0.06995 -0.0184,0.07027 -0.01507,0.07054 -0.01173,0.07074 -0.0084,0.07089 -0.005,0.07101 -0.0017,0.07107"
       id="path131"
       style="fill:none;stroke:#82b9ff;stroke-width:0.778045" />
    <path
       d="m 28.204085,86.857221 0.0054,0.127836 0.0163,0.127533 0.02711,0.126914 0.03787,0.125991 0.04853,0.124775 0.05908,0.123248 0.06948,0.121418 0.07971,0.119314 0.08976,0.116905 0.09959,0.114225 0.109168,0.111273 0.118499,0.108035 0.127535,0.104556 0.136269,0.100812 0.144677,0.09682 0.152704,0.09266"
       id="path132"
       style="fill:none;stroke:#82b9ff;stroke-width:0.778045" />
    <path
       d="m 124.70366,21.043124 0.11963,0.06655 0.1238,0.06393 0.12774,0.06136 0.1316,0.05855 0.13523,0.0557 0.13868,0.0528 0.14196,0.04981 0.14505,0.04676 0.14792,0.04365 0.15062,0.04048 0.15309,0.03725 0.15536,0.03398 0.15742,0.03064 0.15926,0.02728 0.1609,0.02388 0.16232,0.02044 0.1635,0.01697 0.16447,0.01349 0.16522,0.01 0.16575,0.0065 0.16605,0.0029 0.16613,-5.9e-4 0.16598,-0.0041 0.1656,-0.0076 0.16499,-0.01117 0.16418,-0.01466 0.16313,-0.01814 0.16186,-0.02158 0.16038,-0.02501 0.15867,-0.0284 0.15676,-0.03175 0.15463,-0.03506 0.15228,-0.03832 0.14974,-0.04154 0.14698,-0.04469 0.14405,-0.04779 0.14089,-0.05081 0.13757,-0.05378 0.13403,-0.05666 0.13034,-0.05947 0.12646,-0.0622 0.1224,-0.06484 0.1182,-0.0674 0.11381,-0.06988 0.10929,-0.07224 0.1046,-0.07452 0.0998,-0.07669 0.0948,-0.07876 0.0897,-0.08072 0.0845,-0.08257 0.0792,-0.08431 0.0738,-0.08593 0.0683,-0.08744 0.0626,-0.08885 0.0569,-0.09013 0.0511,-0.09125 0.0453,-0.09224 0.0394,-0.09316 0.0334,-0.09395 0.0274,-0.0946 0.0214,-0.09512 0.0153,-0.09551 0.009,-0.09576 0.003,-0.09589"
       id="path133"
       style="fill:none;stroke:#82b9ff;stroke-width:0.778045" />
    <path
       d="m 132.40726,19.200838 -0.002,-0.07106 -0.005,-0.07101 -0.008,-0.0709 -0.0117,-0.07074 -0.0151,-0.07053 -0.0184,-0.07026 -0.0217,-0.06995 -0.025,-0.06959 -0.0283,-0.06915 -0.0315,-0.0687 -0.0728,-0.135767 -0.0855,-0.133275 -0.0979,-0.13039"
       id="path134"
       style="fill:none;stroke:#82b9ff;stroke-width:0.778045" />
    <path
       d="m 123.80493,18.099511 -0.0979,0.130384 -0.0854,0.133309 -0.0728,0.135745 -0.0316,0.06869 -0.0283,0.06918 -0.0251,0.06955 -0.0217,0.06995 -0.0184,0.07027 -0.0151,0.07053 -0.0117,0.07074 -0.008,0.07089 -0.005,0.07101 -0.002,0.07107"
       id="path135"
       style="fill:none;stroke:#82b9ff;stroke-width:0.778045" />
    <path
       d="m 123.38193,19.200839 0.005,0.127836 0.0163,0.127533 0.0271,0.126914 0.0379,0.125991 0.0485,0.124775 0.0591,0.123248 0.0695,0.121418 0.0797,0.119314 0.0898,0.116905 0.0996,0.114225 0.10917,0.111259 0.1185,0.108036 0.12754,0.104555 0.13627,0.100812 0.14467,0.09683 0.15271,0.09266"
       id="path136"
       style="fill:none;stroke:#82b9ff;stroke-width:0.778045" />
    <path
       d="m 191.8233,59.794662 0.11968,0.06658 0.12374,0.0639 0.12773,0.06135 0.13153,0.05851 0.13529,0.05574 0.13875,0.05284 0.14194,0.0498 0.14512,0.0468 0.14785,0.04361 0.15058,0.04045 0.15313,0.03727 0.15539,0.03399 0.15748,0.03067 0.15926,0.02728 0.16087,0.02386 0.16231,0.02044 0.16357,0.01701 0.16452,0.01351 0.16527,0.01002 0.16572,0.0064 0.1661,0.003 0.16618,-5.67e-4 0.16591,-0.0042 0.16558,-0.0076 0.16495,-0.0112 0.16422,-0.01463 0.16319,-0.01811 0.16193,-0.02154 0.16035,-0.02502 0.1587,-0.02839 0.1567,-0.03178 0.15464,-0.03506 0.15223,-0.03835 0.14976,-0.04153 0.14692,-0.04472 0.14403,-0.0478 0.14092,-0.0508 0.13759,-0.05376 0.13404,-0.05665 0.1303,-0.0595 0.12647,-0.0622 0.12242,-0.06484 0.11817,-0.06742 0.11383,-0.06987 0.10927,-0.07225 0.10464,-0.07449 0.0998,-0.07668 0.0949,-0.07873 0.0897,-0.08073 0.0845,-0.08257 0.0792,-0.0843 0.0738,-0.08589 0.0684,-0.08736 0.0622,-0.08908 0.0573,-0.0899 0.0512,-0.09126 0.0459,-0.09193 0.0394,-0.09316 0.0334,-0.09395 0.0273,-0.09464 0.0213,-0.09514 0.0153,-0.09551 0.009,-0.09578 0.003,-0.09588"
       id="path137"
       style="fill:none;stroke:#82b9ff;stroke-width:0.778045" />
    <path
       d="m 199.5269,57.952381 -0.002,-0.07109 -0.005,-0.07099 -0.008,-0.07093 -0.0118,-0.07077 -0.015,-0.07049 -0.0184,-0.07025 -0.0218,-0.06998 -0.025,-0.0696 -0.0283,-0.06918 -0.0315,-0.06868 -0.0727,-0.135752 -0.0855,-0.133282 -0.0979,-0.130391"
       id="path138"
       style="fill:none;stroke:#82b9ff;stroke-width:0.778045" />
    <path
       d="m 190.92457,56.851052 -0.0979,0.130384 -0.0854,0.133309 -0.0728,0.135745 -0.0316,0.06869 -0.0283,0.06918 -0.0251,0.06955 -0.0217,0.06996 -0.0184,0.07027 -0.0151,0.07053 -0.0117,0.07074 -0.008,0.07089 -0.005,0.071 -0.002,0.07106"
       id="path139"
       style="fill:none;stroke:#82b9ff;stroke-width:0.778045" />
    <path
       d="m 190.50157,57.952379 0.005,0.127836 0.0162,0.127495 0.0272,0.126937 0.0379,0.126021 0.0485,0.124776 0.0591,0.123264 0.0695,0.121433 0.0797,0.119314 0.0897,0.116889 0.0995,0.114202 0.10916,0.111252 0.1185,0.108032 0.12753,0.104553 0.13628,0.100818 0.14468,0.09683 0.15269,0.09265"
       id="path140"
       style="fill:none;stroke:#82b9ff;stroke-width:0.778045" />
    <path
       d="M 119.75221,-55.678061 V -39.16101"
       id="path141"
       style="fill:none;stroke:#82b9ff;stroke-width:0.778045" />
    <path
       d="m 121.56774,-39.242547 -0.1032,-0.03953 -0.10884,-0.03413 -0.11365,-0.02844 -0.11755,-0.02253 -0.12054,-0.01644 -0.12259,-0.01022 -0.12367,-0.0039 -0.1238,0.0024 -0.12294,0.0087 -0.12114,0.01493 -0.11836,0.02105 -0.11469,0.02701 -0.1101,0.03276 -0.10466,0.03824 -0.0984,0.04343 -0.0914,0.04828"
       id="path142"
       style="fill:none;stroke:#82b9ff;stroke-width:0.778045" />
    <path
       d="M 102.14706,-28.996671 119.75221,-39.16101"
       id="path143"
       style="fill:none;stroke:#82b9ff;stroke-width:0.778045" />
    <path
       d="m 120.7425,-37.445779 0.82524,0.476453"
       id="path144"
       style="fill:none;stroke:#82b9ff;stroke-width:0.778045" />
    <path
       d="m 103.13735,-27.281439 17.60515,-10.16434"
       id="path145"
       style="fill:none;stroke:#82b9ff;stroke-width:0.778045" />
    <path
       d="m 119.75221,-39.16101 0.005,0.114835 0.0143,0.119241 0.0236,0.122485 0.0327,0.124553 0.0416,0.125438 0.05,0.125099 0.0579,0.123553 0.0653,0.120824 0.072,0.116934 0.0781,0.111908 0.0833,0.105819 0.0879,0.0987 0.0915,0.09064 0.0943,0.08168 0.0961,0.07201 0.097,0.0616"
       id="path146"
       style="fill:none;stroke:#82b9ff;stroke-width:0.778045" />
    <path
       d="m 121.56774,-38.433633 -0.0735,0.15468 -0.0849,0.149985 -0.095,0.143014 -0.0509,0.06818 -0.0528,0.06565 -0.0546,0.06288 -0.0561,0.05983 -0.0575,0.05659 -0.0586,0.05311 -0.0596,0.04944 -0.0602,0.04558 -0.0607,0.04153 -0.0609,0.03734"
       id="path147"
       style="fill:none;stroke:#82b9ff;stroke-width:0.778045" />
    <path
       d="M 7.5193734,25.636653 65.836436,-8.0327207"
       id="path148"
       style="fill:none;stroke:#82b9ff;stroke-width:0.778045" />
    <path
       d="m 7.5193726,9.1196021 8e-7,16.5170509"
       id="path149"
       style="fill:none;stroke:#82b9ff;stroke-width:0.778045" />
    <path
       d="M 8.5096627,27.351885 48.231287,50.285174"
       id="path150"
       style="fill:none;stroke:#82b9ff;stroke-width:0.778045" />
    <path
       d="M 8.5096627,27.351885 66.826727,-6.3174884"
       id="path152"
       style="fill:none;stroke:#82b9ff;stroke-width:0.778045" />
    <path
       d="m 7.5193734,25.636653 0.00476,0.114836 0.01426,0.11924 0.023616,0.122486 0.032736,0.124553 0.041551,0.125437 0.049958,0.125099 0.057894,0.123553 0.065265,0.120838 0.072011,0.116934 0.078057,0.111908 0.083352,0.105819 0.087857,0.0987 0.091506,0.09064 0.09426,0.0817 0.096096,0.07201 0.097042,0.0616"
       id="path153"
       style="fill:none;stroke:#82b9ff;stroke-width:0.778045" />
    <path
       d="m 7.1091819,26.208397 0.00168,-0.03967 0.00506,-0.03957 0.00837,-0.0394 0.011786,-0.03909 0.015007,-0.03875 0.018317,-0.03826 0.046354,-0.07469 0.058821,-0.07169 0.07065,-0.06806 0.081879,-0.06373 0.092291,-0.0588"
       id="path154"
       style="fill:none;stroke:#82b9ff;stroke-width:0.778045" />
    <path
       d="m 7.8094227,27.421249 0.03522,0.01836 0.03676,0.01547 0.03831,0.01242 0.039779,0.0093 0.041076,0.0063 0.04229,0.0032 0.087846,-0.0027 0.091504,-0.01502 0.094276,-0.02716 0.096131,-0.03903 0.097059,-0.05053"
       id="path155"
       style="fill:none;stroke:#82b9ff;stroke-width:0.778045" />
    <path
       d="m 7.1091811,9.6913461 8e-7,16.5170509"
       id="path156"
       style="fill:none;stroke:#82b9ff;stroke-width:0.778045" />
    <path
       d="M 7.8094227,27.421249 47.821095,50.521998"
       id="path157"
       style="fill:none;stroke:#82b9ff;stroke-width:0.778045" />
    <path
       d="m 7.8094227,27.421249 -0.1030615,-0.06561 -0.096923,-0.07438 -0.090076,-0.08253 -0.08254,-0.09008 -0.074376,-0.09693 -0.065644,-0.103034 -0.056413,-0.108378 -0.046752,-0.11288 -0.036746,-0.116519 -0.026436,-0.119281 -0.015951,-0.121133 -0.00533,-0.122065"
       id="path159"
       style="fill:none;stroke:#82b9ff;stroke-width:0.778045" />
  </g>
</svg>
