<?xml version="1.0" encoding="UTF-8" standalone="no"?>
<svg
   width="730.0"
   height="416.0"
   version="1.1"
   id="svg61"
   sodipodi:docname="plywood-connectors.svg"
   inkscape:version="1.4.3 (0d15f75042, 2025-12-25)"
   xmlns:inkscape="http://www.inkscape.org/namespaces/inkscape"
   xmlns:sodipodi="http://sodipodi.sourceforge.net/DTD/sodipodi-0.dtd"
   xmlns="http://www.w3.org/2000/svg"
   xmlns:svg="http://www.w3.org/2000/svg">
  <defs
     id="defs61" />
  <sodipodi:namedview
     id="namedview61"
     pagecolor="#ffffff"
     bordercolor="#000000"
     borderopacity="0.25"
     inkscape:showpageshadow="2"
     inkscape:pageopacity="0.0"
     inkscape:pagecheckerboard="0"
     inkscape:deskcolor="#d1d1d1"
     inkscape:zoom="1.8465753"
     inkscape:cx="340.63056"
     inkscape:cy="155.69362"
     inkscape:window-width="1920"
     inkscape:window-height="1080"
     inkscape:window-x="0"
     inkscape:window-y="0"
     inkscape:window-maximized="1"
     inkscape:current-layer="g61" />
  <g
     transform="scale(7.800000000000001, -7.800000000000001)   translate(1.2820512820512824,-40.0)"
     stroke-width="0.1"
     fill="none"
     id="g61">
    <!-- hidden lines -->
    <g
       stroke="#0000ff"
       fill="none"
       stroke-dasharray="0.1,0.1"
       id="g36"
       style="stroke-width:0.25641;stroke-dasharray:0.25641, 0.25641;stroke-dashoffset:0"
       transform="translate(25.153734,-6.8496066)">
      <path
         d="M 6.3535534,14.131728 6.4510604,14.034218 6.7386936,13.746585 7.2020293,13.28325 7.8178339,12.667445 8.5552284,11.93005 9.3772368,11.108042 10.242641,10.242639 11.108044,9.3772353 11.930052,8.5552269 12.667447,7.8178324 13.283252,7.2020278 13.746587,6.7386921 14.03422,6.4510589 14.13173,6.3535519"
         id="path29"
         style="stroke-width:0.25641;stroke-dasharray:0.25641, 0.25641;stroke-dashoffset:0" />
      <path
         d="M 2.1109127,9.8890873 6.3535534,14.131728"
         id="path31"
         style="stroke-width:0.25641;stroke-dasharray:0.25641, 0.25641;stroke-dashoffset:0" />
      <path
         d="M 7.9445436,12.540738 18.451903,23.048097"
         id="path34"
         style="stroke-width:0.25641;stroke-dasharray:0.25641, 0.25641;stroke-dashoffset:0" />
      <path
         d="M 9.8890873,2.1109127 14.131728,6.3535534"
         id="path35"
         style="stroke-width:0.25641;stroke-dasharray:0.25641, 0.25641;stroke-dashoffset:0" />
      <path
         d="M 12.540738,7.9445436 23.048097,18.451903"
         id="path36"
         style="stroke-width:0.25641;stroke-dasharray:0.25641, 0.25641;stroke-dashoffset:0" />
    </g>
    <!-- solid lines -->
    <g
       stroke="#82b9ff"
       fill="none"
       id="g60"
       style="stroke-width:0.641026;stroke-dasharray:none"
       transform="translate(25.153734,-6.8496066)">
      <path
         d="M 2,40 H 4"
         id="path37"
         style="stroke-width:0.641026;stroke-dasharray:none" />
      <path
         d="M 2,40 1.874419,39.9961 1.7493335,39.98428 1.6252374,39.96463 1.5026202,39.93722 1.381966,39.90217 1.2637509,39.85961 1.1484414,39.80971 1.0364927,39.75267 0.92834641,39.68871 0.8244295,39.61809 0.725152,39.54108 0.6309058,39.45799 0.5420628,39.36915 0.4589736,39.2749 0.3819661,39.17562 0.31134415,39.071654 0.24738664,38.963507 0.1903459,38.851559 0.14044703,38.736249 0.09788697,38.618034 0.06283368,38.49738 0.0354255,38.374763 0.0157706,38.250666 0.00394654,38.125581 0,38"
         id="path38"
         style="stroke-width:0.641026;stroke-dasharray:none" />
      <path
         d="m 4,40 0.125581,-0.0039 0.1250855,-0.01182 0.1240961,-0.01965 0.1226172,-0.02741 0.1206542,-0.03505 0.1182151,-0.04256 0.1153095,-0.0499 0.1119487,-0.05704 0.1081463,-0.06396 0.1039169,-0.07062 0.099278,-0.07701 0.094246,-0.08309 0.088843,-0.08884 0.083089,-0.09425 0.077007,-0.09928 0.070622,-0.103917 0.063958,-0.108147 0.057041,-0.111948 0.049899,-0.11531 0.04256,-0.118215 0.035053,-0.120654 0.027408,-0.122617 0.019655,-0.124097 L 5.9960535,38.12563 6,38"
         id="path39"
         style="stroke-width:0.641026;stroke-dasharray:none" />
      <path
         d="M 0,12.828427 V 38"
         id="path40"
         style="stroke-width:0.641026;stroke-dasharray:none" />
      <path
         d="M 6,38 V 26.236068"
         id="path41"
         style="stroke-width:0.641026;stroke-dasharray:none" />
      <path
         d="m 0,12.828427 0.00364889,-0.120757 0.01093336,-0.120316 0.01817794,-0.119437 0.02535618,-0.118121 0.0324419,-0.116375 0.03940924,-0.114204 0.0462328,-0.111615 0.0528876,-0.108621 0.0593495,-0.10523 0.0655948,-0.101453 0.0716008,-0.09731 0.0773455,-0.09281 0.0828079,-0.08797"
         id="path42"
         style="stroke-width:0.641026;stroke-dasharray:none" />
      <path
         d="M 6,26.236068 5.99639,26.115988 5.985579,25.99634 5.967604,25.877558 5.942529,25.76007 5.910446,25.644298 5.871469,25.530662 5.82574,25.419571 5.773424,25.311426 5.714709,25.206618 5.649807,25.105523 5.578953,25.008503 5.502401,24.915913 5.420429,24.828093 5.333332,24.745353"
         id="path43"
         style="stroke-width:0.641026;stroke-dasharray:none" />
      <path
         d="M 0.58578644,11.414214 11.414214,0.58578644"
         id="path44"
         style="stroke-width:0.641026;stroke-dasharray:none" />
      <path
         d="m 6.745356,23.333333 -0.061415,-0.06287 -0.066698,-0.05723 -0.071466,-0.05116 -0.075681,-0.04469 -0.079313,-0.03787 -0.082331,-0.03076 -0.084714,-0.02341 -0.086442,-0.01588 -0.087503,-0.0082 -0.087887,-5.14e-4 -0.087593,0.0072 -0.086622,0.01487 -0.084982,0.02242 -0.082686,0.02979 -0.079751,0.03694 -0.0762,0.0438 -0.07206,0.05032 -0.067363,0.05645 -0.062147,0.06215 -0.05645,0.06736 -0.050317,0.07206 -0.043796,0.0762 -0.036936,0.07975 -0.029791,0.08269 -0.022416,0.08498 -0.014867,0.08662 -0.0072,0.08759 5.147e-4,0.08789 0.00823,0.0875 0.015881,0.08644 0.023409,0.08471 0.030757,0.08233 0.037867,0.07931 0.044685,0.07568 0.051158,0.07147 0.057235,0.0667 0.06287,0.06142"
         id="path45"
         style="stroke-width:0.641026;stroke-dasharray:none" />
      <path
         d="m 12.828427,0 -0.120757,0.00364889 -0.120316,0.01093336 -0.119437,0.01817794 -0.118121,0.02535618 -0.116375,0.0324419 -0.114204,0.03940924 -0.111615,0.0462328 -0.108621,0.0528876 -0.10523,0.0593495 -0.101453,0.0655948 -0.09731,0.0716008 -0.09281,0.0773455 -0.08797,0.0828079"
         id="path46"
         style="stroke-width:0.641026;stroke-dasharray:none" />
      <path
         d="m 6.745356,23.333333 0.082743,0.0871 0.087823,0.08197 0.092586,0.07655 0.097015,0.07086 0.1010944,0.0649 0.1048088,0.05871 0.1081449,0.05232 0.1110909,0.04573 0.1136361,0.03898 0.1157712,0.03208 0.1174886,0.02507 0.1187822,0.01798 0.1196472,0.01081 L 8.236068,24"
         id="path47"
         style="stroke-width:0.641026;stroke-dasharray:none" />
      <path
         d="M 38,0 H 12.828427"
         id="path48"
         style="stroke-width:0.641026;stroke-dasharray:none" />
      <path
         d="m 8.236068,24 h 8.435505"
         id="path49"
         style="stroke-width:0.641026;stroke-dasharray:none" />
      <path
         d="M 40,2 39.9961,1.874419 39.98428,1.7493335 39.96463,1.6252374 39.93722,1.5026202 39.90217,1.381966 39.85961,1.2637509 39.80971,1.1484414 39.75267,1.0364927 39.68871,0.92834641 39.61809,0.8244295 39.54108,0.725152 39.45799,0.6309058 39.36915,0.5420628 39.2749,0.4589736 39.17562,0.3819661 39.071654,0.31134415 38.963507,0.24738664 38.851559,0.1903459 38.736249,0.14044703 38.618034,0.09788697 38.49738,0.06283368 38.374763,0.0354255 38.250666,0.0157706 38.125581,0.00394654 38,0"
         id="path50"
         style="stroke-width:0.641026;stroke-dasharray:none" />
      <path
         d="m 16.671573,24 0.120757,-0.0036 0.120316,-0.01093 0.119437,-0.01818 0.118121,-0.02536 0.116375,-0.03244 0.114204,-0.03941 0.111615,-0.04623 0.108621,-0.05289 0.10523,-0.05935 0.101453,-0.0656 0.09731,-0.0716 0.09281,-0.07735 0.08797,-0.08281"
         id="path51"
         style="stroke-width:0.641026;stroke-dasharray:none" />
      <path
         d="M 40,4 V 2"
         id="path52"
         style="stroke-width:0.641026;stroke-dasharray:none" />
      <path
         d="m 18.085786,23.414214 5.328428,-5.328428"
         id="path53"
         style="stroke-width:0.641026;stroke-dasharray:none" />
      <path
         d="M 38,6 38.125581,5.99605 38.250666,5.984226 38.374763,5.964571 38.49738,5.937163 38.618034,5.90211 38.736249,5.85955 38.851559,5.809651 38.963507,5.75261 39.071654,5.688652 39.175571,5.61803 l 0.09928,-0.077007 0.09425,-0.083089 0.08884,-0.088843 0.08309,-0.094246 0.07701,-0.099278 0.07062,-0.1039169 0.06396,-0.1081463 0.05704,-0.1119487 0.0499,-0.1153095 0.04256,-0.1182151 0.03505,-0.1206542 0.02741,-0.1226172 0.01965,-0.1240961 0.01182,-0.125082 L 40,4"
         id="path54"
         style="stroke-width:0.641026;stroke-dasharray:none" />
      <path
         d="m 23.414214,18.085786 0.08281,-0.08797 0.07735,-0.09281 0.0716,-0.09731 0.0656,-0.101453 0.05935,-0.10523 0.05289,-0.108621 0.04623,-0.111615 0.03941,-0.114204 0.03244,-0.116375 0.02536,-0.118121 0.01818,-0.119437 0.01093,-0.120316 L 24,16.671573"
         id="path55"
         style="stroke-width:0.641026;stroke-dasharray:none" />
      <path
         d="M 26.236068,6 H 38"
         id="path56"
         style="stroke-width:0.641026;stroke-dasharray:none" />
      <path
         d="M 24,16.671573 V 8.236068"
         id="path57"
         style="stroke-width:0.641026;stroke-dasharray:none" />
      <path
         d="m 24.745356,5.3333333 0.08274,0.087097 0.08782,0.081972 0.09259,0.076552 0.09702,0.070854 0.101095,0.064902 0.104808,0.058715 0.108145,0.052316 0.111091,0.045729 0.113636,0.038977 0.115772,0.032083 0.117488,0.025075 0.118782,0.017975 0.119648,0.010811 L 26.236068,6"
         id="path58"
         style="stroke-width:0.641026;stroke-dasharray:none" />
      <path
         d="M 24,8.236068 23.9964,8.1159876 23.98559,7.9963404 23.96761,7.8775582 23.94254,7.7600696 23.91046,7.6442984 23.87148,7.5306623 23.82575,7.4195714 23.77343,7.3114265 23.71472,7.2066177 23.64982,7.1055233 23.57896,7.0085083 23.50241,6.9159223 23.42044,6.8280993 23.33334,6.7453563"
         id="path59"
         style="stroke-width:0.641026;stroke-dasharray:none" />
      <path
         d="m 24.745356,5.3333333 -0.06142,-0.06287 -0.0667,-0.057235 -0.07147,-0.051158 -0.07568,-0.044685 -0.07931,-0.037867 -0.08233,-0.030757 -0.08471,-0.023409 -0.08644,-0.015881 -0.0875,-0.00823 -0.08789,-5.147e-4 -0.08759,0.0072 -0.08662,0.014867 -0.08498,0.022416 -0.08269,0.029791 -0.07975,0.036936 -0.0762,0.043796 -0.07206,0.050317 -0.06736,0.05645 -0.06215,0.062147 -0.05645,0.067363 -0.05032,0.07206 -0.0438,0.0762 -0.03694,0.079751 -0.02979,0.082686 -0.02242,0.084982 -0.01487,0.086622 -0.0072,0.087593 5.14e-4,0.087887 0.0082,0.087503 0.01588,0.086442 0.02341,0.084714 0.03076,0.082331 0.03787,0.079313 0.04469,0.075681 0.05116,0.071466 0.05723,0.066698 0.06287,0.061415"
         id="path60"
         style="stroke-width:0.641026;stroke-dasharray:none" />
    </g>
    <g
       stroke="#0000ff"
       fill="none"
       stroke-dasharray="0.1, 0.1"
       id="g26"
       style="stroke-width:0.254529;stroke-dasharray:0.254529, 0.254529;stroke-dashoffset:0"
       inkscape:label="g26"
       transform="matrix(1.0073923,0,0,1.0073923,25.363366,-6.6438589)">
      <path
         d="M 32.333333,32.333333 28.797799,28.797799"
         id="path13"
         style="stroke-width:0.254529;stroke-dasharray:0.254529, 0.254529;stroke-dashoffset:0" />
      <path
         d="m 28.797799,28.797799 3.521142,-3.521141"
         id="path15"
         style="stroke-width:0.254529;stroke-dasharray:0.254529, 0.254529;stroke-dashoffset:0" />
      <path
         d="M 35.854475,28.812192 32.318941,25.276658"
         id="path16"
         style="stroke-width:0.254529;stroke-dasharray:0.254529, 0.254529;stroke-dashoffset:0"
         inkscape:label="path16" />
      <path
         d="M 28.812192,35.854475 25.276658,32.318941"
         id="path19"
         style="stroke-width:0.254529;stroke-dasharray:0.254529, 0.254529;stroke-dashoffset:0" />
      <path
         d="m 25.276658,32.318941 3.521141,-3.521142"
         id="path22"
         style="stroke-width:0.254529;stroke-dasharray:0.254529, 0.254529;stroke-dashoffset:0" />
      <path
         d="m 19.951903,24.548097 6.547799,6.547799"
         id="path25"
         style="stroke-width:0.254529;stroke-dasharray:0.254529, 0.254529;stroke-dashoffset:0"
         inkscape:label="path25" />
      <path
         d="m 24.548097,19.951903 6.547799,6.547799"
         id="path26"
         style="stroke-width:0.254529;stroke-dasharray:0.254529, 0.254529;stroke-dashoffset:0" />
    </g>
    <g
       stroke="#82b9ff"
       fill="none"
       id="g32"
       style="stroke-width:0.636322;stroke-dasharray:none"
       transform="matrix(1.0073923,0,0,1.0073923,25.363366,-6.6438589)">
      <path
         d="M 22.414214,42.252453 31.051151,33.615516 42.252453,22.414214"
         id="path27"
         style="stroke-width:0.636322;stroke-dasharray:none"
         sodipodi:nodetypes="ccc" />
      <path
         d="m 42.252453,22.414214 0.08491,-0.09035 0.07915,-0.09544 0.07309,-0.100159 0.06674,-0.104496 0.06014,-0.108431 0.0533,-0.111948 0.04626,-0.115037 0.03905,-0.117682 0.03168,-0.119875 0.02419,-0.121608 0.01661,-0.122873 0.009,-0.123666 0.0013,-0.123984 -0.0064,-0.123825 -0.01407,-0.12319 -0.02167,-0.122082 -0.02919,-0.120504 -0.0366,-0.118464 -0.04387,-0.115968 -0.05098,-0.113026 -0.05788,-0.10965 -0.06457,-0.105853 -0.071,-0.101649 -0.07716,-0.09705 -0.08303,-0.09209 -0.08857,-0.08676 -0.09378,-0.08111 -0.09863,-0.07514 -0.103094,-0.06889 -0.107165,-0.06236 -0.110823,-0.0556 -0.114056,-0.04863 -0.116849,-0.04147 -0.119195,-0.03415 -0.121083,-0.0267 -0.122503,-0.01914 L 40.96217,19.003843 40.83824,19"
         id="path28"
         style="stroke-width:0.636322;stroke-dasharray:none" />
      <path
         d="m 19,40.83824 0.0038,0.12393 0.01152,0.123455 0.01914,0.122503 0.0267,0.121083 0.03415,0.119195 0.04147,0.116849 0.04863,0.114056 0.0556,0.110823 0.06236,0.107165 0.06889,0.103094 0.07514,0.09863 0.08111,0.09378 0.08676,0.08857 0.09209,0.08303 0.09705,0.07716 0.101649,0.071 0.105853,0.06457 0.10965,0.05788 0.113026,0.05098 0.115968,0.04387 0.118464,0.0366 0.120504,0.02919 0.122082,0.02167 0.12319,0.01407 0.123825,0.0064 0.123984,-0.0013 0.123666,-0.009 0.122873,-0.01661 0.121608,-0.02419 0.119875,-0.03168 0.117682,-0.03905 0.115037,-0.04626 0.111948,-0.0533 0.108431,-0.06014 0.104496,-0.06674 0.100159,-0.07309 0.09544,-0.07915 0.09035,-0.08491"
         id="path29-3"
         style="stroke-width:0.636322;stroke-dasharray:none" />
      <path
         d="M 40.83824,19 H 25.5"
         id="path30"
         style="stroke-width:0.636322;stroke-dasharray:none" />
      <path
         d="M 19,25.5 V 40.83824"
         id="path31-6"
         style="stroke-width:0.636322;stroke-dasharray:none" />
      <path
         d="M 19,25.5 25.5,19"
         id="path32"
         style="stroke-width:0.636322;stroke-dasharray:none" />
    </g>
  </g>
</svg>
