<?xml version="1.0" encoding="UTF-8" standalone="no"?>
<svg
   width="730.0"
   height="416.0"
   version="1.1"
   id="svg73"
   sodipodi:docname="rpi-support.svg"
   inkscape:version="1.4.3 (0d15f75042, 2025-12-25)"
   xmlns:inkscape="http://www.inkscape.org/namespaces/inkscape"
   xmlns:sodipodi="http://sodipodi.sourceforge.net/DTD/sodipodi-0.dtd"
   xmlns="http://www.w3.org/2000/svg"
   xmlns:svg="http://www.w3.org/2000/svg">
  <defs
     id="defs73" />
  <sodipodi:namedview
     id="namedview73"
     pagecolor="#ffffff"
     bordercolor="#000000"
     borderopacity="0.25"
     inkscape:showpageshadow="2"
     inkscape:pageopacity="0.0"
     inkscape:pagecheckerboard="0"
     inkscape:deskcolor="#d1d1d1"
     inkscape:zoom="2.0493151"
     inkscape:cx="370.85562"
     inkscape:cy="131.01939"
     inkscape:window-width="2560"
     inkscape:window-height="1440"
     inkscape:window-x="0"
     inkscape:window-y="0"
     inkscape:window-maximized="1"
     inkscape:current-layer="g73" />
  <g
     transform="matrix(2.3624292,4.0918474,4.0918474,-2.3624292,312.20934,395.69165)"
     stroke-width="0.5"
     fill="none"
     id="g73">
    <!-- hidden lines -->
    <g
       stroke="#0000ff"
       fill="none"
       stroke-dasharray="0.5, 0.5"
       id="g32">
      <path
         d="m -19.940411,28.250782 -0.05077,0.03078 -0.04809,0.03219 -0.04529,0.03351 -0.04239,0.03475 -0.03939,0.03591 -0.03629,0.03699 -0.0331,0.03797 -0.02984,0.03886 -0.0265,0.03966 -0.0231,0.04036 -0.01964,0.04097 -0.01613,0.04147 -0.01259,0.04188 -0.009,0.04219 -0.0054,0.04239 -0.0018,0.04249"
         id="path4" />
      <path
         d="m -20.379751,28.863154 0.0018,0.04249 0.0054,0.04239 0.009,0.04219 0.01259,0.04188 0.01613,0.04147 0.01964,0.04097 0.0231,0.04036 0.0265,0.03966 0.02984,0.03886 0.0331,0.03797 0.03629,0.03698 0.03939,0.03591 0.04239,0.03475 0.04529,0.03351 0.04809,0.03219 0.05077,0.03079 0.05332,0.02931 0.05575,0.02776 0.05804,0.02615 0.06019,0.02448 0.0622,0.02274 0.06406,0.02095 0.06576,0.01911 0.06731,0.01722 0.06869,0.0153 0.06991,0.01333 0.07096,0.01134 0.07183,0.0093 0.07254,0.0073 0.07307,0.0052 0.07342,0.0031 0.0736,10e-4 0.0736,-10e-4 0.07343,-0.0031 0.07307,-0.0052 0.07254,-0.0073 0.07184,-0.0093 0.07096,-0.01134 0.06991,-0.01333 0.06869,-0.0153 0.06731,-0.01722 0.06576,-0.01911 0.06406,-0.02095 0.0622,-0.02274 0.06019,-0.02448 0.05804,-0.02615 0.05575,-0.02776 0.05332,-0.02931 0.05077,-0.03079 0.04809,-0.03219 0.04529,-0.03351 0.04239,-0.03475 0.03939,-0.03591 0.03629,-0.03698 0.0331,-0.03797 0.02983,-0.03886 0.0265,-0.03966 0.02309,-0.04036 0.01964,-0.04097 0.01613,-0.04147 0.01259,-0.04188 0.009,-0.04219 0.0054,-0.04239 0.0018,-0.04249"
         id="path5" />
      <path
         d="m -17.379751,28.863154 -0.001,-0.03188 -0.003,-0.03183 -0.0051,-0.03175 -0.0071,-0.03162 -0.02021,-0.06267 -0.02814,-0.06165 -0.03592,-0.06028 -0.0435,-0.0586 -0.05085,-0.05659 -0.05793,-0.05428 -0.06468,-0.05167 -0.07109,-0.04878 -0.07712,-0.04563 -0.08272,-0.04223 -0.08788,-0.0386 -0.09256,-0.03477 -0.09674,-0.03074 -0.100392,-0.02655 -0.103502,-0.02221 -0.106053,-0.01776 -0.108027,-0.0132 -0.109417,-0.0086 -0.110214,-0.0039 -0.110414,7.82e-4 -0.110014,0.0055 -0.10902,0.01013 -0.107433,0.01473 -0.105266,0.01925 -0.102527,0.02367 -0.09923,0.02796 -0.0954,0.0321 -0.09105,0.03607 -0.08621,0.03984 -0.0809,0.04339"
         id="path6" />
      <path
         d="m -54.588644,48.254948 -0.05077,0.03079 -0.04809,0.03219 -0.0453,0.03351 -0.04239,0.03475 -0.03939,0.03591 -0.03629,0.03699 -0.0331,0.03797 -0.02984,0.03886 -0.0265,0.03966 -0.02309,0.04036 -0.01964,0.04097 -0.01613,0.04147 -0.01259,0.04188 -0.009,0.04219 -0.0054,0.04239 -0.0018,0.04249"
         id="path7" />
      <path
         d="m -55.027983,48.86732 0.0018,0.04249 0.0054,0.04239 0.009,0.04219 0.01259,0.04188 0.01613,0.04147 0.01964,0.04097 0.02309,0.04036 0.0265,0.03966 0.02984,0.03886 0.0331,0.03797 0.03629,0.03698 0.03939,0.03591 0.04239,0.03475 0.0453,0.03351 0.04809,0.03219 0.05077,0.03079 0.05332,0.02931 0.05575,0.02776 0.05804,0.02615 0.06019,0.02448 0.0622,0.02274 0.06406,0.02095 0.06576,0.01911 0.06731,0.01723 0.06869,0.0153 0.06991,0.01333 0.07096,0.01134 0.07184,0.0093 0.07254,0.0073 0.07307,0.0052 0.07342,0.0031 0.0736,10e-4 0.0736,-10e-4 0.07342,-0.0031 0.07307,-0.0052 0.07254,-0.0073 0.07184,-0.0093 0.07096,-0.01134 0.06991,-0.01333 0.06869,-0.0153 0.06731,-0.01723 0.06576,-0.01911 0.06406,-0.02095 0.0622,-0.02274 0.06019,-0.02448 0.05804,-0.02615 0.05575,-0.02776 0.05332,-0.02931 0.05077,-0.03079 0.04809,-0.03219 0.0453,-0.03351 0.04239,-0.03475 0.03939,-0.03591 0.03629,-0.03698 0.0331,-0.03797 0.02983,-0.03886 0.0265,-0.03966 0.02309,-0.04036 0.01964,-0.04097 0.01613,-0.04147 0.01259,-0.04188 0.009,-0.04219 0.0054,-0.04239 0.0018,-0.04249"
         id="path8" />
      <path
         d="m -52.027983,48.86732 -10e-4,-0.03188 -0.003,-0.03183 -0.0051,-0.03175 -0.0071,-0.03162 -0.02021,-0.06267 -0.02814,-0.06165 -0.03592,-0.06028 -0.0435,-0.05859 -0.05085,-0.05659 -0.05793,-0.05428 -0.06468,-0.05167 -0.07109,-0.04878 -0.07712,-0.04563 -0.08272,-0.04223 -0.08788,-0.0386 -0.09256,-0.03477 -0.09674,-0.03074 -0.100392,-0.02655 -0.103503,-0.02221 -0.106052,-0.01776 -0.108028,-0.0132 -0.109417,-0.0086 -0.110213,-0.0039 -0.110414,7.82e-4 -0.110014,0.0055 -0.10902,0.01013 -0.107433,0.01473 -0.105266,0.01925 -0.102527,0.02367 -0.09923,0.02796 -0.0954,0.0321 -0.09105,0.03607 -0.08621,0.03984 -0.0809,0.04339"
         id="path9" />
      <path
         d="m -19.940411,24.984795 -0.05077,0.03079 -0.04809,0.03219 -0.04529,0.03351 -0.04239,0.03475 -0.03939,0.03591 -0.03629,0.03698 -0.0331,0.03797 -0.02984,0.03886 -0.0265,0.03966 -0.0231,0.04036 -0.01964,0.04097 -0.01613,0.04147 -0.01259,0.04188 -0.009,0.04219 -0.0054,0.04239 -0.0018,0.04249"
         id="path13" />
      <path
         d="m -20.379751,25.597168 0.0018,0.04249 0.0054,0.04239 0.009,0.04219 0.01259,0.04188 0.01613,0.04147 0.01964,0.04097 0.0231,0.04036 0.0265,0.03966 0.02984,0.03886 0.0331,0.03797 0.03629,0.03699 0.03939,0.03591 0.04239,0.03475 0.04529,0.03351 0.04809,0.03219 0.05077,0.03079 0.05332,0.02931 0.05575,0.02777 0.05804,0.02615 0.06019,0.02448 0.0622,0.02274 0.06406,0.02095 0.06576,0.01911 0.06731,0.01722 0.06869,0.0153 0.06991,0.01333 0.07096,0.01134 0.07183,0.0093 0.07254,0.0073 0.07307,0.0052 0.07342,0.0031 0.0736,0.001 0.0736,-0.001 0.07343,-0.0031 0.07307,-0.0052 0.07254,-0.0073 0.07184,-0.0093 0.07096,-0.01134 0.06991,-0.01333 0.06869,-0.0153 0.06731,-0.01722 0.06576,-0.01911 0.06406,-0.02095 0.0622,-0.02274 0.06019,-0.02448 0.05804,-0.02615 0.05575,-0.02777 0.05332,-0.02931 0.05077,-0.03079 0.04809,-0.03219 0.04529,-0.03351 0.04239,-0.03475 0.03939,-0.03591 0.03629,-0.03699 0.0331,-0.03797 0.02983,-0.03886 0.0265,-0.03966 0.02309,-0.04036 0.01964,-0.04097 0.01613,-0.04147 0.01259,-0.04188 0.009,-0.04219 0.0054,-0.04239 0.0018,-0.04249"
         id="path14" />
      <path
         d="m -17.379751,25.597168 -0.001,-0.03188 -0.003,-0.03183 -0.0051,-0.03175 -0.0071,-0.03162 -0.02021,-0.06267 -0.02814,-0.06165 -0.03592,-0.06028 -0.0435,-0.0586 -0.05085,-0.05659 -0.05793,-0.05428 -0.06468,-0.05167 -0.07109,-0.04878 -0.07712,-0.04563 -0.08272,-0.04223 -0.08788,-0.0386 -0.09256,-0.03477 -0.09674,-0.03074 -0.100392,-0.02655 -0.103502,-0.02221 -0.106053,-0.01776 -0.108027,-0.0132 -0.109417,-0.0086 -0.110214,-0.0039 -0.110414,7.83e-4 -0.110014,0.0055 -0.10902,0.01013 -0.107433,0.01473 -0.105266,0.01925 -0.102527,0.02367 -0.09923,0.02796 -0.0954,0.0321 -0.09105,0.03607 -0.08621,0.03984 -0.0809,0.04339"
         id="path15" />
      <path
         d="m -54.911427,45.266629 -0.02704,0.04001 -0.02357,0.04074 -0.02005,0.04136 -0.01647,0.04189 -0.01285,0.04231 -0.0092,0.04262 -0.0055,0.04283 -0.0018,0.04294"
         id="path16" />
      <path
         d="m -55.027983,45.601334 0.0018,0.04249 0.0054,0.04239 0.009,0.04219 0.01259,0.04188 0.01613,0.04147 0.01964,0.04097 0.02309,0.04036 0.0265,0.03966 0.02984,0.03886 0.0331,0.03797 0.03629,0.03698 0.03939,0.03591 0.04239,0.03475 0.0453,0.03351 0.04809,0.03219 0.05077,0.03079 0.05332,0.02931 0.05575,0.02776 0.05804,0.02615 0.06019,0.02448 0.0622,0.02274 0.06406,0.02095 0.06576,0.01911 0.06731,0.01723 0.06869,0.0153 0.06991,0.01333 0.07096,0.01134 0.07184,0.0093 0.07254,0.0073 0.07307,0.0052 0.07342,0.0031 0.0736,10e-4 0.0736,-10e-4 0.07342,-0.0031 0.07307,-0.0052 0.07254,-0.0073 0.07184,-0.0093 0.07096,-0.01134 0.06991,-0.01333 0.06869,-0.0153 0.06731,-0.01723 0.06576,-0.01911 0.06406,-0.02095 0.0622,-0.02274 0.06019,-0.02448 0.05804,-0.02615 0.05575,-0.02776 0.05332,-0.02931 0.05077,-0.03079 0.04809,-0.03219 0.0453,-0.03351 0.04239,-0.03475 0.03939,-0.03591 0.03629,-0.03698 0.0331,-0.03797 0.02983,-0.03886 0.0265,-0.03966 0.02309,-0.04036 0.01964,-0.04097 0.01613,-0.04147 0.01259,-0.04188 0.009,-0.04219 0.0054,-0.04239 0.0018,-0.04249"
         id="path17" />
      <path
         d="m -52.027983,45.601334 -0.0024,-0.04938 -0.0073,-0.04922 -0.01216,-0.0489 -0.01697,-0.04842 -0.02173,-0.04778 -0.02641,-0.04699 -0.03101,-0.04604 -0.03551,-0.04495"
         id="path18" />
      <path
         d="m -55.888335,44.73171 -0.05197,0.04892 -0.04893,0.04995 -0.04583,0.05092 -0.04267,0.05183 -0.03946,0.05267 -0.0362,0.05345 -0.03289,0.05415 -0.02954,0.05479 -0.02615,0.05536 -0.02273,0.05586 -0.01928,0.05629 -0.01581,0.05665 -0.01232,0.05694 -0.0088,0.05716 -0.0053,0.0573 -0.0018,0.05738"
         id="path19" />
      <path
         d="m -56.327983,45.601334 0.0034,0.07932 0.01011,0.07913 0.01682,0.07875 0.0235,0.07818 0.03011,0.07742 0.03665,0.07647 0.04311,0.07534 0.04946,0.07403 0.05569,0.07254 0.06179,0.07087 0.06774,0.06904 0.07352,0.06703 0.07913,0.06487 0.08455,0.06255 0.08977,0.06008 0.09476,0.05747 0.09953,0.05471 0.104063,0.05183 0.108344,0.04882 0.112361,0.04569 0.116109,0.04245 0.119577,0.03911 0.122756,0.03567 0.125641,0.03215 0.128222,0.02856 0.130495,0.02489 0.132452,0.02116 0.134092,0.01738 0.135407,0.01356 0.136398,0.0097 0.137058,0.0058 0.13739,0.0019 0.137389,-0.0019 0.137059,-0.0058 0.136397,-0.0097 0.135408,-0.01356 0.134091,-0.01738 0.132453,-0.02116 0.130494,-0.02489 0.128222,-0.02856 0.125641,-0.03215 0.122757,-0.03567 0.119576,-0.03911 0.116109,-0.04245 0.112362,-0.04569 0.108343,-0.04882 0.104064,-0.05183 0.09953,-0.05471 0.09476,-0.05747 0.08977,-0.06008 0.08455,-0.06255 0.07913,-0.06487 0.07353,-0.06703 0.06774,-0.06904 0.06179,-0.07087 0.05569,-0.07254 0.04946,-0.07403 0.04311,-0.07534 0.03665,-0.07647 0.03011,-0.07742 0.0235,-0.07818 0.01682,-0.07875 0.01011,-0.07913 0.0034,-0.07932"
         id="path20" />
      <path
         d="m -50.727983,45.601334 -0.002,-0.0614 -0.0061,-0.06131 -0.01009,-0.06114 -0.0141,-0.06087 -0.0181,-0.06052 -0.02206,-0.06008 -0.026,-0.05955 -0.0299,-0.05894 -0.03375,-0.05824 -0.03756,-0.05746 -0.04131,-0.05659 -0.04501,-0.05564 -0.04864,-0.05462 -0.05219,-0.05351 -0.05568,-0.05233 -0.05908,-0.05107"
         id="path21" />
      <path
         d="m -20.85965,24.454073 -0.09476,0.05747 -0.08977,0.06008 -0.08455,0.06255 -0.07913,0.06487 -0.07353,0.06704 -0.06774,0.06904 -0.06179,0.07087 -0.05569,0.07254 -0.04946,0.07403 -0.04311,0.07534 -0.03666,0.07647 -0.03011,0.07742 -0.0235,0.07818 -0.01682,0.07875 -0.01011,0.07913 -0.0034,0.07932"
         id="path22" />
      <path
         d="m -21.679751,25.597168 0.0034,0.07932 0.01011,0.07913 0.01682,0.07875 0.0235,0.07818 0.03011,0.07742 0.03666,0.07647 0.04311,0.07534 0.04946,0.07403 0.05569,0.07254 0.06179,0.07087 0.06774,0.06904 0.07353,0.06704 0.07913,0.06487 0.08455,0.06255 0.08977,0.06008 0.09476,0.05747 0.09953,0.05471 0.104064,0.05183 0.108343,0.04882 0.112361,0.04569 0.116109,0.04245 0.119577,0.03911 0.122757,0.03568 0.12564,0.03215 0.128222,0.02856 0.130495,0.02489 0.132452,0.02116 0.134092,0.01738 0.135408,0.01357 0.136397,0.0097 0.137058,0.0058 0.13739,0.0019 0.137389,-0.0019 0.137059,-0.0058 0.136397,-0.0097 0.135408,-0.01357 0.134091,-0.01738 0.132453,-0.02116 0.130495,-0.02489 0.128222,-0.02856 0.12564,-0.03215 0.122757,-0.03568 0.119577,-0.03911 0.116109,-0.04245 0.112361,-0.04569 0.108343,-0.04882 0.104064,-0.05183 0.09953,-0.05471 0.09476,-0.05747 0.08977,-0.06008 0.08455,-0.06255 0.07913,-0.06487 0.07353,-0.06704 0.06774,-0.06904 0.06179,-0.07087 0.05569,-0.07254 0.04946,-0.07403 0.04311,-0.07534 0.03665,-0.07647 0.03011,-0.07742 0.0235,-0.07818 0.01682,-0.07875 0.01011,-0.07913 0.0034,-0.07932"
         id="path23" />
      <path
         d="m -16.079751,25.597168 -0.0019,-0.0595 -0.0057,-0.05942 -0.0095,-0.05926 -0.01325,-0.05902 -0.017,-0.0587 -0.02073,-0.0583 -0.02443,-0.05782 -0.0281,-0.05726 -0.03173,-0.05662 -0.03532,-0.05591 -0.03886,-0.05512 -0.04235,-0.05426 -0.04578,-0.05332 -0.04915,-0.05231 -0.05245,-0.05123 -0.05568,-0.05008 -0.05884,-0.04887 -0.06191,-0.04758 -0.0649,-0.04623 -0.0678,-0.04482 -0.07062,-0.04335 -0.07333,-0.04182 -0.07595,-0.04024 -0.07846,-0.03859 -0.08087,-0.0369 -0.08317,-0.03516 -0.08535,-0.03337 -0.08742,-0.03153 -0.08937,-0.02965 -0.0912,-0.02773 -0.09291,-0.02577 -0.09449,-0.02378 -0.09594,-0.02176 -0.09726,-0.0197 -0.09845,-0.01762 -0.09951,-0.01552 -0.100432,-0.01339 -0.101219,-0.01125 -0.101867,-0.0091 -0.102378,-0.0069 -0.10275,-0.0047 -0.102983,-0.0026 -0.103075,-3.65e-4 -0.10303,0.0018 -0.102843,0.004 -0.102517,0.0062 -0.102053,0.0084 -0.10145,0.01053 -0.10071,0.01268 -0.09983,0.01481 -0.09882,0.01693 -0.09767,0.01901 -0.0964,0.02108 -0.09499,0.02311 -0.09345,0.02511 -0.09179,0.02708 -0.09,0.02902 -0.08808,0.03091 -0.08606,0.03276 -0.08391,0.03457 -0.08165,0.03632 -0.07928,0.03804 -0.0768,0.03969 -0.07422,0.0413"
         id="path24" />
      <path
         d="m -17.379751,25.597168 v 3.265986"
         id="path25" />
      <path
         d="m -20.379751,25.597168 v 3.265986"
         id="path26" />
      <path
         d="M -52.027983,45.601334 V 48.86732"
         id="path27" />
      <path
         d="M -55.027983,45.601334 V 48.86732"
         id="path28" />
      <path
         d="m -50.727983,43.691191 v 1.910143"
         id="path29" />
      <path
         d="M -16.079751,10.900229 V 25.597168"
         id="path31" />
      <path
         d="M -21.679751,12.402547 V 25.597168"
         id="path32" />
    </g>
    <!-- solid lines -->
    <g
       stroke="#82b9ff"
       fill="none"
       id="g72">
      <path
         d="M 4.2426407,2.4494897 -4.2426407,-2.4494897"
         id="path33" />
      <path
         d="M 4.2426407,2.4494897 V 20.412415"
         id="path34" />
      <path
         d="M -1.4142136,5.7154761 -9.8994949,0.81649658"
         id="path35" />
      <path
         d="M -1.4142136,5.7154761 4.2426407,2.4494897"
         id="path36" />
      <path
         d="M -9.8994949,0.81649658 -4.2426407,-2.4494897"
         id="path37" />
      <path
         d="M 4.2426407,20.412415 -57.063517,55.807541"
         id="path38" />
      <path
         d="M -57.063517,55.807541 V 50.908562"
         id="path39" />
      <path
         d="m -57.063517,50.908562 0.837947,-0.485801 0.834397,-0.48785 0.83075,-0.489956 0.827006,-0.492118 0.823165,-0.494335 0.819227,-0.496609 0.815191,-0.498938 0.811059,-0.501325 0.80683,-0.503766 0.802503,-0.506265 0.798079,-0.508818 0.793559,-0.511429 0.78894,-0.514094 0.784225,-0.516817 0.779414,-0.519596 0.774504,-0.522429 0.769497,-0.52532 0.764394,-0.528267 0.759194,-0.531269 0.753896,-0.534328 0.748501,-0.537442 0.743009,-0.540613 0.73742,-0.54384 0.731734,-0.547123 0.725951,-0.550462 0.72007,-0.553857 0.714093,-0.557307 0.708019,-0.560815 0.701847,-0.564379 0.695578,-0.567997 0.689212,-0.571673 0.682749,-0.575404 0.67619,-0.579192 0.669532,-0.583035 0.662777,-0.586935 0.655927,-0.59089 0.648978,-0.594902 0.641932,-0.59897 0.634789,-0.603094 0.314686,-0.303111 0.312864,-0.304163 0.31103,-0.305222 0.309183,-0.306287 0.307325,-0.307361 0.305454,-0.308441 0.303571,-0.309528 0.301676,-0.310622 0.29977,-0.311723 0.29785,-0.312831 0.295918,-0.313946 0.293976,-0.315068 0.292019,-0.316197 0.290052,-0.317334 0.288072,-0.318476 0.28608,-0.319627 0.284076,-0.320783 0.28206,-0.321948 0.280031,-0.323119 0.27799,-0.324297 0.275938,-0.325482 0.273873,-0.326674 0.271796,-0.327873 0.269707,-0.32908 0.267605,-0.330293 0.265492,-0.331513 0.263367,-0.33274 0.261229,-0.333974 0.259079,-0.335215 0.256917,-0.336464 0.254743,-0.337719 0.252556,-0.338981 0.250359,-0.340251 0.248148,-0.341526 0.245925,-0.34281 0.24369,-0.3441 0.241444,-0.345398 0.239184,-0.346701 0.236913,-0.348013 0.23463,-0.349332 0.232334,-0.350656 0.230027,-0.351989 0.227707,-0.353328 0.225375,-0.354675 0.223031,-0.356027 0.220675,-0.357389 0.218306,-0.358755 0.215926,-0.36013 0.213534,-0.361511 0.211129,-0.3629"
         id="path40" />
      <path
         d="m -14.63711,13.349719 4.24264,-2.44949"
         id="path41" />
      <path
         d="M -10.39447,10.900229 V 23.964175"
         id="path42" />
      <path
         d="m -10.39447,23.964175 8.9802564,-5.184754"
         id="path43" />
      <path
         d="M -1.4142136,18.779421 V 5.7154761"
         id="path44" />
      <path
         d="m -65.548799,50.908562 8.485282,4.898979"
         id="path45" />
      <path
         d="m -65.548799,50.908562 v -4.89898"
         id="path46" />
      <path
         d="m -65.548799,46.009582 0.837947,-0.485801 0.834397,-0.48785 0.83075,-0.489956 0.827006,-0.492117 0.823165,-0.494335 0.819227,-0.496609 0.815192,-0.498939 0.811059,-0.501324 0.80683,-0.503767 0.802503,-0.506264 0.798079,-0.508819 0.793558,-0.511428 0.788941,-0.514095 0.784225,-0.516817 0.779413,-0.519595 0.774504,-0.52243 0.769498,-0.52532 0.764394,-0.528266 0.759194,-0.531269 0.753895,-0.534328 0.748501,-0.537442 0.74301,-0.540614 0.73742,-0.54384 0.731734,-0.547122 0.725951,-0.550462 0.72007,-0.553857 0.714093,-0.557308 0.708019,-0.560815 0.701846,-0.564378 0.695579,-0.567998 0.689212,-0.571672 0.682749,-0.575405 0.676189,-0.579191 0.669532,-0.583036 0.662778,-0.586934 0.655926,-0.590891 0.648978,-0.594902 0.641932,-0.59897 0.63479,-0.603094 0.314686,-0.30311 0.312864,-0.304163 0.311029,-0.305222 0.309183,-0.306288 0.307325,-0.307361 0.305454,-0.308441 0.303572,-0.309528 0.301676,-0.310621 0.299769,-0.311723 0.29785,-0.312831 0.295919,-0.313947 0.293975,-0.315068 0.29202,-0.316197 0.290052,-0.317333 0.288072,-0.318477 0.28608,-0.319626 0.284076,-0.320784 0.282059,-0.321947 0.280031,-0.323119 0.277991,-0.324297 0.275938,-0.325482 0.273873,-0.326674 0.271795,-0.327874 0.269707,-0.329079 0.267606,-0.330293 0.265492,-0.331513 0.263366,-0.33274 0.261229,-0.333974 0.259079,-0.335216 0.256917,-0.336464 0.254743,-0.337719 0.252557,-0.338981 0.250358,-0.34025 0.248148,-0.341527 0.245925,-0.34281 0.243691,-0.3441 0.241443,-0.345397 0.239185,-0.346702 0.236913,-0.348013 0.23463,-0.349331 0.232334,-0.350657 0.230027,-0.351988 0.227707,-0.353329 0.225375,-0.354674 0.223031,-0.356028 0.220674,-0.3573881 0.218307,-0.3587556 0.215926,-0.3601298 0.213534,-0.3615113 0.211128,-0.3628996"
         id="path47" />
      <path
         d="m -23.122392,8.4507396 4.242641,-2.4494897"
         id="path48" />
      <path
         d="m -10.39447,14.166216 0.4949751,-0.285774"
         id="path49" />
      <path
         d="M -9.8994949,13.880442 V 0.81649658"
         id="path50" />
      <path
         d="M -1.4142136,18.779421 -9.8994949,13.880442"
         id="path51" />
      <path
         d="m -61.306158,48.459072 4.242641,2.44949"
         id="path52" />
      <path
         d="m -61.306158,48.459072 -4.242641,-2.44949"
         id="path53" />
      <path
         d="m -51.548084,42.508838 0.09379,0.05701 0.08892,0.05991 0.08386,0.0627 0.07862,0.06535 0.07319,0.06788 0.06759,0.07026 0.06182,0.0725 0.05588,0.07459 0.04979,0.07653 0.04355,0.07831 0.03718,0.07991 0.03067,0.08135 0.02403,0.08261 0.01728,0.08368 0.01044,0.08455 0.0035,0.08522"
         id="path55" />
      <path
         d="m -50.727983,43.691191 -0.0019,0.06238 -0.0056,0.06254 -0.0094,0.06261 -0.01316,0.0626 -0.01694,0.0625 -0.02074,0.06231 -0.02452,0.06203 -0.02831,0.06165 -0.03207,0.06118 -0.03581,0.06062 -0.03952,0.05996 -0.04319,0.0592 -0.04682,0.05834 -0.05039,0.05739 -0.05391,0.05635 -0.05735,0.05521 -0.06071,0.05397 -0.06399,0.05265 -0.06717,0.05123 -0.07026,0.04974 -0.07323,0.04815 -0.07609,0.04649 -0.07882,0.04475 -0.08142,0.04293 -0.08389,0.04105 -0.08621,0.0391 -0.0884,0.0371 -0.09043,0.03505 -0.09231,0.03294 -0.09404,0.03079 -0.09561,0.0286 -0.09702,0.02638 -0.09828,0.02414 -0.09937,0.02187 -0.100311,0.01958 -0.101093,0.01728 -0.101721,0.01497 -0.102195,0.01266 -0.102519,0.01035 -0.102695,0.008 -0.102727,0.0057 -0.102617,0.0035 -0.102369,0.0012 -0.101987,-0.0011 -0.101473,-0.0033 -0.100834,-0.0055 -0.100069,-0.0077 -0.09919,-0.0099 -0.09819,-0.01199 -0.09707,-0.01408 -0.09584,-0.01615 -0.09451,-0.01819 -0.09308,-0.02018 -0.09155,-0.02215 -0.08992,-0.02408 -0.0882,-0.02597 -0.08638,-0.02782 -0.08447,-0.02964 -0.08248,-0.03141 -0.0804,-0.03315 -0.07824,-0.03484 -0.076,-0.03649 -0.07367,-0.0381 -0.07127,-0.03967"
         id="path56" />
      <path
         d="m -16.899852,12.043325 -0.07822,0.131682 -0.08151,0.1297 -0.08482,0.127642 -0.08816,0.125493 -0.09152,0.123231 -0.0949,0.120837 -0.0983,0.118292 -0.101709,0.115578 -0.105135,0.112677 -0.108569,0.10957 -0.11201,0.106237 -0.115452,0.102659 -0.118891,0.09882 -0.122328,0.09469 -0.12576,0.09024 -0.12919,0.08546 -0.132576,0.08029 -0.13583,0.07464 -0.138969,0.06851 -0.141941,0.06185 -0.144687,0.05461 -0.07329,0.02439 -0.07386,0.02234 -0.07439,0.0202 -0.07485,0.01797 -0.07525,0.01566 -0.07558,0.01324 -0.07583,0.01074 -0.07599,0.0081 -0.07605,0.0054 -0.07601,0.0027 -0.07586,-2.04e-4 -0.0756,-0.0032 -0.07518,-0.0062 -0.07461,-0.0093 -0.07388,-0.01245 -0.07299,-0.01565 -0.07194,-0.01888 -0.07072,-0.02213 -0.06934,-0.02538 -0.0678,-0.02862 -0.06608,-0.03182 -0.06421,-0.03495"
         id="path58" />
      <path
         d="m -16.899852,12.043325 2.262742,1.306394"
         id="path59" />
      <path
         d="m -16.899852,12.043325 0.09476,-0.05747 0.08977,-0.06008 0.08455,-0.06255 0.07913,-0.06487 0.07353,-0.06704 0.06774,-0.06904 0.06179,-0.07087 0.05569,-0.07254 0.04946,-0.07403 0.04311,-0.07534 0.03665,-0.07647 0.03011,-0.07742 0.0235,-0.07818 0.01682,-0.07875 0.01011,-0.07913 0.0034,-0.07932"
         id="path60" />
      <path
         d="m -16.079751,10.900229 -0.0019,-0.0595 -0.0057,-0.05942 -0.0095,-0.05926 -0.01325,-0.05902 -0.017,-0.0587 -0.02073,-0.0583 -0.02443,-0.05782 -0.0281,-0.05726 -0.03173,-0.05662 -0.03532,-0.05591 -0.03886,-0.05512 -0.04235,-0.05426 -0.04578,-0.05332 -0.04915,-0.05231 -0.05245,-0.05123 -0.05568,-0.05008 -0.05884,-0.048865 -0.06191,-0.047582 -0.0649,-0.046234 -0.0678,-0.044824 -0.07062,-0.043352 -0.07333,-0.041822 -0.07595,-0.040236 -0.07846,-0.038594 -0.08087,-0.036901 -0.08317,-0.035157 -0.08535,-0.033366 -0.08742,-0.03153 -0.08937,-0.029651 -0.0912,-0.027731 -0.09291,-0.025774 -0.09449,-0.023782 -0.09594,-0.021758 -0.09726,-0.019705 -0.09845,-0.017625 -0.09951,-0.01552 -0.100432,-0.013395 -0.101219,-0.011252 -0.101867,-0.00909 -0.102378,-0.00692 -0.10275,-0.00474 -0.102983,-0.00256 -0.103075,-3.652e-4 -0.10303,0.00183 -0.102843,0.00401 -0.102517,0.0062 -0.102053,0.00837 -0.10145,0.010534 -0.10071,0.012683 -0.09983,0.014814 -0.09882,0.016926 -0.09767,0.019014 -0.0964,0.021077 -0.09499,0.023111 -0.09345,0.025114 -0.09179,0.027083 -0.09,0.029015 -0.08808,0.030908 -0.08606,0.032759 -0.08391,0.034565 -0.08165,0.036325 -0.07928,0.038035 -0.0768,0.039695 -0.07422,0.041299"
         id="path61" />
      <path
         d="M -20.85965,9.7571341 -23.122392,8.4507396"
         id="path62" />
      <path
         d="m -18.879751,6.0012499 8.485281,4.8989791"
         id="path63" />
      <path
         d="m -54.588644,44.988962 -0.05025,0.03045 -0.04763,0.03183 -0.04489,0.03312 -0.04206,0.03435 -0.03912,0.03548 -0.03609,0.03654 -0.03297,0.03751 -0.02978,0.03839"
         id="path64" />
      <path
         d="m -52.181529,45.219645 -0.0416,-0.04545 -0.0462,-0.04395 -0.05063,-0.04229 -0.05489,-0.04048 -0.05895,-0.03853 -0.06281,-0.03644 -0.06644,-0.03422 -0.06984,-0.03189 -0.07299,-0.02944 -0.07589,-0.02689 -0.07852,-0.02424 -0.08087,-0.02151 -0.08294,-0.0187 -0.08472,-0.01582 -0.08619,-0.0129 -0.08736,-0.0099 -0.08823,-0.0069 -0.08879,-0.0039 -0.08903,-8.26e-4 -0.08895,0.0022 -0.08857,0.0053 -0.08787,0.0083 -0.08687,0.01129 -0.08555,0.01424 -0.08394,0.01715 -0.08203,0.02 -0.07983,0.02277 -0.07735,0.02546 -0.07459,0.02807 -0.07158,0.03057 -0.06831,0.03297 -0.0648,0.03525"
         id="path65" />
      <path
         d="m -55.507882,42.630877 -0.09581,0.06333 -0.0907,0.06591 -0.08533,0.0683 -0.07972,0.0705 -0.07391,0.07249 -0.06791,0.07428 -0.06176,0.07586 -0.05548,0.07723 -0.04909,0.07839 -0.04261,0.07933 -0.03607,0.08005 -0.02949,0.08057 -0.02291,0.0809 -0.01632,0.08102 -0.0098,0.08095 -0.0032,0.08069"
         id="path66" />
      <path
         d="m -56.327983,43.840682 0.0035,0.0838 0.01048,0.08312 0.01735,0.08226 0.02411,0.08121 0.03075,0.07999 0.03726,0.0786 0.04362,0.07705 0.04985,0.07535 0.05592,0.0735 0.06182,0.07151 0.06757,0.06938 0.07314,0.06712 0.07854,0.06473 0.08376,0.06222 0.08879,0.05959 0.09364,0.05684"
         id="path67" />
      <path
         d="m -51.548084,42.508838 -0.0964,-0.05291 -0.100694,-0.0499 -0.104786,-0.04679 -0.108676,-0.04358 -0.112353,-0.04028 -0.115815,-0.03688 -0.119053,-0.03339 -0.122059,-0.02983 -0.124826,-0.02618 -0.127349,-0.02246 -0.129616,-0.01868 -0.131623,-0.01483 -0.133357,-0.01092 -0.134804,-0.007 -0.135959,-0.003 -0.136809,0.0011 -0.137347,0.0052 -0.137562,0.0092 -0.137446,0.01334 -0.136988,0.01745 -0.136178,0.02154 -0.135013,0.02561 -0.133482,0.02964 -0.131587,0.03363 -0.129323,0.03755 -0.126677,0.0414 -0.123657,0.04515 -0.120267,0.0488 -0.116517,0.05233 -0.112415,0.05572 -0.107968,0.05895 -0.103188,0.06202"
         id="path68" />
      <path
         d="m -20.85965,9.7571341 -0.0863,0.1535269 -0.08269,0.155488 -0.07895,0.157425 -0.07506,0.15932 -0.07097,0.161156 -0.06668,0.162916 -0.06213,0.164581 -0.0573,0.166133 -0.05217,0.167554 -0.04669,0.168825 -0.04084,0.169927 -0.03458,0.170842 -0.02786,0.171553 -0.02063,0.172043 -0.0074,0.08612 -0.0054,0.08609 -0.0033,0.08602 -0.0011,0.08589"
         id="path69" />
      <path
         d="m -21.679751,12.402547 0.0025,0.126618 0.0078,0.125956 0.01333,0.12502 0.0192,0.123774 0.02539,0.122174 0.03189,0.120155 0.0387,0.117664 0.0458,0.114642 0.02564,0.05601 0.02751,0.05503 0.0294,0.05398 0.03131,0.05284 0.03324,0.05161 0.03516,0.05028 0.03708,0.04886 0.039,0.04734 0.04089,0.04573 0.04276,0.04403 0.0446,0.04224 0.0464,0.04037 0.04815,0.03842 0.04984,0.03639 0.05146,0.0343 0.053,0.03213"
         id="path70" />
      <path
         d="m -55.507882,44.458239 -0.104634,0.06379 -0.09848,0.06697 -0.09203,0.06996 -0.08531,0.07275"
         id="path71"
         inkscape:label="path71" />
      <path
         d="m -51.229537,44.678089 -0.09075,-0.07109 -0.09734,-0.06812 -0.103641,-0.06495 -0.109629,-0.06159 -0.115291,-0.05804 -0.120608,-0.05431 -0.125565,-0.05043 -0.130149,-0.0464 -0.134342,-0.04223 -0.138136,-0.03793 -0.141518,-0.03352 -0.144476,-0.029 -0.147003,-0.02441 -0.149093,-0.01973 -0.150737,-0.015 -0.151931,-0.01023 -0.152672,-0.0054 -0.152957,-6.02e-4 -0.152785,0.0042 -0.152159,0.009 -0.151077,0.01382 -0.149545,0.01856 -0.147566,0.02325 -0.145148,0.02786 -0.142295,0.0324 -0.139019,0.03684 -0.135327,0.04116 -0.131232,0.04537 -0.126745,0.04944 -0.121879,0.05336 -0.116651,0.05712 -0.111073,0.06072"
         id="path72"
         inkscape:label="path72" />
    </g>
  </g>
</svg>
