<?xml version="1.0" encoding="UTF-8" standalone="no"?>
<svg
   width="730.0"
   height="416.0"
   version="1.1"
   id="svg588"
   sodipodi:docname="monitor-stand.svg"
   inkscape:version="1.4.3 (0d15f75042, 2025-12-25)"
   xmlns:inkscape="http://www.inkscape.org/namespaces/inkscape"
   xmlns:sodipodi="http://sodipodi.sourceforge.net/DTD/sodipodi-0.dtd"
   xmlns="http://www.w3.org/2000/svg"
   xmlns:svg="http://www.w3.org/2000/svg">
  <defs
     id="defs588" />
  <sodipodi:namedview
     id="namedview588"
     pagecolor="#ffffff"
     bordercolor="#000000"
     borderopacity="0.25"
     inkscape:showpageshadow="2"
     inkscape:pageopacity="0.0"
     inkscape:pagecheckerboard="0"
     inkscape:deskcolor="#d1d1d1"
     inkscape:zoom="2.0493151"
     inkscape:cx="381.59091"
     inkscape:cy="194.45521"
     inkscape:window-width="2560"
     inkscape:window-height="1440"
     inkscape:window-x="0"
     inkscape:window-y="0"
     inkscape:window-maximized="1"
     inkscape:current-layer="svg588" />
  <g
     transform="matrix(2.8329747,0,0,-2.8329747,364.99666,211.12662)"
     stroke-width="0.5"
     fill="none"
     id="g588">
    <!-- hidden lines -->
    <g
       stroke="#0000ff"
       fill="none"
       stroke-dasharray="0.5, 0.5"
       id="g1" />
    <!-- solid lines -->
    <g
       stroke="#82b9ff"
       fill="none"
       id="g587">
      <path
         d="m -120.19688,50.009518 -4.36693,-100.019036"
         id="path1" />
      <path
         d="M -120.19688,50.009518 -109.76069,60"
         id="path2" />
      <path
         d="M -124.56381,-50.009518 -115,-60"
         id="path3" />
      <path
         d="m -115,-60 h 21.666667"
         id="path4" />
      <path
         d="M -79.913132,-50.603074 -93.333333,-60"
         id="path5" />
      <path
         d="M -57.635916,10.603074 -79.913132,-50.603074"
         id="path6" />
      <path
         d="M -44.215715,20 -57.635916,10.603074"
         id="path7" />
      <path
         d="m 44.215715,20 h -88.43143"
         id="path8" />
      <path
         d="M 57.635916,10.603074 44.215715,20"
         id="path9" />
      <path
         d="M 79.913132,-50.603074 57.635916,10.603074"
         id="path10" />
      <path
         d="m 93.333333,-60 -13.420201,9.396926"
         id="path11" />
      <path
         d="M 93.333333,-60 H 115"
         id="path12" />
      <path
         d="M 124.56381,-50.009518 115,-60"
         id="path13" />
      <path
         d="M 124.56381,-50.009518 120.19688,50.009518"
         id="path14" />
      <path
         d="m 109.76069,60 10.43619,-9.990482"
         id="path15" />
      <path
         d="M 109.76069,60 H -109.76069"
         id="path16" />
      <path
         d="m -116.27074,48.230606 -0.24697,-5.65649"
         id="path17" />
      <path
         d="m -116.27074,48.230606 1.42047,1.359807"
         id="path18" />
      <path
         d="m -114.85027,49.590413 0.0464,-0.0268"
         id="path19" />
      <path
         d="m -114.80385,49.563613 v -6"
         id="path20" />
      <path
         d="m -114.80385,43.563613 -1.71386,-0.989497"
         id="path21" />
      <path
         d="m -116.67286,39.020435 -0.37961,-8.694476"
         id="path22" />
      <path
         d="M -116.67286,39.020435 -114,40.563613"
         id="path23" />
      <path
         d="m -114,40.563613 0.5,-0.288675"
         id="path24" />
      <path
         d="m -113.5,39.863613 v 0.411325"
         id="path25" />
      <path
         d="m -109.5,35.863613 -0.17448,0.0038 -0.17414,0.01141 -0.17348,0.019 -0.17249,0.02655 -0.17117,0.03405 -0.16952,0.04148 -0.16754,0.04883 -0.16526,0.0561 -0.16265,0.06325 -0.15974,0.07029 -0.15652,0.07719 -0.15301,0.08394 -0.1492,0.09053 -0.14511,0.09696 -0.14074,0.103195 -0.1361,0.109235 -0.13121,0.115069 -0.12607,0.120682 -0.12068,0.126066 -0.11507,0.131211 -0.10923,0.136105 -0.1032,0.14074 -0.097,0.145107 -0.0905,0.149198 -0.0839,0.153006 -0.0772,0.156521 -0.0703,0.15974 -0.0632,0.162653 -0.0561,0.165257 -0.0488,0.167547 -0.0415,0.169518 -0.034,0.171166 -0.0266,0.172487 -0.019,0.173482 -0.0114,0.174146 -0.004,0.174477"
         id="path26" />
      <path
         d="m -109.5,35.863613 h 0.69615"
         id="path27" />
      <path
         d="m -108.80385,35.863613 v -4.3"
         id="path28" />
      <path
         d="m -108.80385,31.563613 -5.19615,-3"
         id="path29" />
      <path
         d="m -114,28.563613 -3.05247,1.762346"
         id="path30" />
      <path
         d="m -117.2,26.947032 -0.39267,-8.993544"
         id="path31" />
      <path
         d="m -117.2,26.947032 2.39615,-1.383419"
         id="path32" />
      <path
         d="m -114.80385,25.563613 v -6"
         id="path33" />
      <path
         d="m -114.80385,19.563613 -2.78882,-1.610125"
         id="path34" />
      <path
         d="m -117.74782,14.399806 -0.32675,-7.4837383"
         id="path35" />
      <path
         d="M -117.74782,14.399806 -114,16.563613"
         id="path36" />
      <path
         d="m -114,16.563613 5.19615,-3"
         id="path37" />
      <path
         d="M -108.80385,13.563613 V 7.5636132"
         id="path38" />
      <path
         d="m -108.80385,7.5636132 -5.19615,-3"
         id="path39" />
      <path
         d="m -114,4.5636132 -4.07457,2.3524545"
         id="path40" />
      <path
         d="m -118.2221,3.5371409 -0.44553,-10.2042814"
         id="path41" />
      <path
         d="m -118.2221,3.5371409 3.41825,-1.9735277"
         id="path42" />
      <path
         d="m -114.80385,1.5636132 v -6"
         id="path43" />
      <path
         d="m -114.80385,-4.4363868 -3.86378,-2.2307537"
         id="path44" />
      <path
         d="m -118.82278,-10.220822 -0.27389,-6.273002"
         id="path45" />
      <path
         d="M -118.82278,-10.220822 -114,-7.4363868"
         id="path46" />
      <path
         d="m -114,-7.4363868 5.19615,-3.0000002"
         id="path47" />
      <path
         d="m -108.80385,-10.436387 v -6"
         id="path48" />
      <path
         d="m -108.80385,-16.436387 -5.19615,-3"
         id="path49" />
      <path
         d="m -114,-19.436387 -5.09667,2.942563"
         id="path50" />
      <path
         d="m -119.2442,-19.872751 -0.49839,-11.415018"
         id="path51" />
      <path
         d="m -119.2442,-19.872751 4.44035,-2.563636"
         id="path52" />
      <path
         d="m -114.80385,-22.436387 v -6"
         id="path53" />
      <path
         d="m -114.80385,-28.436387 -4.93874,-2.851382"
         id="path54" />
      <path
         d="m -120.28007,-43.598083 -0.21303,-4.87933"
         id="path55" />
      <path
         d="M -120.28007,-43.598083 -120,-43.436387"
         id="path56" />
      <path
         d="m -120,-43.436387 5.19615,-3"
         id="path57" />
      <path
         d="m -114.80385,-46.436387 v -6"
         id="path58" />
      <path
         d="m -114.80385,-52.436387 -1.22327,-0.706255"
         id="path59" />
      <path
         d="m -120.4931,-48.477413 4.46598,-4.665229"
         id="path60" />
      <path
         d="m -83.240548,-48.049857 -5.955604,-4.170159"
         id="path61" />
      <path
         d="m -89.196152,-52.220016 v 5.783629"
         id="path62" />
      <path
         d="m -89.196152,-46.436387 5.196152,3"
         id="path63" />
      <path
         d="m -84,-43.436387 2.015156,-1.163451"
         id="path64" />
      <path
         d="m -81.984844,-44.599838 -1.255704,-3.450019"
         id="path65" />
      <path
         d="m -77.333745,-31.821049 -3.60921,-9.916222"
         id="path66" />
      <path
         d="m -80.942955,-41.737271 -2.253197,1.300884"
         id="path67" />
      <path
         d="m -83.196152,-40.436387 v 6"
         id="path68" />
      <path
         d="m -83.196152,-34.436387 5.196152,3"
         id="path69" />
      <path
         d="m -78,-31.436387 0.666255,-0.384662"
         id="path70" />
      <path
         d="m -73.045875,-20.040223 -3.245981,-8.91826"
         id="path71" />
      <path
         d="m -76.291856,-28.958483 -0.904296,0.522096"
         id="path72" />
      <path
         d="m -77.196152,-28.436387 v 6"
         id="path73" />
      <path
         d="m -77.196152,-22.436387 4.150277,2.396164"
         id="path74" />
      <path
         d="m -69.112512,-9.2333963 -2.08364,-5.7247557"
         id="path75" />
      <path
         d="m -71.196152,-14.958152 v 4.521765"
         id="path76" />
      <path
         d="m -71.196152,-10.436387 2.08364,1.2029907"
         id="path77" />
      <path
         d="m -66.803848,-2.8903935 -0.712397,-1.9572962"
         id="path78" />
      <path
         d="M -67.516245,-4.8476897 -72,-7.4363868"
         id="path79" />
      <path
         d="m -72,-7.4363868 -5.196152,3"
         id="path80" />
      <path
         d="m -77.196152,-4.4363868 v 6"
         id="path81" />
      <path
         d="m -77.196152,1.5636132 5.196152,3"
         id="path82" />
      <path
         d="m -72,4.5636132 5.196152,-3"
         id="path83" />
      <path
         d="M -66.803848,1.5636132 V -2.8903935"
         id="path84" />
      <path
         d="m -65.179149,1.5734305 -0.017,-0.046718"
         id="path85" />
      <path
         d="m -65.196152,1.5267126 v 0.036901"
         id="path86" />
      <path
         d="m -65.196152,1.5636132 0.017,0.00982"
         id="path87" />
      <path
         d="M -61.394687,11.971154 -63.582882,5.9591371"
         id="path88" />
      <path
         d="M -63.582882,5.9591371 -66,4.5636132"
         id="path89" />
      <path
         d="m -66,4.5636132 -5.196152,3"
         id="path90" />
      <path
         d="M -71.196152,7.5636132 V 13.563613"
         id="path91" />
      <path
         d="m -71.196152,13.563613 5.196152,3"
         id="path92" />
      <path
         d="m -66,16.563613 5.196152,-3"
         id="path93" />
      <path
         d="M -60.803848,13.563613 V 13.045247"
         id="path94" />
      <path
         d="m -61.394687,11.971154 0.06374,0.16384 0.07088,0.160881 0.07788,0.157611 0.08473,0.154036 0.09142,0.150164 0.09793,0.146003 0.104249,0.141558"
         id="path95" />
      <path
         d="m -46.51002,23.276608 -5.9279,-4.15076"
         id="path96" />
      <path
         d="m -52.43792,19.125848 -0.758232,0.437765"
         id="path97" />
      <path
         d="m -53.196152,19.563613 v 6"
         id="path98" />
      <path
         d="m -53.196152,25.563613 5.196152,3"
         id="path99" />
      <path
         d="m -48,28.563613 5.196152,-3"
         id="path100" />
      <path
         d="M -42.803848,25.563613 V 24"
         id="path101" />
      <path
         d="m -42.803848,24 h -1.411867"
         id="path102" />
      <path
         d="m -46.51002,23.276608 0.145107,0.09696 0.149198,0.09054 0.153006,0.08394 0.156521,0.07719 0.15974,0.07029 0.162653,0.06325 0.165257,0.0561 0.167547,0.04884 0.169518,0.04148 0.171166,0.03405 0.172488,0.02655 0.173481,0.019 0.174146,0.01141 0.174477,0.0038"
         id="path103" />
      <path
         d="M -30.803848,24 H -41.196152"
         id="path104" />
      <path
         d="m -41.196152,24 v 1.563613"
         id="path105" />
      <path
         d="m -41.196152,25.563613 5.196152,3"
         id="path106" />
      <path
         d="m -36,28.563613 5.196152,-3"
         id="path107" />
      <path
         d="M -30.803848,25.563613 V 24"
         id="path108" />
      <path
         d="M -18.803848,24 H -29.196152"
         id="path109" />
      <path
         d="m -29.196152,24 v 1.563613"
         id="path110" />
      <path
         d="m -29.196152,25.563613 5.196152,3"
         id="path111" />
      <path
         d="m -24,28.563613 5.196152,-3"
         id="path112" />
      <path
         d="M -18.803848,25.563613 V 24"
         id="path113" />
      <path
         d="M -6.8038476,24 H -17.196152"
         id="path114" />
      <path
         d="m -17.196152,24 v 1.563613"
         id="path115" />
      <path
         d="m -17.196152,25.563613 5.196152,3"
         id="path116" />
      <path
         d="m -12,28.563613 5.1961524,-3"
         id="path117" />
      <path
         d="M -6.8038476,25.563613 V 24"
         id="path118" />
      <path
         d="M 5.1961524,24 H -5.1961524"
         id="path119" />
      <path
         d="m -5.1961524,24 v 1.563613"
         id="path120" />
      <path
         d="M -5.1961524,25.563613 0,28.563613"
         id="path121" />
      <path
         d="m 0,28.563613 5.1961524,-3"
         id="path122" />
      <path
         d="M 5.1961524,25.563613 V 24"
         id="path123" />
      <path
         d="M 17.196152,24 H 6.8038476"
         id="path124" />
      <path
         d="m 6.8038476,24 v 1.563613"
         id="path125" />
      <path
         d="m 6.8038476,25.563613 5.1961524,3"
         id="path126" />
      <path
         d="m 12,28.563613 5.196152,-3"
         id="path127" />
      <path
         d="M 17.196152,25.563613 V 24"
         id="path128" />
      <path
         d="M 29.196152,24 H 18.803848"
         id="path129" />
      <path
         d="m 18.803848,24 v 1.563613"
         id="path130" />
      <path
         d="m 18.803848,25.563613 5.196152,3"
         id="path131" />
      <path
         d="m 24,28.563613 5.196152,-3"
         id="path132" />
      <path
         d="M 29.196152,25.563613 V 24"
         id="path133" />
      <path
         d="M 41.196152,24 H 30.803848"
         id="path134" />
      <path
         d="m 30.803848,24 v 1.563613"
         id="path135" />
      <path
         d="m 30.803848,25.563613 5.196152,3"
         id="path136" />
      <path
         d="m 36,28.563613 5.196152,-3"
         id="path137" />
      <path
         d="M 41.196152,25.563613 V 24"
         id="path138" />
      <path
         d="M 44.215715,24 H 42.803848"
         id="path139" />
      <path
         d="m 42.803848,24 v 1.563613"
         id="path140" />
      <path
         d="m 42.803848,25.563613 5.196152,3"
         id="path141" />
      <path
         d="m 48,28.563613 5.196152,-3"
         id="path142" />
      <path
         d="m 53.196152,25.563613 v -6"
         id="path143" />
      <path
         d="M 53.196152,19.563613 52.43792,19.125848"
         id="path144" />
      <path
         d="m 52.43792,19.125848 -5.9279,4.15076"
         id="path145" />
      <path
         d="m 44.215715,24 0.174477,-0.0038 0.174146,-0.01141 0.173481,-0.019 0.172488,-0.02655 0.171166,-0.03405 0.169518,-0.04148 0.167547,-0.04884 0.165257,-0.0561 0.162653,-0.06325 0.15974,-0.07029 0.156521,-0.07719 0.153006,-0.08394 0.149198,-0.09054 0.145107,-0.09696"
         id="path146" />
      <path
         d="m 60.803848,13.045247 0.104249,-0.141558 0.09793,-0.146003 0.09142,-0.150164 0.08473,-0.154036 0.07788,-0.157611 0.07088,-0.160881 0.06374,-0.16384"
         id="path147" />
      <path
         d="m 60.803848,13.045247 v 0.518366"
         id="path148" />
      <path
         d="m 60.803848,13.563613 5.196152,3"
         id="path149" />
      <path
         d="m 66,16.563613 5.196152,-3"
         id="path150" />
      <path
         d="M 71.196152,13.563613 V 7.5636132"
         id="path151" />
      <path
         d="M 71.196152,7.5636132 66,4.5636132"
         id="path152" />
      <path
         d="M 66,4.5636132 63.582882,5.9591371"
         id="path153" />
      <path
         d="M 63.582882,5.9591371 61.394687,11.971154"
         id="path154" />
      <path
         d="m 65.196152,1.5267126 -0.017,0.046718"
         id="path155" />
      <path
         d="m 65.179149,1.5734305 0.017,-0.00982"
         id="path156" />
      <path
         d="M 65.196152,1.5636132 V 1.5267126"
         id="path157" />
      <path
         d="m 67.516245,-4.8476897 -0.712397,1.9572962"
         id="path158" />
      <path
         d="M 66.803848,-2.8903935 V 1.5636132"
         id="path159" />
      <path
         d="m 66.803848,1.5636132 5.196152,3"
         id="path160" />
      <path
         d="m 72,4.5636132 5.196152,-3"
         id="path161" />
      <path
         d="m 77.196152,1.5636132 v -6"
         id="path162" />
      <path
         d="m 77.196152,-4.4363868 -5.196152,-3"
         id="path163" />
      <path
         d="m 72,-7.4363868 -4.483755,2.5886971"
         id="path164" />
      <path
         d="m 71.196152,-14.958152 -2.08364,5.7247557"
         id="path165" />
      <path
         d="m 69.112512,-9.2333963 2.08364,-1.2029907"
         id="path166" />
      <path
         d="m 71.196152,-10.436387 v -4.521765"
         id="path167" />
      <path
         d="m 76.291856,-28.958483 -3.245981,8.91826"
         id="path168" />
      <path
         d="m 73.045875,-20.040223 4.150277,-2.396164"
         id="path169" />
      <path
         d="m 77.196152,-22.436387 v -6"
         id="path170" />
      <path
         d="m 77.196152,-28.436387 -0.904296,-0.522096"
         id="path171" />
      <path
         d="m 80.942955,-41.737271 -3.60921,9.916222"
         id="path172" />
      <path
         d="M 77.333745,-31.821049 78,-31.436387"
         id="path173" />
      <path
         d="m 78,-31.436387 5.196152,-3"
         id="path174" />
      <path
         d="m 83.196152,-34.436387 v -6"
         id="path175" />
      <path
         d="m 83.196152,-40.436387 -2.253197,-1.300884"
         id="path176" />
      <path
         d="m 83.240548,-48.049857 -1.255704,3.450019"
         id="path177" />
      <path
         d="M 81.984844,-44.599838 84,-43.436387"
         id="path178" />
      <path
         d="m 84,-43.436387 5.196152,-3"
         id="path179" />
      <path
         d="m 89.196152,-46.436387 v -5.783629"
         id="path180" />
      <path
         d="m 89.196152,-52.220016 -5.955604,4.170159"
         id="path181" />
      <path
         d="m 120.4931,-48.477413 -4.46598,-4.665229"
         id="path182" />
      <path
         d="m 116.02712,-53.142642 -1.22327,0.706255"
         id="path183" />
      <path
         d="m 114.80385,-52.436387 v 6"
         id="path184" />
      <path
         d="m 114.80385,-46.436387 5.19615,3"
         id="path185" />
      <path
         d="m 120,-43.436387 0.28007,-0.161696"
         id="path186" />
      <path
         d="m 120.4931,-48.477413 -0.21303,4.87933"
         id="path187" />
      <path
         d="m 119.74259,-31.287769 -0.49839,11.415018"
         id="path188" />
      <path
         d="m 119.74259,-31.287769 -4.93874,2.851382"
         id="path189" />
      <path
         d="m 114.80385,-28.436387 v 6"
         id="path190" />
      <path
         d="m 114.80385,-22.436387 4.44035,2.563636"
         id="path191" />
      <path
         d="m 119.09667,-16.493824 -0.27389,6.273002"
         id="path192" />
      <path
         d="M 119.09667,-16.493824 114,-19.436387"
         id="path193" />
      <path
         d="m 114,-19.436387 -5.19615,3"
         id="path194" />
      <path
         d="m 108.80385,-16.436387 v 6"
         id="path195" />
      <path
         d="M 108.80385,-10.436387 114,-7.4363868"
         id="path196" />
      <path
         d="m 114,-7.4363868 4.82278,-2.7844352"
         id="path197" />
      <path
         d="M 118.66763,-6.6671405 118.2221,3.5371409"
         id="path198" />
      <path
         d="m 118.66763,-6.6671405 -3.86378,2.2307537"
         id="path199" />
      <path
         d="m 114.80385,-4.4363868 v 6"
         id="path200" />
      <path
         d="m 114.80385,1.5636132 3.41825,1.9735277"
         id="path201" />
      <path
         d="m 118.07457,6.9160677 -0.32675,7.4837383"
         id="path202" />
      <path
         d="M 118.07457,6.9160677 114,4.5636132"
         id="path203" />
      <path
         d="m 114,4.5636132 -5.19615,3"
         id="path204" />
      <path
         d="M 108.80385,7.5636132 V 13.563613"
         id="path205" />
      <path
         d="m 108.80385,13.563613 5.19615,3"
         id="path206" />
      <path
         d="m 114,16.563613 3.74782,-2.163807"
         id="path207" />
      <path
         d="M 117.59267,17.953488 117.2,26.947032"
         id="path208" />
      <path
         d="m 117.59267,17.953488 -2.78882,1.610125"
         id="path209" />
      <path
         d="m 114.80385,19.563613 v 6"
         id="path210" />
      <path
         d="M 114.80385,25.563613 117.2,26.947032"
         id="path211" />
      <path
         d="m 117.05247,30.325959 -0.37961,8.694476"
         id="path212" />
      <path
         d="M 117.05247,30.325959 114,28.563613"
         id="path213" />
      <path
         d="m 114,28.563613 -5.19615,3"
         id="path214" />
      <path
         d="m 108.80385,31.563613 v 4.3"
         id="path215" />
      <path
         d="M 108.80385,35.863613 H 109.5"
         id="path216" />
      <path
         d="m 113.5,39.863613 -0.004,-0.174477 -0.0114,-0.174146 -0.019,-0.173482 -0.0266,-0.172487 -0.034,-0.171166 -0.0415,-0.169518 -0.0488,-0.167547 -0.0561,-0.165257 -0.0632,-0.162653 -0.0703,-0.15974 -0.0772,-0.156521 -0.0839,-0.153006 -0.0905,-0.149198 -0.097,-0.145107 -0.1032,-0.14074 -0.10923,-0.136105 -0.11507,-0.131211 -0.12068,-0.126066 -0.12607,-0.120682 -0.13121,-0.115069 -0.1361,-0.109235 -0.14074,-0.103195 -0.14511,-0.09696 -0.1492,-0.09053 -0.15301,-0.08394 -0.15652,-0.07719 -0.15974,-0.07029 -0.16265,-0.06325 -0.16526,-0.0561 -0.16754,-0.04883 -0.16952,-0.04148 -0.17117,-0.03405 -0.17249,-0.02655 -0.17348,-0.019 -0.17414,-0.01141 -0.17448,-0.0038"
         id="path217" />
      <path
         d="m 113.5,39.863613 v 0.411325"
         id="path218" />
      <path
         d="m 113.5,40.274938 0.5,0.288675"
         id="path219" />
      <path
         d="m 114,40.563613 2.67286,-1.543178"
         id="path220" />
      <path
         d="m 116.51771,42.574116 -0.24697,5.65649"
         id="path221" />
      <path
         d="m 116.51771,42.574116 -1.71386,0.989497"
         id="path222" />
      <path
         d="m 114.80385,43.563613 v 6"
         id="path223" />
      <path
         d="m 114.80385,49.563613 0.0464,0.0268"
         id="path224" />
      <path
         d="m 114.85027,49.590413 1.42047,-1.359807"
         id="path225" />
      <path
         d="m 23.196152,35.863613 v -4.3"
         id="path226" />
      <path
         d="M 23.196152,31.563613 18,28.563613"
         id="path227" />
      <path
         d="m 18,28.563613 -5.196152,3"
         id="path228" />
      <path
         d="m 12.803848,31.563613 v 4.3"
         id="path229" />
      <path
         d="M 12.803848,35.863613 H 23.196152"
         id="path230" />
      <path
         d="M 24.803848,35.863613 H 35.196152"
         id="path231" />
      <path
         d="m 35.196152,35.863613 v -4.3"
         id="path232" />
      <path
         d="M 35.196152,31.563613 30,28.563613"
         id="path233" />
      <path
         d="m 30,28.563613 -5.196152,3"
         id="path234" />
      <path
         d="m 24.803848,31.563613 v 4.3"
         id="path235" />
      <path
         d="M 36.803848,35.863613 H 47.196152"
         id="path236" />
      <path
         d="m 47.196152,35.863613 v -4.3"
         id="path237" />
      <path
         d="M 47.196152,31.563613 42,28.563613"
         id="path238" />
      <path
         d="m 42,28.563613 -5.196152,3"
         id="path239" />
      <path
         d="m 36.803848,31.563613 v 4.3"
         id="path240" />
      <path
         d="M 48.803848,35.863613 H 59.196152"
         id="path241" />
      <path
         d="m 59.196152,35.863613 v -4.3"
         id="path242" />
      <path
         d="M 59.196152,31.563613 54,28.563613"
         id="path243" />
      <path
         d="m 54,28.563613 -5.196152,3"
         id="path244" />
      <path
         d="m 48.803848,31.563613 v 4.3"
         id="path245" />
      <path
         d="m -109.5,40.863613 -0.0888,-0.004 -0.0881,-0.01182 -0.0867,-0.0196 -0.0846,-0.02722 -0.0819,-0.03462 -0.0785,-0.04175 -0.0745,-0.04856 -0.0698,-0.05498 -0.0647,-0.06096 -0.059,-0.06646 -0.0529,-0.07144 -0.0463,-0.07586 -0.0394,-0.07967 -0.0322,-0.08285 -0.0247,-0.08538 -0.017,-0.08724 -0.009,-0.08841 -0.001,-0.08887 0.007,-0.08864 0.0144,-0.0877 0.0222,-0.08608 0.0297,-0.08377 0.037,-0.0808 0.0441,-0.07719 0.0508,-0.07298 0.057,-0.06818 0.0628,-0.06285 0.0682,-0.05702 0.073,-0.05074 0.0772,-0.04406 0.0808,-0.03703 0.0838,-0.02971 0.0861,-0.02215 0.0877,-0.01443 0.0886,-0.0066 0.0889,0.0013 0.0884,0.0092 0.0872,0.01702 0.0854,0.0247 0.0829,0.03218 0.0797,0.03941 0.0759,0.04633 0.0714,0.05288 0.0665,0.05902 0.061,0.06468 0.055,0.06984 0.0486,0.07445 0.0418,0.07847 0.0346,0.08186 0.0272,0.08461 0.0196,0.0867 0.0118,0.08809 0.004,0.0888"
         id="path246" />
      <path
         d="m -109.5,40.863613 v 11.4"
         id="path247" />
      <path
         d="m -108.5,53.263613 -0.004,0.0888 -0.0118,0.08809 -0.0196,0.0867 -0.0272,0.08461 -0.0346,0.08186 -0.0418,0.07847 -0.0486,0.07445 -0.055,0.06984 -0.061,0.06469 -0.0665,0.05902 -0.0714,0.05288 -0.0759,0.04633 -0.0797,0.03941 -0.0829,0.03218 -0.0854,0.0247 -0.0872,0.01702 -0.0884,0.0092 -0.0889,0.0013 -0.0886,-0.0066 -0.0877,-0.01442 -0.0861,-0.02216 -0.0838,-0.02971 -0.0808,-0.03703 -0.0772,-0.04406 -0.073,-0.05074 -0.0682,-0.05702 -0.0628,-0.06285 -0.057,-0.06818 -0.0508,-0.07298 -0.0441,-0.0772 -0.037,-0.0808 -0.0297,-0.08377 -0.0222,-0.08608 -0.0144,-0.08771 -0.007,-0.08864 10e-4,-0.08887 0.009,-0.08841 0.017,-0.08724 0.0247,-0.08538 0.0322,-0.08285 0.0394,-0.07967 0.0463,-0.07586 0.0529,-0.07144 0.059,-0.06646 0.0647,-0.06096 0.0698,-0.05498 0.0745,-0.04856 0.0785,-0.04175 0.0819,-0.03462 0.0846,-0.02722 0.0867,-0.01959 0.0881,-0.01182 0.0888,-0.004"
         id="path248" />
      <path
         d="m -108.5,53.263613 h 217"
         id="path249" />
      <path
         d="m 108.5,53.263613 0.004,0.0888 0.0118,0.08809 0.0196,0.0867 0.0272,0.08461 0.0346,0.08186 0.0418,0.07847 0.0486,0.07445 0.055,0.06984 0.061,0.06469 0.0665,0.05902 0.0714,0.05288 0.0759,0.04633 0.0797,0.03941 0.0829,0.03218 0.0854,0.0247 0.0872,0.01702 0.0884,0.0092 0.0889,0.0013 0.0886,-0.0066 0.0877,-0.01442 0.0861,-0.02216 0.0838,-0.02971 0.0808,-0.03703 0.0772,-0.04406 0.073,-0.05074 0.0682,-0.05702 0.0628,-0.06285 0.057,-0.06818 0.0508,-0.07298 0.0441,-0.0772 0.037,-0.0808 0.0297,-0.08377 0.0222,-0.08608 0.0144,-0.08771 0.007,-0.08864 -10e-4,-0.08887 -0.009,-0.08841 -0.017,-0.08724 -0.0247,-0.08538 -0.0322,-0.08285 -0.0394,-0.07967 -0.0463,-0.07586 -0.0529,-0.07144 -0.059,-0.06646 -0.0647,-0.06096 -0.0698,-0.05498 -0.0745,-0.04856 -0.0785,-0.04175 -0.0819,-0.03462 -0.0846,-0.02722 -0.0867,-0.01959 -0.0881,-0.01182 -0.0888,-0.004"
         id="path250" />
      <path
         d="m 109.5,40.863613 v 11.4"
         id="path251" />
      <path
         d="m 109.5,40.863613 0.0888,-0.004 0.0881,-0.01182 0.0867,-0.0196 0.0846,-0.02722 0.0819,-0.03462 0.0785,-0.04175 0.0745,-0.04856 0.0698,-0.05498 0.0647,-0.06096 0.059,-0.06646 0.0529,-0.07144 0.0463,-0.07586 0.0394,-0.07967 0.0322,-0.08285 0.0247,-0.08538 0.017,-0.08724 0.009,-0.08841 0.001,-0.08887 -0.007,-0.08864 -0.0144,-0.0877 -0.0222,-0.08608 -0.0297,-0.08377 -0.037,-0.0808 -0.0441,-0.07719 -0.0508,-0.07298 -0.057,-0.06818 -0.0628,-0.06285 -0.0682,-0.05702 -0.073,-0.05074 -0.0772,-0.04406 -0.0808,-0.03703 -0.0838,-0.02971 -0.0861,-0.02215 -0.0877,-0.01443 -0.0886,-0.0066 -0.0889,0.0013 -0.0884,0.0092 -0.0872,0.01702 -0.0854,0.0247 -0.0829,0.03218 -0.0797,0.03941 -0.0759,0.04633 -0.0714,0.05288 -0.0665,0.05902 -0.061,0.06468 -0.055,0.06984 -0.0486,0.07445 -0.0418,0.07847 -0.0346,0.08186 -0.0272,0.08461 -0.0196,0.0867 -0.0118,0.08809 -0.004,0.0888"
         id="path252" />
      <path
         d="m -108.5,39.863613 h 217"
         id="path253" />
      <path
         d="M 60.803848,35.863613 H 71.196152"
         id="path254" />
      <path
         d="m 71.196152,35.863613 v -4.3"
         id="path255" />
      <path
         d="M 71.196152,31.563613 66,28.563613"
         id="path256" />
      <path
         d="m 66,28.563613 -5.196152,3"
         id="path257" />
      <path
         d="m 60.803848,31.563613 v 4.3"
         id="path258" />
      <path
         d="M 72.803848,35.863613 H 83.196152"
         id="path259" />
      <path
         d="m 83.196152,35.863613 v -4.3"
         id="path260" />
      <path
         d="M 83.196152,31.563613 78,28.563613"
         id="path261" />
      <path
         d="m 78,28.563613 -5.196152,3"
         id="path262" />
      <path
         d="m 72.803848,31.563613 v 4.3"
         id="path263" />
      <path
         d="M 84.803848,35.863613 H 95.196152"
         id="path264" />
      <path
         d="m 95.196152,35.863613 v -4.3"
         id="path265" />
      <path
         d="M 95.196152,31.563613 90,28.563613"
         id="path266" />
      <path
         d="m 90,28.563613 -5.196152,3"
         id="path267" />
      <path
         d="m 84.803848,31.563613 v 4.3"
         id="path268" />
      <path
         d="M 96.803848,35.863613 H 107.19615"
         id="path269" />
      <path
         d="m 107.19615,35.863613 v -4.3"
         id="path270" />
      <path
         d="m 107.19615,31.563613 -5.19615,-3"
         id="path271" />
      <path
         d="m 102,28.563613 -5.196152,3"
         id="path272" />
      <path
         d="m 96.803848,31.563613 v 4.3"
         id="path273" />
      <path
         d="m -113.19615,-46.436387 5.19615,3"
         id="path274" />
      <path
         d="m -108,-43.436387 5.19615,-3"
         id="path275" />
      <path
         d="m -102.80385,-46.436387 v -6"
         id="path276" />
      <path
         d="m -102.80385,-52.436387 -5.19615,-3"
         id="path277" />
      <path
         d="m -108,-55.436387 -5.19615,3"
         id="path278" />
      <path
         d="m -113.19615,-52.436387 v 6"
         id="path279" />
      <path
         d="m -101.19615,-46.436387 5.19615,3"
         id="path280" />
      <path
         d="m -96,-43.436387 5.196152,-3"
         id="path281" />
      <path
         d="m -90.803848,-46.436387 v -6"
         id="path282" />
      <path
         d="m -90.803848,-52.436387 -5.196152,-3"
         id="path283" />
      <path
         d="m -96,-55.436387 -5.19615,3"
         id="path284" />
      <path
         d="m -101.19615,-52.436387 v 6"
         id="path285" />
      <path
         d="m -119.19615,-34.436387 5.19615,3"
         id="path286" />
      <path
         d="m -114,-31.436387 5.19615,-3"
         id="path287" />
      <path
         d="m -108.80385,-34.436387 v -6"
         id="path288" />
      <path
         d="m -108.80385,-40.436387 -5.19615,-3"
         id="path289" />
      <path
         d="m -114,-43.436387 -5.19615,3"
         id="path290" />
      <path
         d="m -119.19615,-40.436387 v 6"
         id="path291" />
      <path
         d="m -107.19615,-34.436387 5.19615,3"
         id="path292" />
      <path
         d="m -102,-31.436387 5.196152,-3"
         id="path293" />
      <path
         d="m -96.803848,-34.436387 v -6"
         id="path294" />
      <path
         d="m -96.803848,-40.436387 -5.196152,-3"
         id="path295" />
      <path
         d="m -102,-43.436387 -5.19615,3"
         id="path296" />
      <path
         d="m -107.19615,-40.436387 v 6"
         id="path297" />
      <path
         d="m -95.196152,-34.436387 5.196152,3"
         id="path298" />
      <path
         d="m -90,-31.436387 5.196152,-3"
         id="path299" />
      <path
         d="m -84.803848,-34.436387 v -6"
         id="path300" />
      <path
         d="m -84.803848,-40.436387 -5.196152,-3"
         id="path301" />
      <path
         d="m -90,-43.436387 -5.196152,3"
         id="path302" />
      <path
         d="m -95.196152,-40.436387 v 6"
         id="path303" />
      <path
         d="m -113.19615,-22.436387 5.19615,3"
         id="path304" />
      <path
         d="m -108,-19.436387 5.19615,-3"
         id="path305" />
      <path
         d="m -102.80385,-22.436387 v -6"
         id="path306" />
      <path
         d="m -102.80385,-28.436387 -5.19615,-3"
         id="path307" />
      <path
         d="m -108,-31.436387 -5.19615,3"
         id="path308" />
      <path
         d="m -113.19615,-28.436387 v 6"
         id="path309" />
      <path
         d="m -101.19615,-22.436387 5.19615,3"
         id="path310" />
      <path
         d="m -96,-19.436387 5.196152,-3"
         id="path311" />
      <path
         d="m -90.803848,-22.436387 v -6"
         id="path312" />
      <path
         d="m -90.803848,-28.436387 -5.196152,-3"
         id="path313" />
      <path
         d="m -96,-31.436387 -5.19615,3"
         id="path314" />
      <path
         d="m -101.19615,-28.436387 v 6"
         id="path315" />
      <path
         d="m -89.196152,-22.436387 5.196152,3"
         id="path316" />
      <path
         d="m -84,-19.436387 5.196152,-3"
         id="path317" />
      <path
         d="m -78.803848,-22.436387 v -6"
         id="path318" />
      <path
         d="m -78.803848,-28.436387 -5.196152,-3"
         id="path319" />
      <path
         d="m -84,-31.436387 -5.196152,3"
         id="path320" />
      <path
         d="m -89.196152,-28.436387 v 6"
         id="path321" />
      <path
         d="M -107.19615,-10.436387 -102,-7.4363868"
         id="path322" />
      <path
         d="m -102,-7.4363868 5.196152,-3.0000002"
         id="path323" />
      <path
         d="m -96.803848,-10.436387 v -6"
         id="path324" />
      <path
         d="m -96.803848,-16.436387 -5.196152,-3"
         id="path325" />
      <path
         d="m -102,-19.436387 -5.19615,3"
         id="path326" />
      <path
         d="m -107.19615,-16.436387 v 6"
         id="path327" />
      <path
         d="M -95.196152,-10.436387 -90,-7.4363868"
         id="path328" />
      <path
         d="m -90,-7.4363868 5.196152,-3.0000002"
         id="path329" />
      <path
         d="m -84.803848,-10.436387 v -6"
         id="path330" />
      <path
         d="m -84.803848,-16.436387 -5.196152,-3"
         id="path331" />
      <path
         d="m -90,-19.436387 -5.196152,3"
         id="path332" />
      <path
         d="m -95.196152,-16.436387 v 6"
         id="path333" />
      <path
         d="m -113.19615,1.5636132 5.19615,3"
         id="path334" />
      <path
         d="m -108,4.5636132 5.19615,-3"
         id="path335" />
      <path
         d="m -102.80385,1.5636132 v -6"
         id="path336" />
      <path
         d="m -102.80385,-4.4363868 -5.19615,-3"
         id="path337" />
      <path
         d="m -108,-7.4363868 -5.19615,3"
         id="path338" />
      <path
         d="m -113.19615,-4.4363868 v 6"
         id="path339" />
      <path
         d="m -101.19615,1.5636132 5.19615,3"
         id="path340" />
      <path
         d="m -96,4.5636132 5.196152,-3"
         id="path341" />
      <path
         d="m -90.803848,1.5636132 v -6"
         id="path342" />
      <path
         d="m -90.803848,-4.4363868 -5.196152,-3"
         id="path343" />
      <path
         d="m -96,-7.4363868 -5.19615,3"
         id="path344" />
      <path
         d="m -101.19615,-4.4363868 v 6"
         id="path345" />
      <path
         d="M -83.196152,-10.436387 -78,-7.4363868"
         id="path346" />
      <path
         d="m -78,-7.4363868 5.196152,-3.0000002"
         id="path347" />
      <path
         d="m -72.803848,-10.436387 v -6"
         id="path348" />
      <path
         d="m -72.803848,-16.436387 -5.196152,-3"
         id="path349" />
      <path
         d="m -78,-19.436387 -5.196152,3"
         id="path350" />
      <path
         d="m -83.196152,-16.436387 v 6"
         id="path351" />
      <path
         d="m -89.196152,1.5636132 5.196152,3"
         id="path352" />
      <path
         d="m -84,4.5636132 5.196152,-3"
         id="path353" />
      <path
         d="m -78.803848,1.5636132 v -6"
         id="path354" />
      <path
         d="m -78.803848,-4.4363868 -5.196152,-3"
         id="path355" />
      <path
         d="m -84,-7.4363868 -5.196152,3"
         id="path356" />
      <path
         d="m -89.196152,-4.4363868 v 6"
         id="path357" />
      <path
         d="m 90.803848,-46.436387 5.196152,3"
         id="path358" />
      <path
         d="m 96,-43.436387 5.19615,-3"
         id="path359" />
      <path
         d="m 101.19615,-46.436387 v -6"
         id="path360" />
      <path
         d="m 101.19615,-52.436387 -5.19615,-3"
         id="path361" />
      <path
         d="m 96,-55.436387 -5.196152,3"
         id="path362" />
      <path
         d="m 90.803848,-52.436387 v 6"
         id="path363" />
      <path
         d="m 102.80385,-46.436387 5.19615,3"
         id="path364" />
      <path
         d="m 108,-43.436387 5.19615,-3"
         id="path365" />
      <path
         d="m 113.19615,-46.436387 v -6"
         id="path366" />
      <path
         d="m 113.19615,-52.436387 -5.19615,-3"
         id="path367" />
      <path
         d="m 108,-55.436387 -5.19615,3"
         id="path368" />
      <path
         d="m 102.80385,-52.436387 v 6"
         id="path369" />
      <path
         d="m 84.803848,-34.436387 5.196152,3"
         id="path370" />
      <path
         d="m 90,-31.436387 5.196152,-3"
         id="path371" />
      <path
         d="m 95.196152,-34.436387 v -6"
         id="path372" />
      <path
         d="m 95.196152,-40.436387 -5.196152,-3"
         id="path373" />
      <path
         d="m 90,-43.436387 -5.196152,3"
         id="path374" />
      <path
         d="m 84.803848,-40.436387 v 6"
         id="path375" />
      <path
         d="m 96.803848,-34.436387 5.196152,3"
         id="path376" />
      <path
         d="m 102,-31.436387 5.19615,-3"
         id="path377" />
      <path
         d="m 107.19615,-34.436387 v -6"
         id="path378" />
      <path
         d="m 107.19615,-40.436387 -5.19615,-3"
         id="path379" />
      <path
         d="m 102,-43.436387 -5.196152,3"
         id="path380" />
      <path
         d="m 96.803848,-40.436387 v 6"
         id="path381" />
      <path
         d="m 108.80385,-34.436387 5.19615,3"
         id="path382" />
      <path
         d="m 114,-31.436387 5.19615,-3"
         id="path383" />
      <path
         d="m 119.19615,-34.436387 v -6"
         id="path384" />
      <path
         d="m 119.19615,-40.436387 -5.19615,-3"
         id="path385" />
      <path
         d="m 114,-43.436387 -5.19615,3"
         id="path386" />
      <path
         d="m 108.80385,-40.436387 v 6"
         id="path387" />
      <path
         d="m 78.803848,-22.436387 5.196152,3"
         id="path388" />
      <path
         d="m 84,-19.436387 5.196152,-3"
         id="path389" />
      <path
         d="m 89.196152,-22.436387 v -6"
         id="path390" />
      <path
         d="m 89.196152,-28.436387 -5.196152,-3"
         id="path391" />
      <path
         d="m 84,-31.436387 -5.196152,3"
         id="path392" />
      <path
         d="m 78.803848,-28.436387 v 6"
         id="path393" />
      <path
         d="m 90.803848,-22.436387 5.196152,3"
         id="path394" />
      <path
         d="m 96,-19.436387 5.19615,-3"
         id="path395" />
      <path
         d="m 101.19615,-22.436387 v -6"
         id="path396" />
      <path
         d="m 101.19615,-28.436387 -5.19615,-3"
         id="path397" />
      <path
         d="m 96,-31.436387 -5.196152,3"
         id="path398" />
      <path
         d="m 90.803848,-28.436387 v 6"
         id="path399" />
      <path
         d="m 102.80385,-22.436387 5.19615,3"
         id="path400" />
      <path
         d="m 108,-19.436387 5.19615,-3"
         id="path401" />
      <path
         d="m 113.19615,-22.436387 v -6"
         id="path402" />
      <path
         d="m 113.19615,-28.436387 -5.19615,-3"
         id="path403" />
      <path
         d="m 108,-31.436387 -5.19615,3"
         id="path404" />
      <path
         d="m 102.80385,-28.436387 v 6"
         id="path405" />
      <path
         d="M 72.803848,-10.436387 78,-7.4363868"
         id="path406" />
      <path
         d="m 78,-7.4363868 5.196152,-3.0000002"
         id="path407" />
      <path
         d="m 83.196152,-10.436387 v -6"
         id="path408" />
      <path
         d="m 83.196152,-16.436387 -5.196152,-3"
         id="path409" />
      <path
         d="m 78,-19.436387 -5.196152,3"
         id="path410" />
      <path
         d="m 72.803848,-16.436387 v 6"
         id="path411" />
      <path
         d="m 78.803848,1.5636132 5.196152,3"
         id="path412" />
      <path
         d="m 84,4.5636132 5.196152,-3"
         id="path413" />
      <path
         d="m 89.196152,1.5636132 v -6"
         id="path414" />
      <path
         d="m 89.196152,-4.4363868 -5.196152,-3"
         id="path415" />
      <path
         d="m 84,-7.4363868 -5.196152,3"
         id="path416" />
      <path
         d="m 78.803848,-4.4363868 v 6"
         id="path417" />
      <path
         d="M 84.803848,-10.436387 90,-7.4363868"
         id="path418" />
      <path
         d="m 90,-7.4363868 5.196152,-3.0000002"
         id="path419" />
      <path
         d="m 95.196152,-10.436387 v -6"
         id="path420" />
      <path
         d="m 95.196152,-16.436387 -5.196152,-3"
         id="path421" />
      <path
         d="m 90,-19.436387 -5.196152,3"
         id="path422" />
      <path
         d="m 84.803848,-16.436387 v 6"
         id="path423" />
      <path
         d="M 96.803848,-10.436387 102,-7.4363868"
         id="path424" />
      <path
         d="m 102,-7.4363868 5.19615,-3.0000002"
         id="path425" />
      <path
         d="m 107.19615,-10.436387 v -6"
         id="path426" />
      <path
         d="m 107.19615,-16.436387 -5.19615,-3"
         id="path427" />
      <path
         d="m 102,-19.436387 -5.196152,3"
         id="path428" />
      <path
         d="m 96.803848,-16.436387 v 6"
         id="path429" />
      <path
         d="m 90.803848,1.5636132 5.196152,3"
         id="path430" />
      <path
         d="m 96,4.5636132 5.19615,-3"
         id="path431" />
      <path
         d="m 101.19615,1.5636132 v -6"
         id="path432" />
      <path
         d="m 101.19615,-4.4363868 -5.19615,-3"
         id="path433" />
      <path
         d="m 96,-7.4363868 -5.196152,3"
         id="path434" />
      <path
         d="m 90.803848,-4.4363868 v 6"
         id="path435" />
      <path
         d="m 102.80385,1.5636132 5.19615,3"
         id="path436" />
      <path
         d="m 108,4.5636132 5.19615,-3"
         id="path437" />
      <path
         d="m 113.19615,1.5636132 v -6"
         id="path438" />
      <path
         d="m 113.19615,-4.4363868 -5.19615,-3"
         id="path439" />
      <path
         d="m 108,-7.4363868 -5.19615,3"
         id="path440" />
      <path
         d="m 102.80385,-4.4363868 v 6"
         id="path441" />
      <path
         d="m -107.19615,13.563613 5.19615,3"
         id="path442" />
      <path
         d="m -102,16.563613 5.196152,-3"
         id="path443" />
      <path
         d="M -96.803848,13.563613 V 7.5636132"
         id="path444" />
      <path
         d="m -96.803848,7.5636132 -5.196152,-3"
         id="path445" />
      <path
         d="m -102,4.5636132 -5.19615,3"
         id="path446" />
      <path
         d="M -107.19615,7.5636132 V 13.563613"
         id="path447" />
      <path
         d="m -95.196152,13.563613 5.196152,3"
         id="path448" />
      <path
         d="m -90,16.563613 5.196152,-3"
         id="path449" />
      <path
         d="M -84.803848,13.563613 V 7.5636132"
         id="path450" />
      <path
         d="m -84.803848,7.5636132 -5.196152,-3"
         id="path451" />
      <path
         d="m -90,4.5636132 -5.196152,3"
         id="path452" />
      <path
         d="M -95.196152,7.5636132 V 13.563613"
         id="path453" />
      <path
         d="m -83.196152,13.563613 5.196152,3"
         id="path454" />
      <path
         d="m -78,16.563613 5.196152,-3"
         id="path455" />
      <path
         d="M -72.803848,13.563613 V 7.5636132"
         id="path456" />
      <path
         d="m -72.803848,7.5636132 -5.196152,-3"
         id="path457" />
      <path
         d="m -78,4.5636132 -5.196152,3"
         id="path458" />
      <path
         d="M -83.196152,7.5636132 V 13.563613"
         id="path459" />
      <path
         d="m -113.19615,25.563613 5.19615,3"
         id="path460" />
      <path
         d="m -108,28.563613 5.19615,-3"
         id="path461" />
      <path
         d="m -102.80385,25.563613 v -6"
         id="path462" />
      <path
         d="m -102.80385,19.563613 -5.19615,-3"
         id="path463" />
      <path
         d="m -108,16.563613 -5.19615,3"
         id="path464" />
      <path
         d="m -113.19615,19.563613 v 6"
         id="path465" />
      <path
         d="m -101.19615,25.563613 5.19615,3"
         id="path466" />
      <path
         d="m -96,28.563613 5.196152,-3"
         id="path467" />
      <path
         d="m -90.803848,25.563613 v -6"
         id="path468" />
      <path
         d="m -90.803848,19.563613 -5.196152,-3"
         id="path469" />
      <path
         d="m -96,16.563613 -5.19615,3"
         id="path470" />
      <path
         d="m -101.19615,19.563613 v 6"
         id="path471" />
      <path
         d="m -89.196152,25.563613 5.196152,3"
         id="path472" />
      <path
         d="m -84,28.563613 5.196152,-3"
         id="path473" />
      <path
         d="m -78.803848,25.563613 v -6"
         id="path474" />
      <path
         d="m -78.803848,19.563613 -5.196152,-3"
         id="path475" />
      <path
         d="m -84,16.563613 -5.196152,3"
         id="path476" />
      <path
         d="m -89.196152,19.563613 v 6"
         id="path477" />
      <path
         d="m -77.196152,25.563613 5.196152,3"
         id="path478" />
      <path
         d="m -72,28.563613 5.196152,-3"
         id="path479" />
      <path
         d="m -66.803848,25.563613 v -6"
         id="path480" />
      <path
         d="m -66.803848,19.563613 -5.196152,-3"
         id="path481" />
      <path
         d="m -72,16.563613 -5.196152,3"
         id="path482" />
      <path
         d="m -77.196152,19.563613 v 6"
         id="path483" />
      <path
         d="m -65.196152,25.563613 5.196152,3"
         id="path484" />
      <path
         d="m -60,28.563613 5.196152,-3"
         id="path485" />
      <path
         d="m -54.803848,25.563613 v -6"
         id="path486" />
      <path
         d="m -54.803848,19.563613 -5.196152,-3"
         id="path487" />
      <path
         d="m -60,16.563613 -5.196152,3"
         id="path488" />
      <path
         d="m -65.196152,19.563613 v 6"
         id="path489" />
      <path
         d="m -107.19615,35.863613 h 10.392302"
         id="path490" />
      <path
         d="m -96.803848,35.863613 v -4.3"
         id="path491" />
      <path
         d="m -96.803848,31.563613 -5.196152,-3"
         id="path492" />
      <path
         d="m -102,28.563613 -5.19615,3"
         id="path493" />
      <path
         d="m -107.19615,31.563613 v 4.3"
         id="path494" />
      <path
         d="m -95.196152,35.863613 h 10.392304"
         id="path495" />
      <path
         d="m -84.803848,35.863613 v -4.3"
         id="path496" />
      <path
         d="m -84.803848,31.563613 -5.196152,-3"
         id="path497" />
      <path
         d="m -90,28.563613 -5.196152,3"
         id="path498" />
      <path
         d="m -95.196152,31.563613 v 4.3"
         id="path499" />
      <path
         d="m -83.196152,35.863613 h 10.392304"
         id="path500" />
      <path
         d="m -72.803848,35.863613 v -4.3"
         id="path501" />
      <path
         d="m -72.803848,31.563613 -5.196152,-3"
         id="path502" />
      <path
         d="m -78,28.563613 -5.196152,3"
         id="path503" />
      <path
         d="m -83.196152,31.563613 v 4.3"
         id="path504" />
      <path
         d="m -71.196152,35.863613 h 10.392304"
         id="path505" />
      <path
         d="m -60.803848,35.863613 v -4.3"
         id="path506" />
      <path
         d="m -60.803848,31.563613 -5.196152,-3"
         id="path507" />
      <path
         d="m -66,28.563613 -5.196152,3"
         id="path508" />
      <path
         d="m -71.196152,31.563613 v 4.3"
         id="path509" />
      <path
         d="m -59.196152,35.863613 h 10.392304"
         id="path510" />
      <path
         d="m -48.803848,35.863613 v -4.3"
         id="path511" />
      <path
         d="m -48.803848,31.563613 -5.196152,-3"
         id="path512" />
      <path
         d="m -54,28.563613 -5.196152,3"
         id="path513" />
      <path
         d="m -59.196152,31.563613 v 4.3"
         id="path514" />
      <path
         d="m -47.196152,35.863613 h 10.392304"
         id="path515" />
      <path
         d="m -36.803848,35.863613 v -4.3"
         id="path516" />
      <path
         d="m -36.803848,31.563613 -5.196152,-3"
         id="path517" />
      <path
         d="m -42,28.563613 -5.196152,3"
         id="path518" />
      <path
         d="m -47.196152,31.563613 v 4.3"
         id="path519" />
      <path
         d="m -35.196152,35.863613 h 10.392304"
         id="path520" />
      <path
         d="m -24.803848,35.863613 v -4.3"
         id="path521" />
      <path
         d="m -24.803848,31.563613 -5.196152,-3"
         id="path522" />
      <path
         d="m -30,28.563613 -5.196152,3"
         id="path523" />
      <path
         d="m -35.196152,31.563613 v 4.3"
         id="path524" />
      <path
         d="m -23.196152,35.863613 h 10.392304"
         id="path525" />
      <path
         d="m -12.803848,35.863613 v -4.3"
         id="path526" />
      <path
         d="m -12.803848,31.563613 -5.196152,-3"
         id="path527" />
      <path
         d="m -18,28.563613 -5.196152,3"
         id="path528" />
      <path
         d="m -23.196152,31.563613 v 4.3"
         id="path529" />
      <path
         d="M -11.196152,35.863613 H -0.80384758"
         id="path530" />
      <path
         d="m -0.80384758,35.863613 v -4.3"
         id="path531" />
      <path
         d="M -0.80384758,31.563613 -6,28.563613"
         id="path532" />
      <path
         d="m -6,28.563613 -5.196152,3"
         id="path533" />
      <path
         d="m -11.196152,31.563613 v 4.3"
         id="path534" />
      <path
         d="m 72.803848,13.563613 5.196152,3"
         id="path535" />
      <path
         d="m 78,16.563613 5.196152,-3"
         id="path536" />
      <path
         d="M 83.196152,13.563613 V 7.5636132"
         id="path537" />
      <path
         d="M 83.196152,7.5636132 78,4.5636132"
         id="path538" />
      <path
         d="m 78,4.5636132 -5.196152,3"
         id="path539" />
      <path
         d="M 72.803848,7.5636132 V 13.563613"
         id="path540" />
      <path
         d="m 84.803848,13.563613 5.196152,3"
         id="path541" />
      <path
         d="m 90,16.563613 5.196152,-3"
         id="path542" />
      <path
         d="M 95.196152,13.563613 V 7.5636132"
         id="path543" />
      <path
         d="M 95.196152,7.5636132 90,4.5636132"
         id="path544" />
      <path
         d="m 90,4.5636132 -5.196152,3"
         id="path545" />
      <path
         d="M 84.803848,7.5636132 V 13.563613"
         id="path546" />
      <path
         d="m 96.803848,13.563613 5.196152,3"
         id="path547" />
      <path
         d="m 102,16.563613 5.19615,-3"
         id="path548" />
      <path
         d="M 107.19615,13.563613 V 7.5636132"
         id="path549" />
      <path
         d="m 107.19615,7.5636132 -5.19615,-3"
         id="path550" />
      <path
         d="m 102,4.5636132 -5.196152,3"
         id="path551" />
      <path
         d="M 96.803848,7.5636132 V 13.563613"
         id="path552" />
      <path
         d="m 54.803848,25.563613 5.196152,3"
         id="path553" />
      <path
         d="m 60,28.563613 5.196152,-3"
         id="path554" />
      <path
         d="m 65.196152,25.563613 v -6"
         id="path555" />
      <path
         d="M 65.196152,19.563613 60,16.563613"
         id="path556" />
      <path
         d="m 60,16.563613 -5.196152,3"
         id="path557" />
      <path
         d="m 54.803848,19.563613 v 6"
         id="path558" />
      <path
         d="M 77.196152,19.563613 72,16.563613"
         id="path559" />
      <path
         d="m 72,16.563613 -5.196152,3"
         id="path560" />
      <path
         d="m 66.803848,19.563613 v 6"
         id="path561" />
      <path
         d="m 66.803848,25.563613 5.196152,3"
         id="path562" />
      <path
         d="m 72,28.563613 5.196152,-3"
         id="path563" />
      <path
         d="m 77.196152,25.563613 v -6"
         id="path564" />
      <path
         d="M 89.196152,19.563613 84,16.563613"
         id="path565" />
      <path
         d="m 84,16.563613 -5.196152,3"
         id="path566" />
      <path
         d="m 78.803848,19.563613 v 6"
         id="path567" />
      <path
         d="m 78.803848,25.563613 5.196152,3"
         id="path568" />
      <path
         d="m 84,28.563613 5.196152,-3"
         id="path569" />
      <path
         d="m 89.196152,25.563613 v -6"
         id="path570" />
      <path
         d="m 101.19615,19.563613 -5.19615,-3"
         id="path571" />
      <path
         d="m 96,16.563613 -5.196152,3"
         id="path572" />
      <path
         d="m 90.803848,19.563613 v 6"
         id="path573" />
      <path
         d="m 90.803848,25.563613 5.196152,3"
         id="path574" />
      <path
         d="m 96,28.563613 5.19615,-3"
         id="path575" />
      <path
         d="m 101.19615,25.563613 v -6"
         id="path576" />
      <path
         d="m 113.19615,19.563613 -5.19615,-3"
         id="path577" />
      <path
         d="m 108,16.563613 -5.19615,3"
         id="path578" />
      <path
         d="m 102.80385,19.563613 v 6"
         id="path579" />
      <path
         d="m 102.80385,25.563613 5.19615,3"
         id="path580" />
      <path
         d="m 108,28.563613 5.19615,-3"
         id="path581" />
      <path
         d="m 113.19615,25.563613 v -6"
         id="path582" />
      <path
         d="M 0.80384758,35.863613 H 11.196152"
         id="path583" />
      <path
         d="m 11.196152,35.863613 v -4.3"
         id="path584" />
      <path
         d="M 11.196152,31.563613 6,28.563613"
         id="path585" />
      <path
         d="m 6,28.563613 -5.19615242,3"
         id="path586" />
      <path
         d="m 0.80384758,31.563613 v 4.3"
         id="path587" />
    </g>
  </g>
</svg>
