<?xml version="1.0" encoding="UTF-8" standalone="no"?>
<!-- Created with Inkscape (http://www.inkscape.org/) -->

<svg
   width="730"
   height="300"
   viewBox="0 0 193.14583 79.375002"
   version="1.1"
   id="svg1"
   sodipodi:docname="kron-product-matrix-simplified.svg"
   inkscape:version="1.4.4 (dcaf3e7d9e, 2026-05-05)"
   xmlns:inkscape="http://www.inkscape.org/namespaces/inkscape"
   xmlns:sodipodi="http://sodipodi.sourceforge.net/DTD/sodipodi-0.dtd"
   xmlns="http://www.w3.org/2000/svg"
   xmlns:svg="http://www.w3.org/2000/svg">
  <sodipodi:namedview
     id="namedview1"
     pagecolor="#ffffff"
     bordercolor="#000000"
     borderopacity="0.25"
     inkscape:showpageshadow="2"
     inkscape:pageopacity="0.0"
     inkscape:pagecheckerboard="0"
     inkscape:deskcolor="#d1d1d1"
     inkscape:document-units="mm"
     inkscape:zoom="1.678367"
     inkscape:cx="386.38748"
     inkscape:cy="267.52194"
     inkscape:window-width="2560"
     inkscape:window-height="1440"
     inkscape:window-x="0"
     inkscape:window-y="0"
     inkscape:window-maximized="1"
     inkscape:current-layer="layer1" />
  <defs
     id="defs1">
    <marker
       style="overflow:visible"
       id="marker28"
       refX="0"
       refY="0"
       orient="auto-start-reverse"
       inkscape:stockid="Wide arrow"
       markerWidth="1"
       markerHeight="1"
       viewBox="0 0 1 1"
       inkscape:isstock="true"
       inkscape:collect="always"
       preserveAspectRatio="xMidYMid">
      <path
         style="fill:none;stroke:context-stroke;stroke-width:1;stroke-linecap:butt"
         d="M 3,-3 0,0 3,3"
         transform="rotate(180,0.125,0)"
         sodipodi:nodetypes="ccc"
         id="path28" />
    </marker>
    <marker
       style="overflow:visible"
       id="marker27"
       refX="0"
       refY="0"
       orient="auto-start-reverse"
       inkscape:stockid="Wide arrow"
       markerWidth="1"
       markerHeight="1"
       viewBox="0 0 1 1"
       inkscape:isstock="true"
       inkscape:collect="always"
       preserveAspectRatio="xMidYMid">
      <path
         style="fill:none;stroke:context-stroke;stroke-width:1;stroke-linecap:butt"
         d="M 3,-3 0,0 3,3"
         transform="rotate(180,0.125,0)"
         sodipodi:nodetypes="ccc"
         id="path27" />
    </marker>
    <marker
       style="overflow:visible"
       id="marker26"
       refX="0"
       refY="0"
       orient="auto-start-reverse"
       inkscape:stockid="Wide arrow"
       markerWidth="1"
       markerHeight="1"
       viewBox="0 0 1 1"
       inkscape:isstock="true"
       inkscape:collect="always"
       preserveAspectRatio="xMidYMid">
      <path
         style="fill:none;stroke:context-stroke;stroke-width:1;stroke-linecap:butt"
         d="M 3,-3 0,0 3,3"
         transform="rotate(180,0.125,0)"
         sodipodi:nodetypes="ccc"
         id="path26" />
    </marker>
    <inkscape:path-effect
       effect="bspline"
       id="path-effect25"
       is_visible="true"
       lpeversion="1.3"
       weight="33.333333"
       steps="2"
       helper_size="0"
       apply_no_weight="true"
       apply_with_weight="true"
       only_selected="false"
       uniform="false" />
    <marker
       style="overflow:visible"
       id="ArrowWide"
       refX="0"
       refY="0"
       orient="auto-start-reverse"
       inkscape:stockid="Wide arrow"
       markerWidth="1"
       markerHeight="1"
       viewBox="0 0 1 1"
       inkscape:isstock="true"
       inkscape:collect="always"
       preserveAspectRatio="xMidYMid">
      <path
         style="fill:none;stroke:context-stroke;stroke-width:1;stroke-linecap:butt"
         d="M 3,-3 0,0 3,3"
         transform="rotate(180,0.125,0)"
         sodipodi:nodetypes="ccc"
         id="path24" />
    </marker>
    <inkscape:path-effect
       effect="bspline"
       id="path-effect24"
       is_visible="true"
       lpeversion="1.3"
       weight="33.333333"
       steps="2"
       helper_size="0"
       apply_no_weight="true"
       apply_with_weight="true"
       only_selected="false"
       uniform="false" />
    <inkscape:path-effect
       effect="spiro"
       id="path-effect23"
       is_visible="true"
       lpeversion="1" />
    <inkscape:path-effect
       effect="bspline"
       id="path-effect22"
       is_visible="true"
       lpeversion="1.3"
       weight="33.333333"
       steps="2"
       helper_size="0"
       apply_no_weight="true"
       apply_with_weight="true"
       only_selected="false"
       uniform="false" />
    <inkscape:path-effect
       effect="bspline"
       id="path-effect20"
       is_visible="true"
       lpeversion="1.3"
       weight="33.333333"
       steps="2"
       helper_size="0"
       apply_no_weight="true"
       apply_with_weight="true"
       only_selected="false"
       uniform="false" />
    <marker
       style="overflow:visible"
       id="marker26-7"
       refX="0"
       refY="0"
       orient="auto-start-reverse"
       inkscape:stockid="Wide arrow"
       markerWidth="1"
       markerHeight="1"
       viewBox="0 0 1 1"
       inkscape:isstock="true"
       inkscape:collect="always"
       preserveAspectRatio="xMidYMid">
      <path
         style="fill:none;stroke:context-stroke;stroke-width:1;stroke-linecap:butt"
         d="M 3,-3 0,0 3,3"
         transform="rotate(180,0.125,0)"
         sodipodi:nodetypes="ccc"
         id="path26-0" />
    </marker>
    <inkscape:path-effect
       effect="bspline"
       id="path-effect25-9"
       is_visible="true"
       lpeversion="1.3"
       weight="33.333333"
       steps="2"
       helper_size="0"
       apply_no_weight="true"
       apply_with_weight="true"
       only_selected="false"
       uniform="false" />
    <inkscape:path-effect
       effect="bspline"
       id="path-effect24-8"
       is_visible="true"
       lpeversion="1.3"
       weight="33.333333"
       steps="2"
       helper_size="0"
       apply_no_weight="true"
       apply_with_weight="true"
       only_selected="false"
       uniform="false" />
    <marker
       style="overflow:visible"
       id="marker27-9"
       refX="0"
       refY="0"
       orient="auto-start-reverse"
       inkscape:stockid="Wide arrow"
       markerWidth="1"
       markerHeight="1"
       viewBox="0 0 1 1"
       inkscape:isstock="true"
       inkscape:collect="always"
       preserveAspectRatio="xMidYMid">
      <path
         style="fill:none;stroke:context-stroke;stroke-width:1;stroke-linecap:butt"
         d="M 3,-3 0,0 3,3"
         transform="rotate(180,0.125,0)"
         sodipodi:nodetypes="ccc"
         id="path27-3" />
    </marker>
    <inkscape:path-effect
       effect="bspline"
       id="path-effect24-8-1"
       is_visible="true"
       lpeversion="1.3"
       weight="33.333333"
       steps="2"
       helper_size="0"
       apply_no_weight="true"
       apply_with_weight="true"
       only_selected="false"
       uniform="false" />
    <inkscape:path-effect
       effect="bspline"
       id="path-effect25-1"
       is_visible="true"
       lpeversion="1.3"
       weight="33.333333"
       steps="2"
       helper_size="0"
       apply_no_weight="true"
       apply_with_weight="true"
       only_selected="false"
       uniform="false" />
  </defs>
  <g
     inkscape:label="Layer 1"
     inkscape:groupmode="layer"
     id="layer1"
     transform="matrix(0.8343516,0,0,0.8343516,9.575868,-13.638168)">
    <g
       id="g28"
       style="fill:#ffffff;fill-opacity:1;stroke:#ffffff;stroke-width:0.119854;stroke-dasharray:none">
      <path
         id="path1"
         d="M 28.969086,64.46807 H 29.89405 V 41.422325 h 3.511733 V 40.49736 h -4.436697 z m 0,0"
         style="fill:#ffffff;fill-opacity:1;fill-rule:nonzero;stroke:#ffffff;stroke-width:0.119854;stroke-dasharray:none"
         aria-label="" />
      <path
         id="path2"
         d="m 28.969086,88.43878 h 4.436697 V 87.52949 H 29.89405 V 64.46807 h -0.924964 z m 0,0"
         style="fill:#ffffff;fill-opacity:1;fill-rule:nonzero;stroke:#ffffff;stroke-width:0.119854;stroke-dasharray:none"
         aria-label="" />
      <path
         id="path3"
         d="m 32.92982,46.950044 0.896206,-0.87629 c 1.324393,-1.16507 1.832243,-1.62313 1.832243,-2.469548 0,-0.965911 -0.766755,-1.643045 -1.802371,-1.643045 -0.955953,0 -1.57334,0.776712 -1.57334,1.53351 0,0.468017 0.418231,0.468017 0.448104,0.468017 0.139415,0 0.438145,-0.09958 0.438145,-0.448102 0,-0.219072 -0.159312,-0.438145 -0.448102,-0.438145 -0.06972,0 -0.08963,0 -0.109525,0.0098 0.189204,-0.54768 0.64726,-0.866332 1.135195,-0.866332 0.776712,0 1.135194,0.687091 1.135194,1.38414 0,0.677134 -0.418229,1.344311 -0.886248,1.872077 l -1.623142,1.81241 c -0.08963,0.08963 -0.08963,0.109549 -0.08963,0.308692 h 3.136722 l 0.238992,-1.473761 h -0.219072 c -0.03984,0.258905 -0.09958,0.627344 -0.179231,0.756798 -0.05974,0.06971 -0.617386,0.06971 -0.806586,0.06971 z m 15.516815,-2.061275 c 0,-0.677135 -0.03982,-1.354268 -0.338568,-1.981613 -0.388355,-0.816541 -1.085403,-0.945995 -1.433929,-0.945995 -0.50785,0 -1.135194,0.219072 -1.473761,1.005744 -0.278819,0.587513 -0.318652,1.244729 -0.318652,1.921864 0,0.637301 0.03982,1.394098 0.378399,2.041358 0.36844,0.687091 0.985827,0.856375 1.404057,0.856375 0.45806,0 1.095361,-0.179232 1.473761,-0.985827 0.268862,-0.587513 0.308693,-1.24473 0.308693,-1.911906 z m -1.782454,2.708534 c -0.32861,0 -0.83646,-0.209123 -0.985828,-1.025658 -0.08963,-0.507849 -0.08963,-1.284561 -0.08963,-1.782454 0,-0.547681 0,-1.105322 0.06971,-1.563382 0.159334,-1.005744 0.786669,-1.075447 1.005743,-1.075447 0.27882,0 0.836457,0.149364 0.995784,0.985827 0.07965,0.477975 0.07965,1.115278 0.07965,1.653002 0,0.637301 0,1.204901 -0.08962,1.752581 -0.129443,0.796627 -0.607429,1.055531 -0.985827,1.055531 z m 14.4812,-2.708534 c 0,-0.677135 -0.03983,-1.354268 -0.338566,-1.981613 -0.388358,-0.816541 -1.085407,-0.945995 -1.433933,-0.945995 -0.507847,0 -1.135194,0.219072 -1.47376,1.005744 -0.27882,0.587513 -0.318651,1.244729 -0.318651,1.921864 0,0.637301 0.03982,1.394098 0.378398,2.041358 0.36844,0.687091 0.985826,0.856375 1.404056,0.856375 0.45806,0 1.095365,-0.179232 1.473762,-0.985827 0.268861,-0.587513 0.308694,-1.24473 0.308694,-1.911906 z m -1.782456,2.708534 c -0.328607,0 -0.83646,-0.209123 -0.985826,-1.025658 -0.08963,-0.507849 -0.08963,-1.284561 -0.08963,-1.782454 0,-0.547681 0,-1.105322 0.06971,-1.563382 0.159336,-1.005744 0.78667,-1.075447 1.005742,-1.075447 0.278821,0 0.83646,0.149364 0.995786,0.985827 0.07965,0.477975 0.07965,1.115278 0.07965,1.653002 0,0.637301 0,1.204901 -0.08963,1.752581 -0.129443,0.796627 -0.607428,1.055531 -0.985828,1.055531 z m 0,0"
         style="fill:#ffffff;fill-opacity:1;fill-rule:nonzero;stroke:#ffffff;stroke-width:0.119854;stroke-dasharray:none"
         aria-label="200" />
      <path
         id="path4"
         d="m 75.527002,45.645566 c 0.149368,0 0.298736,0 0.298736,-0.169283 0,-0.169284 -0.14936,-0.169284 -0.298736,-0.169284 h -4.58061 c -0.139415,0 -0.288777,0 -0.288777,0.169284 0,0.169283 0.149364,0.169283 0.288777,0.169283 z m 0,0"
         style="fill:#ffffff;fill-opacity:1;fill-rule:nonzero;stroke:#ffffff;stroke-width:0.119854;stroke-dasharray:none"
         aria-label="−" />
      <path
         id="path5"
         d="m 79.024697,42.180235 c 0,-0.199151 0,-0.219071 -0.199152,-0.219071 -0.517806,0.537725 -1.264647,0.537725 -1.533508,0.537725 v 0.268862 c 0.169285,0 0.667174,0 1.10532,-0.219072 v 4.381453 c 0,0.298737 -0.02985,0.408272 -0.786667,0.408272 h -0.268861 v 0.258905 c 0.298736,-0.02987 1.025661,-0.02987 1.364223,-0.02987 0.33857,0 1.075445,0 1.374181,0.02987 v -0.258905 h -0.268861 c -0.76675,0 -0.786667,-0.09958 -0.786667,-0.408272 z m 17.386402,2.708534 c 0,-0.677135 -0.0398,-1.354268 -0.338571,-1.981613 -0.388354,-0.816541 -1.085403,-0.945995 -1.433923,-0.945995 -0.507856,0 -1.135196,0.219072 -1.473758,1.005744 -0.278828,0.587513 -0.318653,1.244729 -0.318653,1.921864 0,0.637301 0.0398,1.394098 0.378388,2.041358 0.368445,0.687091 0.985827,0.856375 1.404064,0.856375 0.458055,0 1.095362,-0.179232 1.473758,-0.985827 0.268869,-0.587513 0.308695,-1.24473 0.308695,-1.911906 z m -1.782453,2.708534 c -0.328611,0 -0.836467,-0.209123 -0.985827,-1.025658 -0.08967,-0.507849 -0.08967,-1.284561 -0.08967,-1.782454 0,-0.547681 0,-1.105322 0.06965,-1.563382 0.159334,-1.005744 0.786675,-1.075447 1.005752,-1.075447 0.278819,0 0.836451,0.149364 0.995777,0.985827 0.07961,0.477975 0.07961,1.115278 0.07961,1.653002 0,0.637301 0,1.204901 -0.08967,1.752581 -0.129443,0.796627 -0.607423,1.055531 -0.985835,1.055531 z m 21.068304,-2.708534 c 0,-0.677135 -0.0398,-1.354268 -0.33856,-1.981613 -0.38836,-0.816541 -1.08541,-0.945995 -1.43392,-0.945995 -0.50787,0 -1.1352,0.219072 -1.47377,1.005744 -0.27883,0.587513 -0.31865,1.244729 -0.31865,1.921864 0,0.637301 0.0398,1.394098 0.37839,2.041358 0.36845,0.687091 0.98583,0.856375 1.40406,0.856375 0.45806,0 1.09537,-0.179232 1.47377,-0.985827 0.26886,-0.587513 0.30868,-1.24473 0.30868,-1.911906 z m -1.78245,2.708534 c -0.3286,0 -0.83646,-0.209123 -0.98583,-1.025658 -0.0897,-0.507849 -0.0897,-1.284561 -0.0897,-1.782454 0,-0.547681 0,-1.105322 0.0696,-1.563382 0.15935,-1.005744 0.78668,-1.075447 1.00576,-1.075447 0.27882,0 0.83645,0.149364 0.99578,0.985827 0.0796,0.477975 0.0796,1.115278 0.0796,1.653002 0,0.637301 0,1.204901 -0.0897,1.752581 -0.12944,0.796627 -0.60742,1.055531 -0.98583,1.055531 z m 0,0"
         style="fill:#ffffff;fill-opacity:1;fill-rule:nonzero;stroke:#ffffff;stroke-width:0.119854;stroke-dasharray:none"
         aria-label="100" />
      <path
         id="path6"
         d="m 133.37462,45.645566 c 0.14937,0 0.29875,0 0.29875,-0.169283 0,-0.169284 -0.14937,-0.169284 -0.29875,-0.169284 h -4.5806 c -0.13941,0 -0.28878,0 -0.28878,0.169284 0,0.169283 0.14937,0.169283 0.28878,0.169283 z m 0,0"
         style="fill:#ffffff;fill-opacity:1;fill-rule:nonzero;stroke:#ffffff;stroke-width:0.119854;stroke-dasharray:none"
         aria-label="−" />
      <path
         id="path7"
         d="m 136.87233,42.180235 c 0,-0.199151 0,-0.219071 -0.19915,-0.219071 -0.51782,0.537725 -1.26465,0.537725 -1.53352,0.537725 v 0.268862 c 0.16929,0 0.66718,0 1.10533,-0.219072 v 4.381453 c 0,0.298737 -0.0298,0.408272 -0.78668,0.408272 h -0.26886 v 0.258905 c 0.29874,-0.02987 1.02566,-0.02987 1.36423,-0.02987 0.33857,0 1.07545,0 1.37418,0.02987 V 47.338404 H 137.659 c -0.76675,0 -0.78667,-0.09958 -0.78667,-0.408272 z m 17.38639,2.708534 c 0,-0.677135 -0.0398,-1.354268 -0.33856,-1.981613 -0.38836,-0.816541 -1.0854,-0.945995 -1.43392,-0.945995 -0.50786,0 -1.13521,0.219072 -1.47377,1.005744 -0.27881,0.587513 -0.31865,1.244729 -0.31865,1.921864 0,0.637301 0.0398,1.394098 0.37839,2.041358 0.36845,0.687091 0.98583,0.856375 1.40406,0.856375 0.45806,0 1.09537,-0.179232 1.47376,-0.985827 0.26887,-0.587513 0.30869,-1.24473 0.30869,-1.911906 z m -1.78245,2.708534 c -0.3286,0 -0.83646,-0.209123 -0.98583,-1.025658 -0.0897,-0.507849 -0.0897,-1.284561 -0.0897,-1.782454 0,-0.547681 0,-1.105322 0.0696,-1.563382 0.15933,-1.005744 0.78667,-1.075447 1.00575,-1.075447 0.27881,0 0.83645,0.149364 0.99578,0.985827 0.0797,0.477975 0.0797,1.115278 0.0797,1.653002 0,0.637301 0,1.204901 -0.0897,1.752581 -0.12944,0.796627 -0.60742,1.055531 -0.98582,1.055531 z m 21.06832,-2.708534 c 0,-0.677135 -0.0397,-1.354268 -0.33857,-1.981613 -0.38836,-0.816541 -1.08542,-0.945995 -1.43393,-0.945995 -0.50785,0 -1.1352,0.219072 -1.47376,1.005744 -0.27882,0.587513 -0.31865,1.244729 -0.31865,1.921864 0,0.637301 0.0397,1.394098 0.3784,2.041358 0.36845,0.687091 0.98582,0.856375 1.40406,0.856375 0.45804,0 1.09535,-0.179232 1.47374,-0.985827 0.26889,-0.587513 0.30871,-1.24473 0.30871,-1.911906 z m -1.78245,2.708534 c -0.32861,0 -0.83647,-0.209123 -0.98583,-1.025658 -0.0896,-0.507849 -0.0896,-1.284561 -0.0896,-1.782454 0,-0.547681 0,-1.105322 0.0696,-1.563382 0.15946,-1.005744 0.78666,-1.075447 1.00575,-1.075447 0.27881,0 0.83646,0.149364 0.99579,0.985827 0.0797,0.477975 0.0797,1.115278 0.0797,1.653002 0,0.637301 0,1.204901 -0.0896,1.752581 -0.12935,0.796627 -0.60743,1.055531 -0.98581,1.055531 z m 0,0"
         style="fill:#ffffff;fill-opacity:1;fill-rule:nonzero;stroke:#ffffff;stroke-width:0.119854;stroke-dasharray:none"
         aria-label="100" />
      <path
         id="path8"
         d="m 35.847457,64.483016 c 0,-0.677133 -0.03983,-1.354268 -0.338566,-1.981614 -0.388355,-0.81655 -1.085405,-0.945994 -1.433929,-0.945994 -0.507851,0 -1.135194,0.218951 -1.473762,1.00573 -0.278822,0.58753 -0.318651,1.244745 -0.318651,1.921878 0,0.637295 0.03983,1.394085 0.378397,2.041351 0.368442,0.687082 0.985828,0.856365 1.404058,0.856365 0.458061,0 1.095363,-0.179207 1.47376,-0.985809 0.268864,-0.58753 0.308693,-1.244744 0.308693,-1.911907 z m -1.782453,2.708537 c -0.328608,0 -0.836459,-0.209075 -0.985828,-1.025674 -0.08963,-0.50785 -0.08963,-1.28456 -0.08963,-1.782438 0,-0.547691 0,-1.105329 0.06972,-1.563392 0.159336,-1.005753 0.78667,-1.075437 1.005742,-1.075437 0.278822,0 0.83646,0.149339 0.995785,0.985808 0.07965,0.477984 0.07965,1.115278 0.07965,1.653021 0,0.637294 0,1.20488 -0.08962,1.75257 -0.129445,0.79663 -0.607429,1.055542 -0.985827,1.055542 z m 11.663128,-0.647267 0.896205,-0.876285 c 1.324396,-1.165064 1.832245,-1.623127 1.832245,-2.469545 0,-0.965913 -0.766755,-1.643048 -1.80237,-1.643048 -0.955952,0 -1.573339,0.776711 -1.573339,1.5335 0,0.468011 0.418228,0.468011 0.448103,0.468011 0.139415,0 0.438146,-0.09948 0.438146,-0.448092 0,-0.219191 -0.159336,-0.438142 -0.448103,-0.438142 -0.06972,0 -0.08963,0 -0.109548,0.0096 0.189204,-0.547666 0.647261,-0.866338 1.135194,-0.866338 0.776713,0 1.135198,0.687107 1.135198,1.384161 0,0.677134 -0.41823,1.344296 -0.886251,1.872067 l -1.623128,1.812331 c -0.08963,0.0896 -0.08963,0.109595 -0.08963,0.308699 h 3.136722 l 0.238996,-1.473732 h -0.219071 c -0.03982,0.258888 -0.09958,0.627347 -0.179233,0.75679 -0.05974,0.06961 -0.617385,0.06961 -0.806586,0.06961 z m 15.516817,-2.06127 c 0,-0.677133 -0.03983,-1.354268 -0.338566,-1.981614 -0.388358,-0.81655 -1.085407,-0.945994 -1.433933,-0.945994 -0.507847,0 -1.135194,0.218951 -1.47376,1.00573 -0.27882,0.58753 -0.318651,1.244745 -0.318651,1.921878 0,0.637295 0.03982,1.394085 0.378398,2.041351 0.36844,0.687082 0.985826,0.856365 1.404056,0.856365 0.45806,0 1.095365,-0.179207 1.473762,-0.985809 0.268861,-0.58753 0.308694,-1.244744 0.308694,-1.911907 z m -1.782456,2.708537 c -0.328607,0 -0.83646,-0.209075 -0.985826,-1.025674 -0.08963,-0.50785 -0.08963,-1.28456 -0.08963,-1.782438 0,-0.547691 0,-1.105329 0.06971,-1.563392 0.159336,-1.005753 0.78667,-1.075437 1.005742,-1.075437 0.278821,0 0.83646,0.149339 0.995786,0.985808 0.07965,0.477984 0.07965,1.115278 0.07965,1.653021 0,0.637294 0,1.20488 -0.08963,1.75257 -0.129443,0.79663 -0.607428,1.055542 -0.985828,1.055542 z m 17.764802,-2.708537 c 0,-0.677133 -0.0398,-1.354268 -0.33857,-1.981614 -0.388355,-0.81655 -1.085404,-0.945994 -1.433932,-0.945994 -0.507847,0 -1.135188,0.218951 -1.473758,1.00573 -0.278819,0.58753 -0.318653,1.244745 -0.318653,1.921878 0,0.637295 0.0398,1.394085 0.378396,2.041351 0.368445,0.687082 0.985827,0.856365 1.404064,0.856365 0.458056,0 1.095362,-0.179207 1.473758,-0.985809 0.268861,-0.58753 0.308695,-1.244744 0.308695,-1.911907 z m -1.782453,2.708537 c -0.328611,0 -0.836458,-0.209075 -0.985835,-1.025674 -0.08962,-0.50785 -0.08962,-1.28456 -0.08962,-1.782438 0,-0.547691 0,-1.105329 0.06973,-1.563392 0.159335,-1.005753 0.786667,-1.075437 1.005744,-1.075437 0.27882,0 0.836459,0.149339 0.995786,0.985808 0.07965,0.477984 0.07965,1.115278 0.07965,1.653021 0,0.637294 0,1.20488 -0.08962,1.75257 -0.129444,0.79663 -0.607432,1.055542 -0.985828,1.055542 z m 0,0"
         style="fill:#ffffff;fill-opacity:1;fill-rule:nonzero;stroke:#ffffff;stroke-width:0.119854;stroke-dasharray:none"
         aria-label="0200" />
      <path
         id="path9"
         d="m 94.909941,65.239806 c 0.149369,0 0.298737,0 0.298737,-0.169332 0,-0.16933 -0.14936,-0.16933 -0.298737,-0.16933 h -4.580607 c -0.13941,0 -0.288778,0 -0.288778,0.16933 0,0.169332 0.149368,0.169332 0.288778,0.169332 z m 0,0"
         style="fill:#ffffff;fill-opacity:1;fill-rule:nonzero;stroke:#ffffff;stroke-width:0.119854;stroke-dasharray:none"
         aria-label="−" />
      <path
         id="path10"
         d="m 98.405153,61.77448 c 0,-0.1992 0,-0.218952 -0.19916,-0.218952 -0.517806,0.53772 -1.264639,0.53772 -1.533508,0.53772 v 0.268858 c 0.169293,0 0.667174,0 1.105328,-0.21895 v 4.381452 c 0,0.298727 -0.02985,0.408275 -0.786675,0.408275 h -0.268861 v 0.258911 c 0.298728,-0.02987 1.025653,-0.02987 1.364215,-0.02987 0.33857,0 1.075444,0 1.374184,0.02987 v -0.258911 h -0.26886 c -0.766754,0 -0.786663,-0.09948 -0.786663,-0.408275 z m 17.388887,2.708536 c 0,-0.677133 -0.0398,-1.354268 -0.33856,-1.981614 -0.38836,-0.81655 -1.08541,-0.945994 -1.43394,-0.945994 -0.50784,0 -1.13519,0.218951 -1.47376,1.00573 -0.27882,0.58753 -0.31865,1.244745 -0.31865,1.921878 0,0.637295 0.0398,1.394085 0.3784,2.041351 0.36845,0.687082 0.98583,0.856365 1.40405,0.856365 0.45807,0 1.09537,-0.179207 1.47376,-0.985809 0.26887,-0.58753 0.3087,-1.244744 0.3087,-1.911907 z m -1.78246,2.708537 c -0.3286,0 -0.83645,-0.209075 -0.98582,-1.025674 -0.0897,-0.50785 -0.0897,-1.28456 -0.0897,-1.782438 0,-0.547691 0,-1.105329 0.0697,-1.563392 0.15934,-1.005753 0.78668,-1.075437 1.00574,-1.075437 0.27882,0 0.83646,0.149339 0.99579,0.985808 0.0796,0.477984 0.0796,1.115278 0.0796,1.653021 0,0.637294 0,1.20488 -0.0897,1.75257 -0.12944,0.79663 -0.60744,1.055542 -0.98583,1.055542 z m 21.06583,-2.708537 c 0,-0.677133 -0.0398,-1.354268 -0.33857,-1.981614 -0.38835,-0.81655 -1.0854,-0.945994 -1.43392,-0.945994 -0.50786,0 -1.13521,0.218951 -1.47378,1.00573 -0.27881,0.58753 -0.31863,1.244745 -0.31863,1.921878 0,0.637295 0.0398,1.394085 0.37838,2.041351 0.36845,0.687082 0.98584,0.856365 1.40407,0.856365 0.45805,0 1.09536,-0.179207 1.47376,-0.985809 0.26887,-0.58753 0.30869,-1.244744 0.30869,-1.911907 z m -1.78245,2.708537 c -0.32861,0 -0.83647,-0.209075 -0.98583,-1.025674 -0.0897,-0.50785 -0.0897,-1.28456 -0.0897,-1.782438 0,-0.547691 0,-1.105329 0.0696,-1.563392 0.15934,-1.005753 0.78668,-1.075437 1.00575,-1.075437 0.27882,0 0.83645,0.149339 0.99578,0.985808 0.0796,0.477984 0.0796,1.115278 0.0796,1.653021 0,0.637294 0,1.20488 -0.0897,1.75257 -0.12944,0.79663 -0.60742,1.055542 -0.98583,1.055542 z m 0,0"
         style="fill:#ffffff;fill-opacity:1;fill-rule:nonzero;stroke:#ffffff;stroke-width:0.119854;stroke-dasharray:none"
         aria-label="100" />
      <path
         id="path11"
         d="m 152.75757,65.239806 c 0.14936,0 0.29873,0 0.29873,-0.169332 0,-0.16933 -0.14936,-0.16933 -0.29873,-0.16933 h -4.5806 c -0.13942,0 -0.28878,0 -0.28878,0.16933 0,0.169332 0.14936,0.169332 0.28878,0.169332 z m 0,0"
         style="fill:#ffffff;fill-opacity:1;fill-rule:nonzero;stroke:#ffffff;stroke-width:0.119854;stroke-dasharray:none"
         aria-label="−" />
      <path
         id="path12"
         d="m 156.25526,61.77448 c 0,-0.1992 0,-0.218952 -0.19915,-0.218952 -0.51781,0.53772 -1.26465,0.53772 -1.5335,0.53772 v 0.268858 c 0.16928,0 0.66717,0 1.10532,-0.21895 v 4.381452 c 0,0.298727 -0.0298,0.408275 -0.78668,0.408275 h -0.26886 v 0.258911 c 0.29874,-0.02987 1.02566,-0.02987 1.36423,-0.02987 0.33857,0 1.07544,0 1.37419,0.02987 v -0.258911 h -0.26887 c -0.76675,0 -0.78667,-0.09948 -0.78667,-0.408275 z m 17.38641,2.708536 c 0,-0.677133 -0.0397,-1.354268 -0.33857,-1.981614 -0.38835,-0.81655 -1.0854,-0.945994 -1.43392,-0.945994 -0.50784,0 -1.13519,0.218951 -1.47376,1.00573 -0.27884,0.58753 -0.31868,1.244745 -0.31868,1.921878 0,0.637295 0.0397,1.394085 0.37841,2.041351 0.36844,0.687082 0.98584,0.856365 1.40406,0.856365 0.45806,0 1.09535,-0.179207 1.47376,-0.985809 0.26887,-0.58753 0.3087,-1.244744 0.3087,-1.911907 z m -1.78246,2.708537 c -0.32859,0 -0.83644,-0.209075 -0.98583,-1.025674 -0.0896,-0.50785 -0.0896,-1.28456 -0.0896,-1.782438 0,-0.547691 0,-1.105329 0.0696,-1.563392 0.15922,-1.005753 0.78666,-1.075437 1.00572,-1.075437 0.27883,0 0.83648,0.149339 0.99578,0.985808 0.0797,0.477984 0.0797,1.115278 0.0797,1.653021 0,0.637294 0,1.20488 -0.0896,1.75257 -0.12935,0.79663 -0.60742,1.055542 -0.98582,1.055542 z m 0,0"
         style="fill:#ffffff;fill-opacity:1;fill-rule:nonzero;stroke:#ffffff;stroke-width:0.119854;stroke-dasharray:none"
         aria-label="10" />
      <path
         id="path13"
         d="m 35.747889,81.645626 c 0,-0.677134 -0.03983,-1.35427 -0.338566,-1.981616 -0.388355,-0.81655 -1.085405,-0.945994 -1.433929,-0.945994 -0.507851,0 -1.135194,0.219193 -1.473762,1.005755 -0.278822,0.587509 -0.318651,1.244721 -0.318651,1.921855 0,0.63729 0.03983,1.394106 0.378397,2.041347 0.368442,0.687107 0.985828,0.856384 1.404058,0.856384 0.458061,0 1.095363,-0.179204 1.47376,-0.985827 0.268864,-0.587507 0.308693,-1.244738 0.308693,-1.911904 z m -1.782453,2.708529 c -0.328608,0 -0.836459,-0.209071 -0.985828,-1.025661 -0.08963,-0.507855 -0.08963,-1.284571 -0.08963,-1.782444 0,-0.547694 0,-1.105328 0.06972,-1.563396 0.159336,-1.005731 0.78667,-1.075434 1.005742,-1.075434 0.278822,0 0.83646,0.149335 0.995785,0.985829 0.07965,0.47796 0.07965,1.11528 0.07965,1.653001 0,0.63729 0,1.204904 -0.08962,1.752569 -0.129445,0.796633 -0.607429,1.055536 -0.985827,1.055536 z m 14.481199,-2.708529 c 0,-0.677134 -0.03982,-1.35427 -0.338568,-1.981616 -0.388355,-0.81655 -1.085403,-0.945994 -1.433929,-0.945994 -0.50785,0 -1.135194,0.219193 -1.473761,1.005755 -0.278819,0.587509 -0.318652,1.244721 -0.318652,1.921855 0,0.63729 0.03982,1.394106 0.378399,2.041347 0.36844,0.687107 0.985827,0.856384 1.404057,0.856384 0.45806,0 1.095361,-0.179204 1.473761,-0.985827 0.268862,-0.587507 0.308693,-1.244738 0.308693,-1.911904 z m -1.782454,2.708529 c -0.32861,0 -0.83646,-0.209071 -0.985828,-1.025661 -0.08963,-0.507855 -0.08963,-1.284571 -0.08963,-1.782444 0,-0.547694 0,-1.105328 0.06971,-1.563396 0.159334,-1.005731 0.786669,-1.075434 1.005743,-1.075434 0.27882,0 0.836457,0.149335 0.995784,0.985829 0.07965,0.47796 0.07965,1.11528 0.07965,1.653001 0,0.63729 0,1.204904 -0.08962,1.752569 -0.129443,0.796633 -0.607429,1.055536 -0.985827,1.055536 z m 11.663128,-0.647257 0.896208,-0.876293 c 1.324393,-1.165062 1.832244,-1.623125 1.832244,-2.469536 0,-0.965915 -0.766755,-1.643053 -1.802372,-1.643053 -0.955952,0 -1.573339,0.776715 -1.573339,1.533504 0,0.46803 0.418229,0.46803 0.448102,0.46803 0.139416,0 0.438146,-0.09951 0.438146,-0.448118 0,-0.218948 -0.159336,-0.438133 -0.448103,-0.438133 -0.06971,0 -0.08963,0 -0.109548,0.0096 0.189204,-0.547662 0.647261,-0.866316 1.135197,-0.866316 0.77671,0 1.135195,0.687087 1.135195,1.384135 0,0.677136 -0.41823,1.344292 -0.886249,1.872064 l -1.623129,1.812328 c -0.08962,0.08956 -0.08962,0.109606 -0.08962,0.308702 h 3.136721 l 0.238991,-1.473757 h -0.219071 c -0.03983,0.258903 -0.09958,0.627348 -0.179232,0.756791 -0.05974,0.06957 -0.617386,0.06957 -0.806584,0.06957 z m 18.800418,-2.061272 c 0,-0.677134 -0.0398,-1.35427 -0.33857,-1.981616 -0.388355,-0.81655 -1.085404,-0.945994 -1.433932,-0.945994 -0.507847,0 -1.135188,0.219193 -1.473758,1.005755 -0.278819,0.587509 -0.318653,1.244721 -0.318653,1.921855 0,0.63729 0.0398,1.394106 0.378396,2.041347 0.368445,0.687107 0.985827,0.856384 1.404064,0.856384 0.458056,0 1.095362,-0.179204 1.473758,-0.985827 0.268861,-0.587507 0.308695,-1.244738 0.308695,-1.911904 z m -1.782453,2.708529 c -0.328611,0 -0.836458,-0.209071 -0.985835,-1.025661 -0.08962,-0.507855 -0.08962,-1.284571 -0.08962,-1.782444 0,-0.547694 0,-1.105328 0.06973,-1.563396 0.159335,-1.005731 0.786667,-1.075434 1.005744,-1.075434 0.27882,0 0.836459,0.149335 0.995786,0.985829 0.07965,0.47796 0.07965,1.11528 0.07965,1.653001 0,0.63729 0,1.204904 -0.08962,1.752569 -0.129444,0.796633 -0.607432,1.055536 -0.985828,1.055536 z M 96.41359,81.645626 c 0,-0.677134 -0.0398,-1.35427 -0.33857,-1.981616 -0.388354,-0.81655 -1.085403,-0.945994 -1.433932,-0.945994 -0.507847,0 -1.135195,0.219193 -1.473757,1.005755 -0.27882,0.587509 -0.318662,1.244721 -0.318662,1.921855 0,0.63729 0.0398,1.394106 0.378412,2.041347 0.368438,0.687107 0.985827,0.856384 1.404057,0.856384 0.458055,0 1.095354,-0.179204 1.473757,-0.985827 0.268862,-0.587507 0.308695,-1.244738 0.308695,-1.911904 z m -1.782452,2.708529 c -0.32862,0 -0.836467,-0.209071 -0.985827,-1.025661 -0.08967,-0.507855 -0.08967,-1.284571 -0.08967,-1.782444 0,-0.547694 0,-1.105328 0.06973,-1.563396 0.159335,-1.005731 0.786667,-1.075434 1.005736,-1.075434 0.27882,0 0.836467,0.149335 0.995778,0.985829 0.07961,0.47796 0.07961,1.11528 0.07961,1.653001 0,0.63729 0,1.204904 -0.08966,1.752569 -0.129444,0.796633 -0.607424,1.055536 -0.985828,1.055536 z m 0,0"
         style="fill:#ffffff;fill-opacity:1;fill-rule:nonzero;stroke:#ffffff;stroke-width:0.119854;stroke-dasharray:none"
         aria-label="00200" />
      <path
         id="path14"
         d="m 114.09126,82.402417 c 0.14937,0 0.29873,0 0.29873,-0.169332 0,-0.169333 -0.14935,-0.169333 -0.29873,-0.169333 h -4.58061 c -0.13941,0 -0.28877,0 -0.28877,0.169333 0,0.169332 0.14936,0.169332 0.28877,0.169332 z m 0,0"
         style="fill:#ffffff;fill-opacity:1;fill-rule:nonzero;stroke:#ffffff;stroke-width:0.119854;stroke-dasharray:none"
         aria-label="−" />
      <path
         id="path15"
         d="m 117.58896,78.937088 c 0,-0.1992 0,-0.219193 -0.19916,-0.219193 -0.5178,0.537717 -1.26464,0.537717 -1.5335,0.537717 v 0.268866 c 0.16928,0 0.66717,0 1.10531,-0.219195 v 4.381459 c 0,0.298745 -0.0298,0.408263 -0.78666,0.408263 h -0.26887 v 0.258919 c 0.29874,-0.02985 1.02567,-0.02985 1.36422,-0.02985 0.33857,0 1.07546,0 1.37419,0.02985 v -0.258919 h -0.26886 c -0.76676,0 -0.78667,-0.09951 -0.78667,-0.408263 z m 17.38889,2.708538 c 0,-0.677134 -0.0398,-1.35427 -0.33856,-1.981616 -0.38837,-0.81655 -1.08541,-0.945994 -1.43394,-0.945994 -0.50785,0 -1.1352,0.219193 -1.47376,1.005755 -0.27882,0.587509 -0.31865,1.244721 -0.31865,1.921855 0,0.63729 0.0398,1.394106 0.3784,2.041347 0.36843,0.687107 0.98582,0.856384 1.40405,0.856384 0.45806,0 1.09536,-0.179204 1.47376,-0.985827 0.26887,-0.587507 0.3087,-1.244738 0.3087,-1.911904 z m -1.78246,2.708529 c -0.32861,0 -0.83645,-0.209071 -0.98582,-1.025661 -0.0897,-0.507855 -0.0897,-1.284571 -0.0897,-1.782444 0,-0.547694 0,-1.105328 0.0697,-1.563396 0.15933,-1.005731 0.78667,-1.075434 1.00574,-1.075434 0.27882,0 0.83646,0.149335 0.99579,0.985829 0.0796,0.47796 0.0796,1.11528 0.0796,1.653001 0,0.63729 0,1.204904 -0.0897,1.752569 -0.12945,0.796633 -0.60743,1.055536 -0.98583,1.055536 z m 21.06583,-2.708529 c 0,-0.677134 -0.0398,-1.35427 -0.33857,-1.981616 -0.38835,-0.81655 -1.0854,-0.945994 -1.43392,-0.945994 -0.50786,0 -1.13521,0.219193 -1.47378,1.005755 -0.27882,0.587509 -0.31864,1.244721 -0.31864,1.921855 0,0.63729 0.0398,1.394106 0.37839,2.041347 0.36845,0.687107 0.98583,0.856384 1.40406,0.856384 0.45806,0 1.09536,-0.179204 1.47377,-0.985827 0.26886,-0.587507 0.30869,-1.244738 0.30869,-1.911904 z m -1.78246,2.708529 c -0.3286,0 -0.83646,-0.209071 -0.98583,-1.025661 -0.0897,-0.507855 -0.0897,-1.284571 -0.0897,-1.782444 0,-0.547694 0,-1.105328 0.0696,-1.563396 0.15934,-1.005731 0.78668,-1.075434 1.00574,-1.075434 0.27883,0 0.83646,0.149335 0.99579,0.985829 0.0796,0.47796 0.0796,1.11528 0.0796,1.653001 0,0.63729 0,1.204904 -0.0897,1.752569 -0.12944,0.796633 -0.60743,1.055536 -0.98583,1.055536 z m 0,0"
         style="fill:#ffffff;fill-opacity:1;fill-rule:nonzero;stroke:#ffffff;stroke-width:0.119854;stroke-dasharray:none"
         aria-label="100" />
      <path
         id="path16"
         d="m 171.94137,82.402417 c 0.14934,0 0.29875,0 0.29875,-0.169332 0,-0.169333 -0.14933,-0.169333 -0.29875,-0.169333 h -4.58059 c -0.13948,0 -0.28879,0 -0.28879,0.169333 0,0.169332 0.14934,0.169332 0.28879,0.169332 z m 0,0"
         style="fill:#ffffff;fill-opacity:1;fill-rule:nonzero;stroke:#ffffff;stroke-width:0.119854;stroke-dasharray:none"
         aria-label="−" />
      <path
         id="path17"
         d="m 175.43907,78.937088 c 0,-0.1992 0,-0.219193 -0.1992,-0.219193 -0.51781,0.537717 -1.26466,0.537717 -1.53351,0.537717 v 0.268866 c 0.16932,0 0.66718,0 1.10532,-0.219195 v 4.381459 c 0,0.298745 -0.0298,0.408263 -0.78666,0.408263 h -0.26888 v 0.258919 c 0.29875,-0.02985 1.02568,-0.02985 1.36425,-0.02985 0.33856,0 1.07543,0 1.37418,0.02985 v -0.258919 h -0.26889 c -0.76673,0 -0.78666,-0.09951 -0.78666,-0.408263 z m 0,0"
         style="fill:#ffffff;fill-opacity:1;fill-rule:nonzero;stroke:#ffffff;stroke-width:0.119854;stroke-dasharray:none"
         aria-label="1" />
      <path
         id="path18"
         d="m 180.75318,64.46807 h 0.92496 V 40.49736 h -4.43668 v 0.924965 h 3.51172 z m 0,0"
         style="fill:#ffffff;fill-opacity:1;fill-rule:nonzero;stroke:#ffffff;stroke-width:0.119854;stroke-dasharray:none"
         aria-label="" />
      <path
         id="path19"
         d="m 180.75318,87.52949 h -3.51172 v 0.90929 h 4.43668 V 64.46807 h -0.92496 z m 0,0"
         style="fill:#ffffff;fill-opacity:1;fill-rule:nonzero;stroke:#ffffff;stroke-width:0.119854;stroke-dasharray:none"
         aria-label="" />
    </g>
    <g
       id="g29">
      <path
         style="fill:none;stroke:#82b9ff;stroke-width:0.3272;stroke-linecap:round;stroke-linejoin:round;stroke-dasharray:none;marker-end:url(#ArrowWide)"
         d="m 35.749739,41.661568 c 1.566731,-1.489069 3.133434,-2.97811 8.191693,-3.667551 5.05826,-0.689441 13.607504,-0.57923 19.072903,0.499331 5.4654,1.07856 7.846348,3.125382 10.227341,5.172243"
         id="path23"
         inkscape:path-effect="#path-effect24"
         inkscape:original-d="m 35.749739,41.661568 c 1.566731,-1.489069 3.133434,-2.97811 4.700198,-4.46721 8.549755,0.110218 17.098999,0.220429 25.648755,0.330647 2.381043,2.046903 4.761991,4.093725 7.142984,6.140586"
         sodipodi:nodetypes="cccc" />
      <path
         style="fill:none;stroke:#82b9ff;stroke-width:0.3272;stroke-linecap:round;stroke-linejoin:round;stroke-dasharray:none;marker-start:url(#marker27)"
         d="m 30.256613,44.133196 c 3.598174,-1.62267 7.196282,-3.24531 13.203482,-3.979286 6.007201,-0.733976 14.422846,-0.579232 19.788043,0.154184 5.365197,0.733416 7.679346,2.045444 9.993538,3.357497"
         id="path23-2"
         inkscape:path-effect="#path-effect24-8"
         inkscape:original-d="m 30.256613,44.133196 c 3.598174,-1.62267 7.196282,-3.24531 10.794531,-4.868014 8.416152,0.154752 16.831797,0.309496 25.24795,0.464248 2.314241,1.31208 4.62839,2.624108 6.942582,3.936161"
         sodipodi:nodetypes="cccc"
         transform="rotate(180,61.440615,55.585708)" />
      <path
         style="fill:none;stroke:#82b9ff;stroke-width:0.3272;stroke-linecap:round;stroke-linejoin:round;stroke-dasharray:none;marker-end:url(#marker26)"
         d="m 31.187434,44.87383 c -6.032168,-0.295773 -12.064208,-0.59154 -15.355529,-2.892371 -3.291322,-2.300831 -3.841643,-6.606453 5.867009,-9.231756 9.708652,-2.625303 29.67551,-3.569989 59.298958,-3.741733 29.623448,-0.171743 68.900738,0.42944 89.609388,3.054741 20.70864,2.625301 22.84623,7.274508 14.94129,9.81924 -7.90494,2.544731 -25.85172,2.984885 -43.79886,3.425048"
         id="path25"
         inkscape:path-effect="#path-effect25"
         inkscape:original-d="M 31.187434,44.87383 C 25.155266,44.578057 19.123226,44.28229 13.090938,43.986511 12.540584,39.680628 11.990262,35.375006 11.439908,31.069125 31.407566,30.1244 51.374424,29.179714 71.341686,28.235008 c 39.279634,0.601219 78.556924,1.202402 117.836554,1.803621 2.13766,4.649385 4.27525,9.298589 6.41287,13.947882 -17.9475,0.440171 -35.89428,0.880323 -53.84142,1.320488"
         sodipodi:nodetypes="ccccccc" />
      <path
         style="fill:none;stroke:#82b9ff;stroke-width:0.3272;stroke-linecap:round;stroke-linejoin:round;stroke-dasharray:none;marker-start:url(#marker28)"
         d="m 31.187434,44.87383 c -6.032168,-0.295773 -12.064208,-0.59154 -15.355529,-2.892371 -3.291322,-2.300831 -3.841643,-6.606453 5.867009,-9.231756 9.708652,-2.625303 29.67551,-3.569989 59.365758,-4.075743 29.690248,-0.505754 69.101918,-0.572553 89.810178,2.052749 20.70825,2.625303 22.71224,7.942502 16.48292,10.749042 -6.22932,2.806539 -20.69139,3.102306 -35.15376,3.398079"
         id="path25-3"
         inkscape:path-effect="#path-effect25-1"
         inkscape:original-d="M 31.187434,44.87383 C 25.155266,44.578057 19.123226,44.28229 13.090938,43.986511 12.540584,39.680628 11.990262,35.375006 11.439908,31.069125 31.407566,30.1244 51.374424,29.179714 71.341686,28.235008 c 39.413234,-0.0668 78.824904,-0.133601 118.237354,-0.200402 2.00406,5.317407 4.00805,10.634604 6.01207,15.951905 -14.46266,0.295779 -28.92473,0.591546 -43.3871,0.887319"
         sodipodi:nodetypes="ccccccc"
         transform="rotate(180,104.26905,63.423042)" />
      <path
         style="fill:none;stroke:#82b9ff;stroke-width:0.3272;stroke-linecap:round;stroke-linejoin:round;stroke-dasharray:none;marker-end:url(#marker26-7)"
         d="m 39.604331,45.267859 c -8.837802,-0.427116 -17.675416,-0.854223 -22.447733,-2.156641 -4.772316,-1.302417 -5.47893,-3.479995 4.122345,-4.56885 9.601274,-1.088854 29.509288,-1.088854 59.077478,-1.088854 29.568189,0 68.793809,0 89.609419,1.088831 20.81561,1.088831 23.22044,3.266499 18.07666,4.568895 -5.14379,1.302396 -17.83568,1.729503 -30.52783,2.156619"
         id="path25-0"
         inkscape:path-effect="#path-effect25-9"
         inkscape:original-d="m 39.604331,45.267859 c -8.837802,-0.427116 -17.675416,-0.854223 -26.513393,-1.281348 -0.706656,-2.17771 -1.41327,-4.355288 -2.119926,-6.532997 19.909205,0 39.817219,0 59.726422,0 39.227176,0 78.452796,0 117.679196,0 2.40482,2.177666 4.80965,4.355332 7.21448,6.532997 -12.6924,0.427125 -25.38429,0.854232 -38.07644,1.281348"
         sodipodi:nodetypes="ccccccc"
         transform="translate(2.5442424,19.200211)" />
      <text
         xml:space="preserve"
         style="font-size:6.76506px;line-height:0.9;font-family:'Architects Daughter';-inkscape-font-specification:'Architects Daughter';writing-mode:lr-tb;direction:ltr;fill:#82b9ff;fill-opacity:1;stroke:#82b9ff;stroke-width:0.3272;stroke-linecap:round;stroke-linejoin:round;stroke-dasharray:none"
         x="40.81424"
         y="37.040855"
         id="text26"><tspan
           sodipodi:role="line"
           id="tspan26"
           style="fill:#82b9ff;fill-opacity:1;stroke-width:0.3272"
           x="40.81424"
           y="37.040855">+ N slots</tspan></text>
      <text
         xml:space="preserve"
         style="font-size:6.76506px;line-height:0.9;font-family:'Architects Daughter';-inkscape-font-specification:'Architects Daughter';writing-mode:lr-tb;direction:ltr;fill:#82b9ff;fill-opacity:1;stroke:#82b9ff;stroke-width:0.3272;stroke-linecap:round;stroke-linejoin:round;stroke-dasharray:none"
         x="56.939209"
         y="77.038261"
         id="text26-5"><tspan
           sodipodi:role="line"
           id="tspan26-92"
           style="fill:#82b9ff;fill-opacity:1;stroke-width:0.3272"
           x="56.939209"
           y="77.038261">+ N slots</tspan></text>
      <path
         style="fill:none;stroke:#82b9ff;stroke-width:0.3272;stroke-linecap:round;stroke-linejoin:round;stroke-dasharray:none;marker-start:url(#marker27-9)"
         d="m 30.256613,44.133196 c 3.598174,-1.62267 7.196282,-3.24531 13.203482,-3.979286 6.007201,-0.733976 14.422846,-0.579232 19.788043,0.154184 5.365197,0.733416 7.679346,2.045444 9.993538,3.357497"
         id="path23-2-7"
         inkscape:path-effect="#path-effect24-8-1"
         inkscape:original-d="m 30.256613,44.133196 c 3.598174,-1.62267 7.196282,-3.24531 10.794531,-4.868014 8.416152,0.154752 16.831797,0.309496 25.24795,0.464248 2.314241,1.31208 4.62839,2.624108 6.942582,3.936161"
         sodipodi:nodetypes="cccc"
         transform="rotate(180,68.348585,64.523813)" />
      <text
         xml:space="preserve"
         style="font-size:6.76506px;line-height:0.9;font-family:'Architects Daughter';-inkscape-font-specification:'Architects Daughter';writing-mode:lr-tb;direction:ltr;fill:#82b9ff;fill-opacity:1;stroke:#82b9ff;stroke-width:0.3272;stroke-linecap:round;stroke-linejoin:round;stroke-dasharray:none"
         x="70.75515"
         y="94.914467"
         id="text26-5-8"><tspan
           sodipodi:role="line"
           id="tspan26-92-4"
           style="fill:#82b9ff;fill-opacity:1;stroke-width:0.3272"
           x="70.75515"
           y="94.914467">+ N slots</tspan></text>
      <text
         xml:space="preserve"
         style="font-size:6.76506px;line-height:0.9;font-family:'Architects Daughter';-inkscape-font-specification:'Architects Daughter';writing-mode:lr-tb;direction:ltr;fill:#82b9ff;fill-opacity:1;stroke:#82b9ff;stroke-width:0.3272;stroke-linecap:round;stroke-linejoin:round;stroke-dasharray:none"
         x="152.59293"
         y="27.688992"
         id="text26-2"><tspan
           sodipodi:role="line"
           id="tspan26-9"
           style="fill:#82b9ff;fill-opacity:1;stroke-width:0.3272"
           x="152.59293"
           y="27.688992">- N slots</tspan></text>
      <text
         xml:space="preserve"
         style="font-size:6.76506px;line-height:0.9;font-family:'Architects Daughter';-inkscape-font-specification:'Architects Daughter';writing-mode:lr-tb;direction:ltr;fill:#82b9ff;fill-opacity:1;stroke:#82b9ff;stroke-width:0.3272;stroke-linecap:round;stroke-linejoin:round;stroke-dasharray:none"
         x="152.59293"
         y="56.134937"
         id="text26-2-3"><tspan
           sodipodi:role="line"
           id="tspan26-9-6"
           style="fill:#82b9ff;fill-opacity:1;stroke-width:0.3272"
           x="152.59293"
           y="56.134937">- N slots</tspan></text>
      <text
         xml:space="preserve"
         style="font-size:6.76506px;line-height:0.9;font-family:'Architects Daughter';-inkscape-font-specification:'Architects Daughter';writing-mode:lr-tb;direction:ltr;fill:#82b9ff;fill-opacity:1;stroke:#82b9ff;stroke-width:0.3272;stroke-linecap:round;stroke-linejoin:round;stroke-dasharray:none"
         x="152.59293"
         y="104.67509"
         id="text26-2-3-5"><tspan
           sodipodi:role="line"
           id="tspan26-9-6-5"
           style="fill:#82b9ff;fill-opacity:1;stroke-width:0.3272"
           x="152.59293"
           y="104.67509">- N slots</tspan></text>
    </g>
  </g>
</svg>
